<?xml version="1.0" encoding="utf-8"?>
<!-- Generator: Adobe Illustrator 22.1.0, SVG Export Plug-In . SVG Version: 6.00 Build 0)  -->
<svg version="1.1" id="Layer_1" xmlns="http://www.w3.org/2000/svg" xmlns:xlink="http://www.w3.org/1999/xlink" x="0px" y="0px"
	 viewBox="0 0 125 75" style="enable-background:new 0 0 125 75;" xml:space="preserve">
<style type="text/css">
	.st0{fill-rule:evenodd;clip-rule:evenodd;fill:#B8C6D7;}
	.st1{fill-rule:evenodd;clip-rule:evenodd;fill:#1E86D5;}
	.st2{fill-rule:evenodd;clip-rule:evenodd;fill:none;stroke:#404C61;stroke-miterlimit:10;}
	.st3{fill-rule:evenodd;clip-rule:evenodd;fill:#B8C7D6;}
</style>
<g>
	<path class="st0" d="M40.4,35.4c0-2.4,2-4.4,4.4-4.4c2.4,0,4.4,2,4.4,4.4c0,1.7-1,3.2-2.5,4c5,0,4.3,4,4.3,7.5v7.7h-2.3v10.8h-7.9
		V54.5h-2.3V43.1c0-2.4,1.8-3.7,4.3-3.7C41.4,38.7,40.4,37.2,40.4,35.4z"/>
	<path class="st1" d="M59.2,14.1c0-2.4,2-4.4,4.4-4.4c2.4,0,4.4,2,4.4,4.4c0,1.7-1,3.2-2.5,4c5,0,4.3,4,4.3,7.5v7.7h-2.3V44h-7.9
		V33.2h-2.3V21.8c0-2.4,1.8-3.7,4.3-3.7C60.3,17.4,59.2,15.9,59.2,14.1z"/>
	<path class="st2" d="M75.8,35.4c0-2.4,2-4.4,4.4-4.4c2.4,0,4.4,2,4.4,4.4c0,1.7-1,3.2-2.5,4c5,0,4.3,4,4.3,7.5v7.7h-2.3v10.8h-7.9
		V54.5h-2.3V43.1c0-2.4,1.8-3.7,4.3-3.7C76.8,38.7,75.8,37.2,75.8,35.4z"/>
</g>
<path class="st3" d="M3.9,39.9c-0.2,0-0.4-0.2-0.4-0.4s0.2-0.4,0.4-0.4c0.4,0,0.9-0.4,1.4-0.8c0.6-0.5,1.2-1,1.8-1
	c0.7,0,1.3,0.5,1.8,1c0.5,0.4,1,0.8,1.4,0.8c0.4,0,0.9-0.4,1.4-0.8l0,0c0.6-0.5,1.2-1,1.8-1c0.7,0,1.3,0.5,1.8,1
	c0.5,0.4,1,0.8,1.4,0.8c0.4,0,0.9-0.4,1.4-0.8c0.6-0.5,1.2-1,1.8-1c0.2,0,0.4,0.2,0.4,0.4s-0.2,0.4-0.4,0.4c-0.4,0-0.9,0.4-1.4,0.8
	c-0.6,0.5-1.2,1-1.8,1c-0.7,0-1.3-0.5-1.8-1c-0.5-0.4-1-0.8-1.4-0.8c-0.4,0-0.9,0.4-1.4,0.8l0,0c-0.6,0.5-1.2,1-1.8,1
	c-0.7,0-1.3-0.5-1.8-1c-0.5-0.4-1-0.8-1.4-0.8c-0.4,0-0.9,0.4-1.4,0.8C5.2,39.4,4.6,39.9,3.9,39.9z"/>
<path class="st3" d="M105.9,39.9c-0.2,0-0.4-0.2-0.4-0.4s0.2-0.4,0.4-0.4c0.4,0,0.9-0.4,1.4-0.8c0.6-0.5,1.2-1,1.8-1
	c0.7,0,1.3,0.5,1.8,1c0.5,0.4,1,0.8,1.4,0.8c0.4,0,0.9-0.4,1.4-0.8l0,0c0.6-0.5,1.2-1,1.8-1c0.7,0,1.3,0.5,1.8,1
	c0.5,0.4,1,0.8,1.4,0.8c0.4,0,0.9-0.4,1.4-0.8c0.6-0.5,1.2-1,1.8-1c0.2,0,0.4,0.2,0.4,0.4s-0.2,0.4-0.4,0.4c-0.4,0-0.9,0.4-1.4,0.8
	c-0.6,0.5-1.2,1-1.8,1c-0.7,0-1.3-0.5-1.8-1c-0.5-0.4-1-0.8-1.4-0.8c-0.4,0-0.9,0.4-1.4,0.8l0,0c-0.6,0.5-1.2,1-1.8,1
	c-0.7,0-1.3-0.5-1.8-1c-0.5-0.4-1-0.8-1.4-0.8c-0.4,0-0.9,0.4-1.4,0.8C107.2,39.4,106.6,39.9,105.9,39.9z"/>
</svg>
