<?xml version="1.0" encoding="utf-8"?>
<!-- Generator: Adobe Illustrator 22.1.0, SVG Export Plug-In . SVG Version: 6.00 Build 0)  -->
<svg version="1.1" id="Layer_1" xmlns="http://www.w3.org/2000/svg" xmlns:xlink="http://www.w3.org/1999/xlink" x="0px" y="0px"
	 viewBox="0 0 103 58" style="enable-background:new 0 0 103 58;" xml:space="preserve">
<style type="text/css">
	.st0{display:none;fill-rule:evenodd;clip-rule:evenodd;fill:#1E86D5;}
	.st1{display:none;fill-rule:evenodd;clip-rule:evenodd;fill:#404D61;}
	.st2{fill-rule:evenodd;clip-rule:evenodd;fill:#B8C7D6;}
	.st3{fill-rule:evenodd;clip-rule:evenodd;fill:#FFFFFF;}
	.st4{fill-rule:evenodd;clip-rule:evenodd;fill:#404D61;}
	.st5{fill-rule:evenodd;clip-rule:evenodd;fill:#8A8C8E;}
	.st6{fill:#1F87D6;}
</style>
<rect x="22.1" y="49.2" class="st0" width="8.7" height="21.3"/>
<rect x="39" y="34.6" class="st0" width="8.7" height="35.9"/>
<rect x="55.9" y="40.3" class="st0" width="8.7" height="30.1"/>
<rect x="72.8" y="21.2" class="st0" width="8.7" height="49.3"/>
<path class="st1" d="M20.8,70.1h9.6v-22h-9.6V70.1L20.8,70.1z M30.7,70.8H20.4h0c-0.2,0-0.4-0.2-0.4-0.4V47.7v0
	c0-0.2,0.2-0.4,0.4-0.4h10.3h0c0.2,0,0.4,0.2,0.4,0.4v22.7v0C31.1,70.7,30.9,70.8,30.7,70.8z"/>
<path class="st1" d="M37.7,70.1h9.6V33.5h-9.6V70.1L37.7,70.1z M47.7,70.8H37.3h0c-0.2,0-0.4-0.2-0.4-0.4V33.1v0
	c0-0.2,0.2-0.4,0.4-0.4h10.3h0c0.2,0,0.4,0.2,0.4,0.4v37.4v0C48,70.7,47.9,70.8,47.7,70.8z"/>
<path class="st1" d="M54.6,70.1h9.6V39.2h-9.6V70.1L54.6,70.1z M64.6,70.8H54.3h0c-0.2,0-0.4-0.2-0.4-0.4V38.9v0
	c0-0.2,0.2-0.4,0.4-0.4h10.3h0c0.2,0,0.4,0.2,0.4,0.4v31.6v0C64.9,70.7,64.8,70.8,64.6,70.8z"/>
<path class="st1" d="M71.5,70.1h9.6V20h-9.6V70.1L71.5,70.1z M81.5,70.8H71.2h0c-0.2,0-0.4-0.2-0.4-0.4V19.7v0
	c0-0.2,0.2-0.4,0.4-0.4h10.3h0c0.2,0,0.4,0.2,0.4,0.4v50.8v0C81.8,70.7,81.7,70.8,81.5,70.8z"/>
<path class="st1" d="M37.3,43.6L37.3,43.6h10.3c0.2,0,0.4,0.2,0.4,0.4v0v9.4c0,0.2-0.2,0.4-0.4,0.4h0H37.3c-0.2,0-0.4-0.2-0.4-0.4v0
	v-9.4C37,43.7,37.1,43.6,37.3,43.6L37.3,43.6z M47.3,44.3h-9.6V53h9.6V44.3z"/>
<path class="st1" d="M54.2,47.4L54.2,47.4h10.3c0.2,0,0.4,0.2,0.4,0.4v0v4.7c0,0.2-0.2,0.4-0.4,0.4h0H54.2c-0.2,0-0.4-0.2-0.4-0.4v0
	v-4.7C53.9,47.6,54,47.4,54.2,47.4L54.2,47.4z M64.2,48.1h-9.6v4h9.6V48.1z"/>
<path class="st1" d="M71.2,25.9L71.2,25.9h10.3c0.2,0,0.4,0.2,0.4,0.4v0v8.1c0,0.2-0.2,0.4-0.4,0.4h0H71.2c-0.2,0-0.4-0.2-0.4-0.4v0
	v-8.1C70.8,26,71,25.9,71.2,25.9L71.2,25.9z M81.1,26.6h-9.6V34h9.6V26.6z"/>
<path class="st1" d="M71.2,40.6L71.2,40.6h10.3c0.2,0,0.4,0.2,0.4,0.4v0v8.1c0,0.2-0.2,0.4-0.4,0.4h0H71.2c-0.2,0-0.4-0.2-0.4-0.4v0
	V41C70.8,40.8,71,40.6,71.2,40.6L71.2,40.6z M81.1,41.4h-9.6v7.4h9.6V41.4z"/>
<path class="st2" d="M2.9,29.9c-0.2,0-0.4-0.2-0.4-0.4s0.2-0.4,0.4-0.4c0.4,0,0.9-0.4,1.4-0.8c0.6-0.5,1.2-1,1.8-1
	c0.7,0,1.3,0.5,1.8,1c0.5,0.4,1,0.8,1.4,0.8c0.4,0,0.9-0.4,1.4-0.8l0,0c0.6-0.5,1.2-1,1.8-1c0.7,0,1.3,0.5,1.8,1
	c0.5,0.4,1,0.8,1.4,0.8c0.4,0,0.9-0.4,1.4-0.8c0.6-0.5,1.2-1,1.8-1c0.2,0,0.4,0.2,0.4,0.4s-0.2,0.4-0.4,0.4c-0.4,0-0.9,0.4-1.4,0.8
	c-0.6,0.5-1.2,1-1.8,1c-0.7,0-1.3-0.5-1.8-1c-0.5-0.4-1-0.8-1.4-0.8c-0.4,0-0.9,0.4-1.4,0.8l0,0c-0.6,0.5-1.2,1-1.8,1
	c-0.7,0-1.3-0.5-1.8-1c-0.5-0.4-1-0.8-1.4-0.8c-0.4,0-0.9,0.4-1.4,0.8C4.2,29.4,3.6,29.9,2.9,29.9z"/>
<path class="st2" d="M84.9,29.9c-0.2,0-0.4-0.2-0.4-0.4s0.2-0.4,0.4-0.4c0.4,0,0.9-0.4,1.4-0.8c0.6-0.5,1.2-1,1.8-1
	c0.7,0,1.3,0.5,1.8,1c0.5,0.4,1,0.8,1.4,0.8c0.4,0,0.9-0.4,1.4-0.8l0,0c0.6-0.5,1.2-1,1.8-1c0.7,0,1.3,0.5,1.8,1
	c0.5,0.4,1,0.8,1.4,0.8c0.4,0,0.9-0.4,1.4-0.8c0.6-0.5,1.2-1,1.8-1c0.2,0,0.4,0.2,0.4,0.4s-0.2,0.4-0.4,0.4c-0.4,0-0.9,0.4-1.4,0.8
	c-0.6,0.5-1.2,1-1.8,1c-0.7,0-1.3-0.5-1.8-1c-0.5-0.4-1-0.8-1.4-0.8c-0.4,0-0.9,0.4-1.4,0.8l0,0c-0.6,0.5-1.2,1-1.8,1
	c-0.7,0-1.3-0.5-1.8-1c-0.5-0.4-1-0.8-1.4-0.8c-0.4,0-0.9,0.4-1.4,0.8C86.2,29.4,85.6,29.9,84.9,29.9z"/>
<polygon class="st3" points="32.8,2.1 60.1,2.1 71.1,13.2 71.1,56.4 32.8,56.4 "/>
<path class="st4" d="M32.8,1.5L32.8,1.5h27.3c0.2,0,0.3,0.1,0.4,0.2l11,11c0.1,0.1,0.2,0.3,0.2,0.4h0v43.2c0,0.3-0.3,0.6-0.6,0.6h0
	H32.8c-0.3,0-0.6-0.3-0.6-0.6v0V2.1C32.1,1.8,32.4,1.5,32.8,1.5L32.8,1.5z M59.8,2.8H33.4v53h37.1V13.4L59.8,2.8z"/>
<path class="st5" d="M39.8,47.3c-0.3,0-0.6-0.3-0.6-0.6c0-0.3,0.3-0.6,0.6-0.6h4.4c0.3,0,0.6,0.3,0.6,0.6c0,0.3-0.3,0.6-0.6,0.6
	H39.8L39.8,47.3z M55.6,50.2c-0.3,0-0.6-0.3-0.6-0.6s0.3-0.6,0.6-0.6h3.3c0.3,0,0.6,0.3,0.6,0.6s-0.3,0.6-0.6,0.6H55.6L55.6,50.2z
	 M48.8,50.2c-0.3,0-0.6-0.3-0.6-0.6s0.3-0.6,0.6-0.6h4.3c0.3,0,0.6,0.3,0.6,0.6s-0.3,0.6-0.6,0.6H48.8L48.8,50.2z M44.1,50.2
	c-0.3,0-0.6-0.3-0.6-0.6s0.3-0.6,0.6-0.6h2.2c0.3,0,0.6,0.3,0.6,0.6s-0.3,0.6-0.6,0.6H44.1L44.1,50.2z M57.5,47.3
	c-0.3,0-0.6-0.3-0.6-0.6c0-0.3,0.3-0.6,0.6-0.6h6.6c0.3,0,0.6,0.3,0.6,0.6c0,0.3-0.3,0.6-0.6,0.6H57.5L57.5,47.3z M46.3,47.3
	c-0.3,0-0.6-0.3-0.6-0.6c0-0.3,0.3-0.6,0.6-0.6h8.6c0.3,0,0.6,0.3,0.6,0.6c0,0.3-0.3,0.6-0.6,0.6H46.3z"/>
<path class="st4" d="M71.1,12.6c0.3,0,0.6,0.3,0.6,0.6c0,0.3-0.3,0.6-0.6,0.6h-11c-0.3,0-0.6-0.3-0.6-0.6v0v-11
	c0-0.3,0.3-0.6,0.6-0.6s0.6,0.3,0.6,0.6v10.4H71.1z"/>
<g>
	<path class="st6" d="M56,31c0,0.2-0.1,0.4-0.2,0.7c-0.2,0.2-0.3,0.4-0.5,0.5c-0.1,0-0.1,0.1-0.3,0.1s-0.3,0.1-0.4,0.1
		c-0.1,0-0.3,0.1-0.4,0.1c-0.1,0-0.2,0-0.3,0.1l0.4,2.3c0.1,0.7,0.2,1.4,0.3,2.1c0.1,0.7,0.2,1.4,0.4,2.1c0,0.1,0,0.1,0.1,0.2
		c0,0.1,0,0.1,0,0.2c0,0.1,0,0.2-0.1,0.3c-0.1,0.1-0.2,0.1-0.3,0.2c-0.1,0-0.2,0.1-0.3,0.1c-0.1,0-0.2,0-0.3,0h-0.2
		c-0.3,0-0.6,0-0.7-0.1c-0.2-0.1-0.3-0.1-0.4-0.3c-0.1-0.1-0.2-0.3-0.2-0.5c0-0.2-0.1-0.4-0.1-0.7c-0.2-1.9-0.5-3.8-0.8-5.7
		c-0.6,0.1-1.3,0.2-1.9,0.2c-0.6,0.1-1.3,0.1-1.9,0.2l-0.5,3c0,0.2,0,0.4-0.1,0.8c0,0.3-0.1,0.6-0.1,1c0,0.3-0.1,0.6-0.2,0.9
		c-0.1,0.3-0.1,0.5-0.2,0.6c-0.1,0.1-0.1,0.2-0.2,0.3s-0.1,0.1-0.3,0.1c-0.2,0-0.4,0-0.5-0.1c-0.2-0.1-0.3-0.2-0.5-0.3
		c-0.1-0.1-0.3-0.3-0.3-0.4s-0.1-0.4-0.1-0.6s0-0.4,0.1-0.6c0-0.2,0.1-0.4,0.1-0.6c0.1-0.7,0.2-1.4,0.3-2c0.1-0.7,0.2-1.3,0.3-2
		c-0.1,0-0.2,0-0.2-0.1c-0.1,0-0.2-0.1-0.3-0.1c-0.1,0-0.2-0.1-0.2-0.2s-0.1-0.1-0.1-0.2c0-0.1,0-0.2,0.1-0.3
		c0.1-0.1,0.2-0.2,0.3-0.2c0.1-0.1,0.2-0.1,0.3-0.2c0.1-0.1,0.2-0.1,0.3-0.1c0.2-1.4,0.4-2.9,0.6-4.3s0.4-2.9,0.5-4.3
		c0-0.4,0.1-0.8,0.1-1.2c0-0.4,0.1-0.8,0.1-1.2s0.1-0.8,0.1-1.2c0.1-0.4,0.1-0.8,0.2-1.2c0.1-0.4,0.2-0.7,0.5-0.9
		c0.2-0.2,0.5-0.3,1-0.3c0.1,0,0.2,0,0.4,0s0.2,0.1,0.3,0.1c0.3,0.1,0.5,0.5,0.8,1.1c0.3,0.6,0.6,1.3,0.9,2.2
		c0.3,0.9,0.6,1.8,0.8,2.8c0.3,1,0.5,1.9,0.7,2.9c0.2,0.9,0.4,1.8,0.6,2.5s0.3,1.3,0.3,1.7c0.2,0,0.4-0.1,0.6-0.1c0.2,0,0.4,0,0.6,0
		c0.1,0,0.2,0,0.4,0c0.1,0,0.3,0,0.4,0.1c0.1,0,0.2,0.1,0.3,0.2S56,30.9,56,31z M51.1,30.9c-0.3-1.5-0.6-2.9-0.9-4.4
		s-0.7-2.9-1.1-4.3c-0.2,1.6-0.4,3.1-0.6,4.6s-0.4,3.1-0.7,4.6c0.6-0.1,1.1-0.2,1.6-0.3C50,31.1,50.6,31,51.1,30.9z"/>
	<path class="st6" d="M60.5,33.3c0,0.2-0.1,0.3-0.2,0.4s-0.3,0.1-0.5,0.1c-0.5,0-0.8-0.1-1.1-0.2s-0.4-0.5-0.4-1v-3.1
		c-0.3,0-0.7,0-1,0c-0.3,0-0.7,0-1,0c-0.1,0-0.2,0-0.4-0.1s-0.2-0.2-0.2-0.3c0-0.3,0.1-0.5,0.3-0.7c0.2-0.2,0.4-0.3,0.7-0.3
		c0.3-0.1,0.6-0.1,0.9-0.1s0.5,0,0.7,0c0-0.2,0-0.5,0-0.9c0-0.4,0-0.7,0-1.1c0-0.4,0-0.7,0-1.1c0-0.3,0-0.6,0.1-0.8
		c0-0.1,0.1-0.2,0.2-0.3s0.2-0.1,0.3-0.1c0.4,0,0.6,0.1,0.8,0.2c0.2,0.2,0.3,0.3,0.4,0.6c0.1,0.2,0.1,0.5,0.1,0.8c0,0.3,0,0.5,0,0.8
		l0,1.8c0.4,0,0.8-0.1,1.2-0.1c0.4,0,0.8,0,1.2,0c0.2,0,0.3,0,0.5,0.1c0.1,0.1,0.2,0.2,0.2,0.4c0,0.1,0,0.3-0.1,0.5
		c-0.1,0.2-0.1,0.3-0.2,0.4c-0.1,0.2-0.3,0.3-0.6,0.3s-0.4,0-0.6,0l-1.5,0c0,0.6,0,1.2,0,1.8c0,0.6,0.1,1.2,0.2,1.8
		c0,0.1,0,0.1,0,0.1C60.5,33.2,60.5,33.3,60.5,33.3z"/>
</g>
</svg>
