<?xml version="1.0" encoding="utf-8"?>
<!-- Generator: Adobe Illustrator 22.1.0, SVG Export Plug-In . SVG Version: 6.00 Build 0)  -->
<svg version="1.1" id="Layer_1" xmlns="http://www.w3.org/2000/svg" xmlns:xlink="http://www.w3.org/1999/xlink" x="0px" y="0px"
	 viewBox="0 0 73.1 69" style="enable-background:new 0 0 73.1 69;" xml:space="preserve">
<style type="text/css">
	.st0{fill:#29ABE2;}
</style>
<g>
	<path class="st0" d="M10.9,61c0,0-0.1,0-0.1,0c-0.1,0-0.1-0.1-0.1-0.1l-2-15c0-0.1,0-0.1,0-0.1c0,0,0.1-0.1,0.1,0l8.5,1.2
		c0.1,0,0.1,0,0.1,0.1c0,0,0,0.1,0,0.2L10.9,61C11,61,10.9,61,10.9,61z M9,46.1l1.9,14.2l6.1-13L9,46.1z"/>
	<path class="st0" d="M58.2,38.7L44.9,49.8c-0.1,0.1-0.1,0.1-0.2,0c-0.1,0-0.1-0.1,0-0.2l10.3-21.4c0-0.1,0.1-0.1,0.2-0.1
		c0.1,0,0.1,0.1,0.1,0.1l3,10.2C58.3,38.6,58.2,38.6,58.2,38.7z M45.3,49.1l12.6-10.6l-2.8-9.7L45.3,49.1z"/>
	<path class="st0" d="M30.4,36.3C30.4,36.4,30.4,36.4,30.4,36.3l-6.8,1.5c-0.1,0-0.1,0-0.2-0.1c0,0-0.1-0.1,0-0.2l1.7-5.6
		c0-0.1,0.1-0.1,0.1-0.1c0.1,0,0.1,0,0.2,0l5,4.1C30.5,36.1,30.5,36.2,30.4,36.3C30.5,36.3,30.5,36.3,30.4,36.3z M23.9,37.4l6.1-1.3
		l-4.5-3.8L23.9,37.4z"/>
	<path class="st0" d="M58.2,38.7c0,0-0.1,0-0.1,0c-0.1,0-0.1,0-0.1-0.1L42.7,17.5c0-0.1,0-0.1,0-0.2c0-0.1,0.1-0.1,0.2-0.1L66.5,25
		c0,0,0.1,0.1,0.1,0.1c0,0,0,0.1,0,0.1L58.2,38.7C58.2,38.6,58.2,38.7,58.2,38.7z M43.3,17.7l14.8,20.5l8.1-13L43.3,17.7z"/>
	<path class="st0" d="M26.5,24.3C26.5,24.3,26.4,24.3,26.5,24.3c-0.2,0-0.2,0-0.2,0l-5.2-6.2c0,0,0-0.1,0-0.1c0-0.1,0-0.1,0.1-0.1
		l12.2-4.9c0.1,0,0.1,0,0.2,0c0,0.1,0.1,0.1,0,0.2L26.5,24.3C26.5,24.3,26.5,24.3,26.5,24.3z M21.5,18l4.9,5.8L33,13.4L21.5,18z"/>
	<path class="st0" d="M45.3,50.3c-0.4,0.3-0.9,0.3-1.2-0.1c-0.3-0.4-0.3-0.9,0.1-1.2c0.4-0.3,0.9-0.3,1.2,0.1
		C45.7,49.5,45.7,50,45.3,50.3"/>
	<path class="st0" d="M58.6,39.2c-0.4,0.3-0.9,0.3-1.2-0.1c-0.3-0.4-0.3-0.9,0.1-1.2c0.4-0.3,0.9-0.3,1.2,0.1
		C59,38.4,59,38.9,58.6,39.2"/>
	<circle class="st0" cx="66.4" cy="25.2" r="0.8"/>
	<circle class="st0" cx="42.7" cy="17.5" r="0.8"/>
	<path class="st0" d="M34,12.5c0.3,0.4,0.3,0.9-0.1,1.2c-0.4,0.3-0.9,0.3-1.2-0.1c-0.3-0.4-0.3-0.9,0.1-1.2
		C33.2,12.1,33.7,12.1,34,12.5z"/>
	<circle class="st0" cx="21.2" cy="18" r="0.8"/>
	<circle class="st0" cx="26.7" cy="23.9" r="0.8"/>
	<path class="st0" d="M26,31.5c0.3,0.4,0.3,0.9-0.1,1.2C25.5,33,25,33,24.7,32.6c-0.3-0.4-0.3-0.9,0.1-1.2
		C25.2,31.1,25.7,31.2,26,31.5z"/>
	<circle class="st0" cx="24" cy="37.3" r="0.8"/>
	<path class="st0" d="M31.4,35.3c0.3,0.4,0.3,0.9-0.1,1.2c-0.4,0.3-0.9,0.3-1.2-0.1c-0.3-0.4-0.3-0.9,0.1-1.2
		C30.6,34.9,31.1,35,31.4,35.3z"/>
	<path class="st0" d="M17.9,46.6c0.3,0.4,0.3,0.9-0.1,1.2c-0.4,0.3-0.9,0.3-1.2-0.1c-0.3-0.4-0.3-0.9,0.1-1.2
		C17.1,46.2,17.6,46.2,17.9,46.6z"/>
	<circle class="st0" cx="10.8" cy="60.9" r="0.8"/>
	<path class="st0" d="M9.5,45.4c0.3,0.4,0.3,0.9-0.1,1.2c-0.4,0.3-0.9,0.3-1.2-0.1c-0.3-0.4-0.3-0.9,0.1-1.2C8.6,45,9.2,45,9.5,45.4
		z"/>
	<g>
		<g>
			<path class="st0" d="M5.9,47.3c0.3,0.3,0.2,0.8-0.1,1.1c-0.3,0.3-0.8,0.2-1.1-0.1c-0.3-0.3-0.2-0.8,0.1-1.1
				C5.2,47,5.7,47,5.9,47.3z"/>
		</g>
	</g>
	<g>
		<g>
			<circle class="st0" cx="26.8" cy="15.8" r="0.8"/>
		</g>
	</g>
	<g>
		<g>
			<circle class="st0" cx="40.8" cy="10.3" r="0.8"/>
		</g>
	</g>
</g>
</svg>
