<?xml version="1.0" encoding="utf-8"?>
<!-- Generator: Adobe Illustrator 22.1.0, SVG Export Plug-In . SVG Version: 6.00 Build 0)  -->
<svg version="1.1" id="Layer_1" xmlns="http://www.w3.org/2000/svg" xmlns:xlink="http://www.w3.org/1999/xlink" x="0px" y="0px"
	 viewBox="0 0 88.5 112.3" style="enable-background:new 0 0 88.5 112.3;" xml:space="preserve">
<style type="text/css">
	.st0{fill:#29ABE2;}
</style>
<g>
	<path class="st0" d="M82.1,89.9c0,0.1,0.1,0.1,0.1,0.2c0,0.1-0.1,0.2-0.2,0.2l-21.2,2.8c-0.1,0-0.1,0-0.2-0.1
		c-0.1-0.1-0.1-0.1-0.1-0.2l1.7-12c0-0.1,0.1-0.1,0.1-0.2c0.1,0,0.1,0,0.2,0L82.1,89.9C82.1,89.8,82.1,89.8,82.1,89.9z M61,92.6
		l20.1-2.7l-18.4-8.7L61,92.6z"/>
	<path class="st0" d="M50.5,23l15.8,18.8c0.1,0.1,0.1,0.2,0,0.3c-0.1,0.1-0.2,0.1-0.3,0.1L35.7,27.6c-0.1,0-0.1-0.1-0.1-0.2
		c0-0.1,0.1-0.2,0.2-0.2l14.5-4.2C50.3,22.9,50.4,22.9,50.5,23z M65.2,41.3l-15-17.9l-13.7,4L65.2,41.3z"/>
	<path class="st0" d="M47.2,62.3c0,0,0,0.1,0.1,0.1l2.1,9.5c0,0.1,0,0.2-0.1,0.2c-0.1,0.1-0.2,0.1-0.2,0.1l-7.9-2.4
		c-0.1,0-0.1-0.1-0.2-0.2c0-0.1,0-0.2,0-0.2l5.8-7.1c0.1-0.1,0.2-0.1,0.2-0.1C47.1,62.2,47.2,62.2,47.2,62.3z M48.7,71.5l-1.9-8.6
		l-5.3,6.4L48.7,71.5z"/>
	<path class="st0" d="M50.5,23c0,0,0.1,0.1,0.1,0.1c0,0.1,0,0.2-0.1,0.2L20.5,44.9c-0.1,0.1-0.2,0.1-0.3,0c-0.1-0.1-0.1-0.2-0.1-0.3
		l11-33.3c0-0.1,0.1-0.1,0.1-0.1c0.1,0,0.1,0,0.2,0L50.5,23C50.5,23,50.5,23,50.5,23z M20.8,44.1l29-20.9L31.5,11.8L20.8,44.1z"/>
	<path class="st0" d="M30.2,67.8c0,0,0.1,0.1,0.1,0.1c0,0.1,0,0.1-0.1,0.2l-8.8,7.3c-0.1,0-0.1,0.1-0.2,0c-0.1,0-0.1-0.1-0.2-0.1
		l-7-17.2c0-0.1,0-0.2,0.1-0.3c0.1-0.1,0.2-0.1,0.3,0L30.2,67.8C30.1,67.8,30.1,67.8,30.2,67.8z M21.3,74.9l8.3-6.9l-14.8-9.3
		L21.3,74.9z"/>
	<path class="st0" d="M67,41.2c0.4,0.5,0.4,1.3-0.1,1.7c-0.5,0.4-1.3,0.4-1.7-0.1c-0.4-0.5-0.4-1.3,0.1-1.7
		C65.8,40.7,66.6,40.7,67,41.2"/>
	<path class="st0" d="M51.2,22.4c0.4,0.5,0.4,1.3-0.1,1.7c-0.5,0.4-1.3,0.4-1.7-0.1c-0.4-0.5-0.4-1.3,0.1-1.7
		C50,21.8,50.8,21.9,51.2,22.4"/>
	<circle class="st0" cx="31.4" cy="11.4" r="1.2"/>
	<circle class="st0" cx="20.6" cy="44.9" r="1.2"/>
	<path class="st0" d="M13.5,57.2c0.5-0.4,1.3-0.4,1.7,0.1c0.4,0.5,0.4,1.3-0.1,1.7c-0.5,0.4-1.3,0.4-1.7-0.1
		C12.9,58.4,13,57.6,13.5,57.2z"/>
	<circle class="st0" cx="21.2" cy="75.3" r="1.2"/>
	<circle class="st0" cx="29.6" cy="67.6" r="1.2"/>
	<path class="st0" d="M40.4,68.6c0.5-0.4,1.3-0.4,1.7,0.1c0.4,0.5,0.4,1.3-0.1,1.7c-0.5,0.4-1.3,0.4-1.7-0.1
		C39.8,69.7,39.9,69,40.4,68.6z"/>
	<circle class="st0" cx="48.6" cy="71.3" r="1.2"/>
	<path class="st0" d="M45.8,60.9c0.5-0.4,1.3-0.4,1.7,0.1s0.4,1.3-0.1,1.7c-0.5,0.4-1.3,0.4-1.7-0.1S45.3,61.3,45.8,60.9z"/>
	<path class="st0" d="M61.7,79.9c0.5-0.4,1.3-0.4,1.7,0.1c0.4,0.5,0.4,1.3-0.1,1.7c-0.5,0.4-1.3,0.4-1.7-0.1
		C61.1,81.1,61.2,80.4,61.7,79.9z"/>
	<circle class="st0" cx="81.9" cy="90" r="1.2"/>
	<path class="st0" d="M60,91.9c0.5-0.4,1.3-0.4,1.7,0.1c0.4,0.5,0.4,1.3-0.1,1.7c-0.5,0.4-1.3,0.4-1.7-0.1
		C59.4,93.1,59.5,92.4,60,91.9z"/>
	<g>
		<g>
			<path class="st0" d="M62.7,96.9c0.5-0.4,1.1-0.3,1.5,0.1c0.4,0.5,0.3,1.1-0.1,1.5c-0.5,0.4-1.1,0.3-1.5-0.1
				C62.2,98,62.3,97.3,62.7,96.9z"/>
		</g>
	</g>
	<g>
		<g>
			<circle class="st0" cx="18.1" cy="67.4" r="1.1"/>
		</g>
	</g>
	<g>
		<g>
			<circle class="st0" cx="10.3" cy="47.6" r="1.1"/>
		</g>
	</g>
</g>
</svg>
