<?xml version="1.0" encoding="utf-8"?>
<!-- Generator: Adobe Illustrator 22.1.0, SVG Export Plug-In . SVG Version: 6.00 Build 0)  -->
<svg version="1.1" id="Layer_1" xmlns="http://www.w3.org/2000/svg" xmlns:xlink="http://www.w3.org/1999/xlink" x="0px" y="0px"
	 viewBox="0 0 125 75" style="enable-background:new 0 0 125 75;" xml:space="preserve">
<style type="text/css">
	.st0{display:none;fill-rule:evenodd;clip-rule:evenodd;fill:#1E86D5;}
	.st1{display:none;fill-rule:evenodd;clip-rule:evenodd;fill:#404D61;}
	.st2{fill-rule:evenodd;clip-rule:evenodd;fill:#404D61;}
	.st3{fill-rule:evenodd;clip-rule:evenodd;fill:#F4F6F8;}
	.st4{fill-rule:evenodd;clip-rule:evenodd;fill:none;stroke:#404D61;stroke-width:0.7391;stroke-miterlimit:10;}
	.st5{fill-rule:evenodd;clip-rule:evenodd;fill:#3386F7;}
	.st6{fill-rule:evenodd;clip-rule:evenodd;fill:#1E86D5;}
	.st7{fill-rule:evenodd;clip-rule:evenodd;fill:#B8C7D6;}
</style>
<rect x="32.1" y="58.2" class="st0" width="8.7" height="21.3"/>
<rect x="49" y="43.6" class="st0" width="8.7" height="35.9"/>
<rect x="65.9" y="49.3" class="st0" width="8.7" height="30.1"/>
<rect x="82.8" y="30.2" class="st0" width="8.7" height="49.3"/>
<path class="st1" d="M30.8,79.1h9.6v-22h-9.6V79.1L30.8,79.1z M40.7,79.8H30.4h0c-0.2,0-0.4-0.2-0.4-0.4V56.7v0
	c0-0.2,0.2-0.4,0.4-0.4h10.3h0c0.2,0,0.4,0.2,0.4,0.4v22.7v0C41.1,79.7,40.9,79.8,40.7,79.8z"/>
<path class="st1" d="M47.7,79.1h9.6V42.5h-9.6V79.1L47.7,79.1z M57.7,79.8H47.3h0c-0.2,0-0.4-0.2-0.4-0.4V42.1v0
	c0-0.2,0.2-0.4,0.4-0.4h10.3h0c0.2,0,0.4,0.2,0.4,0.4v37.4v0C58,79.7,57.9,79.8,57.7,79.8z"/>
<path class="st1" d="M64.6,79.1h9.6V48.2h-9.6V79.1L64.6,79.1z M74.6,79.8H64.3h0c-0.2,0-0.4-0.2-0.4-0.4V47.9v0
	c0-0.2,0.2-0.4,0.4-0.4h10.3h0c0.2,0,0.4,0.2,0.4,0.4v31.6v0C74.9,79.7,74.8,79.8,74.6,79.8z"/>
<path class="st1" d="M81.5,79.1h9.6V29h-9.6V79.1L81.5,79.1z M91.5,79.8H81.2h0c-0.2,0-0.4-0.2-0.4-0.4V28.7v0
	c0-0.2,0.2-0.4,0.4-0.4h10.3h0c0.2,0,0.4,0.2,0.4,0.4v50.8v0C91.8,79.7,91.7,79.8,91.5,79.8z"/>
<path class="st1" d="M47.3,52.6L47.3,52.6h10.3c0.2,0,0.4,0.2,0.4,0.4v0v9.4c0,0.2-0.2,0.4-0.4,0.4h0H47.3c-0.2,0-0.4-0.2-0.4-0.4v0
	v-9.4C47,52.7,47.1,52.6,47.3,52.6L47.3,52.6z M57.3,53.3h-9.6V62h9.6V53.3z"/>
<path class="st1" d="M64.2,56.4L64.2,56.4h10.3c0.2,0,0.4,0.2,0.4,0.4v0v4.7c0,0.2-0.2,0.4-0.4,0.4h0H64.2c-0.2,0-0.4-0.2-0.4-0.4v0
	v-4.7C63.9,56.6,64,56.4,64.2,56.4L64.2,56.4z M74.2,57.1h-9.6v4h9.6V57.1z"/>
<path class="st1" d="M81.2,34.9L81.2,34.9h10.3c0.2,0,0.4,0.2,0.4,0.4v0v8.1c0,0.2-0.2,0.4-0.4,0.4h0H81.2c-0.2,0-0.4-0.2-0.4-0.4v0
	v-8.1C80.8,35,81,34.9,81.2,34.9L81.2,34.9z M91.1,35.6h-9.6V43h9.6V35.6z"/>
<path class="st1" d="M81.2,49.6L81.2,49.6h10.3c0.2,0,0.4,0.2,0.4,0.4v0v8.1c0,0.2-0.2,0.4-0.4,0.4h0H81.2c-0.2,0-0.4-0.2-0.4-0.4v0
	V50C80.8,49.8,81,49.6,81.2,49.6L81.2,49.6z M91.1,50.4h-9.6v7.4h9.6V50.4z"/>
<g>
	<path class="st2" d="M67.3,40.2l14.5-20.8c0.1-0.1,0.3-0.2,0.4-0.1l1,0.7c0.1,0.1,0.2,0.3,0.1,0.4L67.9,42.5
		c-0.1,0.1-0.3,0.2-0.4,0.1l-14.4-9.9L38.8,53.4c-0.1,0.1-0.3,0.2-0.4,0.1l-1-0.7c-0.1-0.1-0.2-0.3-0.1-0.4l15.3-22
		c0.1-0.1,0.3-0.2,0.4-0.1L67.3,40.2L67.3,40.2z M82.1,19.9L67.6,40.8c-0.1,0.1-0.3,0.2-0.4,0.1l-14.4-9.9L37.9,52.4l0.5,0.4
		L52.8,32c0.1-0.1,0.3-0.2,0.4-0.1l14.4,9.9l15-21.6L82.1,19.9z"/>
	<circle class="st3" cx="38.2" cy="52.4" r="2.3"/>
	<path class="st2" d="M38.2,49.7c0.7,0,1.4,0.3,1.9,0.8l0,0l0,0l0,0c0.5,0.5,0.8,1.1,0.8,1.9c0,0.7-0.3,1.4-0.8,1.9l0,0l0,0l0,0
		C39.6,54.7,39,55,38.2,55c-0.7,0-1.4-0.3-1.9-0.8l0,0l0,0l0,0c-0.5-0.5-0.8-1.1-0.8-1.9c0-0.7,0.3-1.4,0.8-1.9l0,0l0,0l0,0
		C36.9,50,37.5,49.7,38.2,49.7L38.2,49.7z M39.7,50.9c-0.4-0.4-0.9-0.6-1.4-0.6c-0.6,0-1.1,0.2-1.4,0.6l0,0
		c-0.4,0.4-0.6,0.9-0.6,1.4c0,0.6,0.2,1.1,0.6,1.4l0,0c0.4,0.4,0.9,0.6,1.4,0.6c0.6,0,1.1-0.2,1.4-0.6l0,0c0.4-0.4,0.6-0.9,0.6-1.4
		C40.3,51.8,40,51.3,39.7,50.9L39.7,50.9z"/>
	<circle class="st3" cx="52.9" cy="31.3" r="2.3"/>
	<path class="st2" d="M52.9,28.7c0.7,0,1.4,0.3,1.9,0.8l0,0l0,0l0,0c0.5,0.5,0.8,1.1,0.8,1.9c0,0.7-0.3,1.4-0.8,1.9l0,0l0,0l0,0
		c-0.5,0.5-1.1,0.8-1.9,0.8c-0.7,0-1.4-0.3-1.9-0.8l0,0l0,0l0,0c-0.5-0.5-0.8-1.1-0.8-1.9c0-0.7,0.3-1.4,0.8-1.9l0,0l0,0l0,0
		C51.5,29,52.2,28.7,52.9,28.7L52.9,28.7z M54.3,29.9c-0.4-0.4-0.9-0.6-1.4-0.6c-0.6,0-1.1,0.2-1.4,0.6l0,0
		c-0.4,0.4-0.6,0.9-0.6,1.4c0,0.6,0.2,1.1,0.6,1.4l0,0c0.4,0.4,0.9,0.6,1.4,0.6c0.6,0,1.1-0.2,1.4-0.6l0,0c0.4-0.4,0.6-0.9,0.6-1.4
		C54.9,30.8,54.7,30.3,54.3,29.9L54.3,29.9z"/>
	<circle class="st3" cx="67.5" cy="41.5" r="2.3"/>
	<path class="st2" d="M67.5,38.8c0.7,0,1.4,0.3,1.9,0.8l0,0l0,0l0,0c0.5,0.5,0.8,1.1,0.8,1.9c0,0.7-0.3,1.4-0.8,1.9l0,0l0,0l0,0
		c-0.5,0.5-1.1,0.8-1.9,0.8c-0.7,0-1.4-0.3-1.9-0.8l0,0l0,0l0,0c-0.5-0.5-0.8-1.1-0.8-1.9c0-0.7,0.3-1.4,0.8-1.9l0,0l0,0l0,0
		C66.1,39.1,66.8,38.8,67.5,38.8L67.5,38.8z M68.9,40c-0.4-0.4-0.9-0.6-1.4-0.6c-0.6,0-1.1,0.2-1.4,0.6l0,0
		c-0.4,0.4-0.6,0.9-0.6,1.4c0,0.6,0.2,1.1,0.6,1.4l0,0c0.4,0.4,0.9,0.6,1.4,0.6c0.6,0,1.1-0.2,1.4-0.6l0,0c0.4-0.4,0.6-0.9,0.6-1.4
		C69.5,40.9,69.3,40.4,68.9,40L68.9,40z"/>
	<circle class="st3" cx="82.1" cy="20.4" r="2.3"/>
	<path class="st4" d="M82.1,17.7c0.7,0,1.4,0.3,1.9,0.8l0,0l0,0l0,0c0.5,0.5,0.8,1.1,0.8,1.9c0,0.7-0.3,1.4-0.8,1.9l0,0l0,0l0,0
		c-0.5,0.5-1.1,0.8-1.9,0.8c-0.7,0-1.4-0.3-1.9-0.8l0,0l0,0l0,0c-0.5-0.5-0.8-1.1-0.8-1.9c0-0.7,0.3-1.4,0.8-1.9l0,0l0,0l0,0
		C80.8,18,81.4,17.7,82.1,17.7L82.1,17.7z M83.6,18.9c-0.4-0.4-0.9-0.6-1.4-0.6c-0.6,0-1.1,0.2-1.4,0.6l0,0
		c-0.4,0.4-0.6,0.9-0.6,1.4c0,0.6,0.2,1.1,0.6,1.4l0,0c0.4,0.4,0.9,0.6,1.4,0.6c0.6,0,1.1-0.2,1.4-0.6l0,0c0.4-0.4,0.6-0.9,0.6-1.4
		C84.2,19.8,83.9,19.3,83.6,18.9L83.6,18.9z"/>
	<path class="st3" d="M88.2,4.3h-12c-0.5,0-0.9,0.4-0.9,0.9v7.7c0,0.5,0.4,0.9,0.9,0.9h3.8l2.2,6.5l2.2-6.5h3.8
		c0.5,0,0.9-0.4,0.9-0.9V5.2C89.1,4.7,88.7,4.3,88.2,4.3z"/>
	<path class="st2" d="M88.2,4.6h-12c-0.2,0-0.3,0.1-0.4,0.2l0,0c-0.1,0.1-0.2,0.3-0.2,0.4v7.7c0,0.2,0.1,0.3,0.2,0.4l0,0
		c0.1,0.1,0.3,0.2,0.4,0.2h3.8c0.1,0,0.3,0.1,0.3,0.2l2,5.7l2-5.7c0-0.1,0.2-0.2,0.3-0.2h0h3.8c0.2,0,0.3-0.1,0.4-0.2l0,0
		c0.1-0.1,0.2-0.3,0.2-0.4V5.2c0-0.2-0.1-0.3-0.2-0.4C88.5,4.7,88.3,4.6,88.2,4.6L88.2,4.6z M76.1,4h12c0.3,0,0.6,0.1,0.9,0.4
		c0.2,0.2,0.4,0.5,0.4,0.9v7.7c0,0.3-0.1,0.6-0.3,0.9l0,0c-0.2,0.2-0.5,0.4-0.9,0.4h-3.5l-2.2,6.3c0,0.1-0.1,0.2-0.2,0.2
		c-0.2,0.1-0.3,0-0.4-0.2l-2.2-6.3h-3.5c-0.3,0-0.6-0.1-0.9-0.4l0,0l0,0c-0.2-0.2-0.4-0.5-0.4-0.9V5.2c0-0.3,0.1-0.6,0.3-0.9l0,0
		C75.5,4.1,75.8,4,76.1,4z"/>
	<polygon class="st5" points="83.9,11.8 85.8,6.5 87.6,11.8 	"/>
	<polygon class="st6" points="80.3,11.8 82.1,8.9 83.9,11.8 	"/>
	<polygon class="st6" points="76.7,11.8 78.5,8 80.4,11.8 	"/>
</g>
<path class="st7" d="M2.9,38.9c-0.2,0-0.4-0.2-0.4-0.4s0.2-0.4,0.4-0.4c0.4,0,0.9-0.4,1.4-0.8c0.6-0.5,1.2-1,1.8-1
	c0.7,0,1.3,0.5,1.8,1c0.5,0.4,1,0.8,1.4,0.8c0.4,0,0.9-0.4,1.4-0.8l0,0c0.6-0.5,1.2-1,1.8-1c0.7,0,1.3,0.5,1.8,1
	c0.5,0.4,1,0.8,1.4,0.8c0.4,0,0.9-0.4,1.4-0.8c0.6-0.5,1.2-1,1.8-1c0.2,0,0.4,0.2,0.4,0.4s-0.2,0.4-0.4,0.4c-0.4,0-0.9,0.4-1.4,0.8
	c-0.6,0.5-1.2,1-1.8,1c-0.7,0-1.3-0.5-1.8-1c-0.5-0.4-1-0.8-1.4-0.8c-0.4,0-0.9,0.4-1.4,0.8l0,0c-0.6,0.5-1.2,1-1.8,1
	c-0.7,0-1.3-0.5-1.8-1c-0.5-0.4-1-0.8-1.4-0.8c-0.4,0-0.9,0.4-1.4,0.8C4.2,38.4,3.6,38.9,2.9,38.9z"/>
<path class="st7" d="M104.9,38.9c-0.2,0-0.4-0.2-0.4-0.4s0.2-0.4,0.4-0.4c0.4,0,0.9-0.4,1.4-0.8c0.6-0.5,1.2-1,1.8-1
	c0.7,0,1.3,0.5,1.8,1c0.5,0.4,1,0.8,1.4,0.8c0.4,0,0.9-0.4,1.4-0.8l0,0c0.6-0.5,1.2-1,1.8-1c0.7,0,1.3,0.5,1.8,1
	c0.5,0.4,1,0.8,1.4,0.8c0.4,0,0.9-0.4,1.4-0.8c0.6-0.5,1.2-1,1.8-1c0.2,0,0.4,0.2,0.4,0.4s-0.2,0.4-0.4,0.4c-0.4,0-0.9,0.4-1.4,0.8
	c-0.6,0.5-1.2,1-1.8,1c-0.7,0-1.3-0.5-1.8-1c-0.5-0.4-1-0.8-1.4-0.8c-0.4,0-0.9,0.4-1.4,0.8l0,0c-0.6,0.5-1.2,1-1.8,1
	c-0.7,0-1.3-0.5-1.8-1c-0.5-0.4-1-0.8-1.4-0.8c-0.4,0-0.9,0.4-1.4,0.8C106.2,38.4,105.6,38.9,104.9,38.9z"/>
<rect x="38.1" y="58.4" class="st5" width="6.7" height="16.4"/>
<rect x="51.1" y="47.1" class="st6" width="6.7" height="27.6"/>
<rect x="64.1" y="51.5" class="st5" width="6.7" height="23.2"/>
<rect x="77.1" y="36.8" class="st6" width="6.7" height="37.9"/>
<path class="st2" d="M37.1,74.4h7.4V57.5h-7.4V74.4L37.1,74.4z M44.7,75h-7.9h0c-0.2,0-0.3-0.1-0.3-0.3V57.2v0
	c0-0.2,0.1-0.3,0.3-0.3h7.9h0c0.2,0,0.3,0.1,0.3,0.3v17.5v0C45,74.9,44.9,75,44.7,75z"/>
<path class="st2" d="M50.1,74.4h7.4V46.3h-7.4V74.4L50.1,74.4z M57.7,75h-7.9h0c-0.2,0-0.3-0.1-0.3-0.3V46v0c0-0.2,0.1-0.3,0.3-0.3
	h7.9h0c0.2,0,0.3,0.1,0.3,0.3v28.7v0C58,74.9,57.9,75,57.7,75z"/>
<path class="st2" d="M63.1,74.4h7.4V50.7h-7.4V74.4L63.1,74.4z M70.8,75h-7.9h0c-0.2,0-0.3-0.1-0.3-0.3V50.4v0
	c0-0.2,0.1-0.3,0.3-0.3h7.9h0c0.2,0,0.3,0.1,0.3,0.3v24.3v0C71,74.9,70.9,75,70.8,75z"/>
<path class="st2" d="M76.1,74.4h7.4V35.9h-7.4V74.4L76.1,74.4z M83.8,75h-7.9h0c-0.2,0-0.3-0.1-0.3-0.3V35.7v0
	c0-0.2,0.1-0.3,0.3-0.3h7.9h0c0.2,0,0.3,0.1,0.3,0.3v39.1v0C84,74.9,83.9,75,83.8,75z"/>
<path class="st2" d="M49.8,54L49.8,54h7.9c0.2,0,0.3,0.1,0.3,0.3v0v7.3c0,0.2-0.1,0.3-0.3,0.3h0h-7.9c-0.2,0-0.3-0.1-0.3-0.3v0v-7.3
	C49.5,54.2,49.6,54,49.8,54L49.8,54z M57.5,54.6h-7.4v6.7h7.4V54.6z"/>
<path class="st2" d="M62.8,65.3L62.8,65.3h7.9c0.2,0,0.3,0.1,0.3,0.3v0v3.6c0,0.2-0.1,0.3-0.3,0.3h0h-7.9c-0.2,0-0.3-0.1-0.3-0.3v0
	v-3.6C62.5,65.4,62.7,65.3,62.8,65.3L62.8,65.3z M70.5,65.8h-7.4v3.1h7.4V65.8z"/>
<path class="st2" d="M62.8,57L62.8,57h7.9c0.2,0,0.3,0.1,0.3,0.3v0v3.6c0,0.2-0.1,0.3-0.3,0.3h0h-7.9c-0.2,0-0.3-0.1-0.3-0.3v0v-3.6
	C62.5,57.1,62.7,57,62.8,57L62.8,57z M70.5,57.6h-7.4v3.1h7.4V57.6z"/>
<path class="st2" d="M75.8,40.4L75.8,40.4h7.9c0.2,0,0.3,0.1,0.3,0.3v0V47c0,0.2-0.1,0.3-0.3,0.3h0h-7.9c-0.2,0-0.3-0.1-0.3-0.3v0
	v-6.2C75.5,40.6,75.7,40.4,75.8,40.4L75.8,40.4z M83.5,41h-7.4v5.7h7.4V41z"/>
<path class="st2" d="M75.8,51.8L75.8,51.8h7.9c0.2,0,0.3,0.1,0.3,0.3v0v6.2c0,0.2-0.1,0.3-0.3,0.3h0h-7.9c-0.2,0-0.3-0.1-0.3-0.3v0
	v-6.2C75.5,51.9,75.7,51.8,75.8,51.8L75.8,51.8z M83.5,52.3h-7.4V58h7.4V52.3z"/>
<path class="st2" d="M36.8,65.4L36.8,65.4h7.9c0.2,0,0.3,0.1,0.3,0.3v0v3.6c0,0.2-0.1,0.3-0.3,0.3h0h-7.9c-0.2,0-0.3-0.1-0.3-0.3v0
	v-3.6C36.5,65.5,36.6,65.4,36.8,65.4L36.8,65.4z M44.5,66h-7.4V69h7.4V66z"/>
</svg>
