<?xml version="1.0" encoding="utf-8"?>
<!-- Generator: Adobe Illustrator 22.1.0, SVG Export Plug-In . SVG Version: 6.00 Build 0)  -->
<svg version="1.1" id="Layer_1" xmlns="http://www.w3.org/2000/svg" xmlns:xlink="http://www.w3.org/1999/xlink" x="0px" y="0px"
	 viewBox="0 0 222.3 106" style="enable-background:new 0 0 222.3 106;" xml:space="preserve">
<style type="text/css">
	.st0{fill-rule:evenodd;clip-rule:evenodd;fill:#EAECF0;}
	.st1{fill-rule:evenodd;clip-rule:evenodd;fill:#F4F6F8;}
	.st2{fill-rule:evenodd;clip-rule:evenodd;fill:#404D61;}
	.st3{fill-rule:evenodd;clip-rule:evenodd;fill:#1E86D5;}
	.st4{fill-rule:evenodd;clip-rule:evenodd;fill:#B8C6D7;}
	.st5{fill-rule:evenodd;clip-rule:evenodd;fill:#3386F7;}
	.st6{fill-rule:evenodd;clip-rule:evenodd;fill:#FFFFFF;}
	.st7{fill-rule:evenodd;clip-rule:evenodd;fill:#D7E7FC;}
	.st8{fill-rule:evenodd;clip-rule:evenodd;fill:#8A8C8E;}
	.st9{fill-rule:evenodd;clip-rule:evenodd;fill:#EBEDF0;}
</style>
<path class="st0" d="M198.2,92.3l10.6-10.6l-10.6-10.6V92.3L198.2,92.3z M188.3,89.3l7.6-7.6l-7.6-7.6V89.3z"/>
<path class="st0" d="M210.5,95.8l-6.4-6.4l6.4-6.4V95.8L210.5,95.8z M219,94l-4.6-4.6l4.6-4.6V94z"/>
<polygon class="st1" points="112.6,11.6 112.6,37.1 90,37.1 90,11.6 95.1,11.6 95.1,10.1 96.9,10.1 96.9,8.4 105.7,8.4 105.7,10.1 
	107.5,10.1 107.5,11.6 "/>
<rect x="99.9" y="20" class="st2" width="8.2" height="0.7"/>
<path class="st3" d="M94.4,18.9c-0.1-0.2,0-0.4,0.1-0.5c0.2-0.1,0.4,0,0.5,0.1l1,1.6l1.5-3.3c0.1-0.2,0.3-0.3,0.5-0.2
	c0.2,0.1,0.3,0.3,0.2,0.5l-1.8,3.9c0,0.1-0.1,0.1-0.1,0.2c-0.2,0.1-0.4,0-0.5-0.1L94.4,18.9z"/>
<rect x="99.9" y="26.1" class="st2" width="8.2" height="0.7"/>
<path class="st3" d="M94.4,25c-0.1-0.2,0-0.4,0.1-0.5c0.2-0.1,0.4,0,0.5,0.1l1,1.6l1.5-3.3c0.1-0.2,0.3-0.3,0.5-0.2
	c0.2,0.1,0.3,0.3,0.2,0.5l-1.8,3.9c0,0.1-0.1,0.1-0.1,0.2c-0.2,0.1-0.4,0-0.5-0.1L94.4,25z"/>
<rect x="99.9" y="32.3" class="st2" width="8.2" height="0.7"/>
<path class="st3" d="M94.4,31.2c-0.1-0.2,0-0.4,0.1-0.5c0.2-0.1,0.4,0,0.5,0.1l1,1.6l1.5-3.3c0.1-0.2,0.3-0.3,0.5-0.2
	c0.2,0.1,0.3,0.3,0.2,0.5l-1.8,3.9c0,0.1-0.1,0.1-0.1,0.2c-0.2,0.1-0.4,0-0.5-0.1L94.4,31.2z"/>
<path class="st2" d="M107.5,12c-0.2,0-0.4-0.2-0.4-0.4s0.2-0.4,0.4-0.4h5.1c0.2,0,0.4,0.2,0.4,0.4v0v25.4c0,0.2-0.2,0.4-0.4,0.4h0
	H90c-0.2,0-0.4-0.2-0.4-0.4v0V11.6c0-0.2,0.2-0.4,0.4-0.4h0h5.1c0.2,0,0.4,0.2,0.4,0.4S95.3,12,95.1,12h-4.8v24.7h21.9V12H107.5z"/>
<polygon class="st4" points="96.9,8.4 105.7,8.4 105.7,10.1 107.5,10.1 107.5,14.9 95.1,14.9 95.1,10.1 96.9,10.1 "/>
<path class="st2" d="M96.9,8L96.9,8h8.9c0.2,0,0.4,0.2,0.4,0.4v0v1.4h1.4c0.2,0,0.4,0.2,0.4,0.4v0v4.7c0,0.2-0.2,0.4-0.4,0.4h0H95.1
	c-0.2,0-0.4-0.2-0.4-0.4v0v-4.7c0-0.2,0.2-0.4,0.4-0.4h0h1.4V8.4C96.5,8.2,96.7,8,96.9,8L96.9,8z M105.4,8.8h-8.1v1.4v0
	c0,0.2-0.2,0.4-0.4,0.4h-1.4v4h11.7v-4h-1.4h0c-0.2,0-0.4-0.2-0.4-0.4V8.8z"/>
<path class="st2" d="M99,10.5c-0.2,0-0.4-0.2-0.4-0.4c0-0.2,0.2-0.4,0.4-0.4h4.7c0.2,0,0.4,0.2,0.4,0.4c0,0.2-0.2,0.4-0.4,0.4H99z"
	/>
<rect x="78" y="76.7" class="st5" width="8.7" height="21.3"/>
<rect x="94.9" y="62.1" class="st5" width="8.7" height="35.9"/>
<rect x="111.8" y="67.8" class="st5" width="8.7" height="30.1"/>
<rect x="128.7" y="48.7" class="st5" width="8.7" height="49.3"/>
<path class="st2" d="M66.7,98.3c-0.2,0-0.4-0.2-0.4-0.4s0.2-0.4,0.4-0.4h78.9c0.2,0,0.4,0.2,0.4,0.4s-0.2,0.4-0.4,0.4H66.7z"/>
<g>
	<path class="st2" d="M71.1,30.4c0-0.2,0.2-0.4,0.4-0.4s0.4,0.2,0.4,0.4v7c0,0,0,0.1,0,0.1c-1,4.1-1,8.2,0,12.4c0,0,0,0.1,0,0.1h0
		v53c0,0.2-0.2,0.4-0.4,0.4s-0.4-0.2-0.4-0.4V50c-1-4.2-1-8.4,0-12.6V30.4L71.1,30.4z M71.8,37.5l-0.3,0.2
		C71.6,37.7,71.7,37.6,71.8,37.5z"/>
</g>
<path class="st2" d="M76.7,97.6h9.6v-22h-9.6V97.6L76.7,97.6z M86.6,98.3H76.3h0c-0.2,0-0.4-0.2-0.4-0.4V75.2v0
	c0-0.2,0.2-0.4,0.4-0.4h10.3h0c0.2,0,0.4,0.2,0.4,0.4V98v0C87,98.2,86.8,98.3,86.6,98.3z"/>
<path class="st2" d="M93.6,97.6h9.6V61h-9.6V97.6L93.6,97.6z M103.6,98.3H93.2h0c-0.2,0-0.4-0.2-0.4-0.4V60.6v0
	c0-0.2,0.2-0.4,0.4-0.4h10.3h0c0.2,0,0.4,0.2,0.4,0.4V98v0C103.9,98.2,103.8,98.3,103.6,98.3z"/>
<path class="st2" d="M110.5,97.6h9.6V66.7h-9.6V97.6L110.5,97.6z M120.5,98.3h-10.3h0c-0.2,0-0.4-0.2-0.4-0.4V66.4v0
	c0-0.2,0.2-0.4,0.4-0.4h10.3h0c0.2,0,0.4,0.2,0.4,0.4V98v0C120.8,98.2,120.7,98.3,120.5,98.3z"/>
<path class="st2" d="M127.4,97.6h9.6V47.5h-9.6V97.6L127.4,97.6z M137.4,98.3h-10.3h0c-0.2,0-0.4-0.2-0.4-0.4V47.2v0
	c0-0.2,0.2-0.4,0.4-0.4h10.3h0c0.2,0,0.4,0.2,0.4,0.4V98v0C137.8,98.2,137.6,98.3,137.4,98.3z"/>
<path class="st2" d="M93.2,71.1L93.2,71.1h10.3c0.2,0,0.4,0.2,0.4,0.4v0v9.4c0,0.2-0.2,0.4-0.4,0.4h0H93.2c-0.2,0-0.4-0.2-0.4-0.4v0
	v-9.4C92.9,71.2,93,71.1,93.2,71.1L93.2,71.1z M103.2,71.8h-9.6v8.7h9.6V71.8z"/>
<path class="st2" d="M110.2,85.7L110.2,85.7h10.3c0.2,0,0.4,0.2,0.4,0.4v0v4.7c0,0.2-0.2,0.4-0.4,0.4h0h-10.3
	c-0.2,0-0.4-0.2-0.4-0.4v0V86C109.8,85.8,110,85.7,110.2,85.7L110.2,85.7z M120.1,86.4h-9.6v4h9.6V86.4z"/>
<path class="st2" d="M110.2,74.9L110.2,74.9h10.3c0.2,0,0.4,0.2,0.4,0.4v0V80c0,0.2-0.2,0.4-0.4,0.4h0h-10.3c-0.2,0-0.4-0.2-0.4-0.4
	v0v-4.7C109.8,75.1,110,74.9,110.2,74.9L110.2,74.9z M120.1,75.6h-9.6v4h9.6V75.6z"/>
<path class="st2" d="M127.1,53.4L127.1,53.4h10.3c0.2,0,0.4,0.2,0.4,0.4v0v8.1c0,0.2-0.2,0.4-0.4,0.4h0h-10.3
	c-0.2,0-0.4-0.2-0.4-0.4v0v-8.1C126.7,53.5,126.9,53.4,127.1,53.4L127.1,53.4z M137,54.1h-9.6v7.4h9.6V54.1z"/>
<path class="st2" d="M127.1,68.1L127.1,68.1h10.3c0.2,0,0.4,0.2,0.4,0.4v0v8.1c0,0.2-0.2,0.4-0.4,0.4h0h-10.3
	c-0.2,0-0.4-0.2-0.4-0.4v0v-8.1C126.7,68.3,126.9,68.1,127.1,68.1L127.1,68.1z M137,68.9h-9.6v7.4h9.6V68.9z"/>
<path class="st2" d="M76.3,85.8L76.3,85.8h10.3c0.2,0,0.4,0.2,0.4,0.4v0v4.7c0,0.2-0.2,0.4-0.4,0.4h0H76.3c-0.2,0-0.4-0.2-0.4-0.4v0
	v-4.7C76,86,76.1,85.8,76.3,85.8L76.3,85.8z M86.3,86.6h-9.6v4h9.6V86.6z"/>
<path class="st2" d="M0.4,98.3C0.2,98.3,0,98.2,0,98s0.2-0.4,0.4-0.4h61.7c0.2,0,0.4,0.2,0.4,0.4s-0.2,0.4-0.4,0.4H0.4L0.4,98.3z
	 M149.5,98.3c-0.2,0-0.4-0.2-0.4-0.4s0.2-0.4,0.4-0.4h72.4c0.2,0,0.4,0.2,0.4,0.4s-0.2,0.4-0.4,0.4H149.5z"/>
<rect x="39.6" y="62.8" class="st4" width="18" height="4.7"/>
<g>
	<path class="st2" d="M65,55.2c0.2,0,0.3,0.2,0.3,0.4c0,0.2-0.2,0.3-0.4,0.3l-1.1-0.2l0,0v0c-0.3,0-0.5-0.1-0.6-0.1
		c-0.4,0-0.7,0-1,0c-0.2,0-0.4,0.1-0.5,0.2c-0.5,0.4-1,0.7-1.4,1c-0.8,0.5-1.4,0.9-2.4,1.8c-0.1,0.1-0.4,0.1-0.5,0
		c-0.1-0.1-0.1-0.4,0-0.5c1-1,1.7-1.4,2.5-1.9c0.4-0.3,0.9-0.5,1.4-0.9c0.2-0.2,0.5-0.2,0.9-0.3c0.3,0,0.7,0,1.1,0v0c0,0,0,0,0.1,0
		c0,0,0.2,0,0.6,0.1v0L65,55.2L65,55.2z M57.5,67.3c0.3,0.1,0.6,0.2,0.8,0.3c0.3,0.1,0.6,0.1,0.8,0.2h0l8.1,0c0.6,0,1.1-0.2,1.5-0.5
		l0,0l0,0c0.2-0.2,0.3-0.3,0.4-0.6l0,0c0.1-0.2,0.2-0.4,0.2-0.7c0-0.3-0.1-0.7-0.2-1c0.1-0.1,0.2-0.2,0.3-0.4l0,0
		c0.1-0.2,0.2-0.4,0.2-0.7c0-0.2,0-0.5,0-0.8c-0.1-0.2-0.2-0.4-0.3-0.6c0.1-0.1,0.2-0.2,0.3-0.3c0.1-0.2,0.2-0.4,0.3-0.7
		c0.1-0.2,0.1-0.5,0-0.8c-0.1-0.3-0.2-0.5-0.4-0.8c0.3-0.3,0.5-0.6,0.6-1c0.1-0.4,0.1-0.7,0-1c-0.1-0.3-0.3-0.6-0.5-0.8
		c-0.3-0.2-0.7-0.4-1-0.4l0,0v0l-5.9,0.3c-0.2,0-0.3,0.2-0.3,0.4c0,0.2,0.2,0.3,0.4,0.3l5.9-0.3c0.2,0,0.4,0.1,0.5,0.2
		c0.1,0.1,0.3,0.3,0.3,0.5c0.1,0.2,0.1,0.4,0,0.6c-0.1,0.3-0.3,0.6-0.6,0.8c0,0-0.1,0.1-0.1,0.1c-0.1,0.2-0.1,0.4,0.1,0.5
		c0.3,0.2,0.4,0.4,0.5,0.7c0,0.2,0,0.3,0,0.5c0,0.1-0.1,0.3-0.2,0.4c-0.1,0.2-0.2,0.3-0.4,0.3c-0.1,0-0.2,0.1-0.3,0.2
		c-0.1,0.2,0,0.4,0.2,0.5c0.2,0.1,0.3,0.3,0.4,0.5c0,0.2,0,0.3,0,0.5c0,0.2-0.1,0.3-0.1,0.5l0,0c-0.1,0.1-0.1,0.2-0.2,0.3
		c-0.1,0-0.1,0-0.2,0.1c-0.1,0.1-0.2,0.4,0,0.5c0.2,0.3,0.3,0.5,0.3,0.8c0,0.1,0,0.3-0.1,0.4l0,0l0,0c-0.1,0.1-0.1,0.2-0.2,0.3l0,0
		c-0.2,0.2-0.6,0.3-1,0.3h0l-8.1,0c-0.1,0-0.4-0.1-0.6-0.1c-0.2-0.1-0.5-0.2-0.7-0.3c-0.2-0.1-0.4,0-0.5,0.2
		C57.2,67,57.3,67.2,57.5,67.3L57.5,67.3z M59.1,67.8L59.1,67.8L59.1,67.8z"/>
</g>
<path class="st2" d="M54.7,61.9c0-0.2,0.2-0.4,0.4-0.4s0.4,0.2,0.4,0.4v5.4h1.8v-9.6h-1.8v1.5c0,0.2-0.2,0.4-0.4,0.4
	s-0.4-0.2-0.4-0.4v-1.7c0-0.2,0.1-0.3,0.2-0.4C55,57,55.2,57,55.3,57h2.1c0.2,0,0.3,0.1,0.4,0.2c0.1,0.1,0.2,0.2,0.2,0.4v9.9
	c0,0.1-0.1,0.3-0.1,0.4c0,0,0,0,0,0c-0.1,0.1-0.2,0.2-0.4,0.2h-2.1c-0.2,0-0.3-0.1-0.4-0.2c-0.1-0.1-0.2-0.2-0.2-0.4V61.9z"/>
<path class="st2" d="M39.1,67.9c-0.2,0-0.4-0.2-0.4-0.4s0.2-0.4,0.4-0.4h16c0.2,0,0.4,0.2,0.4,0.4s-0.2,0.4-0.4,0.4H39.1L39.1,67.9z
	 M55.1,57.1c0.2,0,0.4,0.2,0.4,0.4s-0.2,0.4-0.4,0.4h-7.8c-0.2,0-0.4-0.2-0.4-0.4s0.2-0.4,0.4-0.4H55.1z"/>
<path class="st3" d="M60.3,67.4l3.5,0l-0.4,0.8c-0.2,0.5-0.8,0.8-1.3,0.6l-1.2-0.5C60.5,68.2,60.3,67.8,60.3,67.4L60.3,67.4z
	 M67.8,57.3l-3.7,0.2l1-2.6c0.2-0.5,0.8-0.8,1.3-0.6l1.2,0.5c0.5,0.2,0.8,0.8,0.6,1.3L67.8,57.3z"/>
<path class="st2" d="M60.3,67l3.5,0c0.2,0,0.4,0.2,0.4,0.4c0,0.1,0,0.1,0,0.2l-0.4,0.8c-0.2,0.3-0.4,0.6-0.8,0.8l0,0
	c-0.3,0.1-0.7,0.2-1.1,0l-1.2-0.5c-0.3-0.1-0.5-0.3-0.6-0.5c-0.2-0.2-0.2-0.5-0.2-0.8C59.9,67.2,60.1,67,60.3,67L60.3,67L60.3,67z
	 M63.3,67.7l-2.5,0l0,0c0.1,0.1,0.2,0.2,0.3,0.2l1.2,0.5c0.2,0.1,0.3,0.1,0.5,0l0,0l0,0c0.2-0.1,0.3-0.2,0.4-0.4L63.3,67.7
	L63.3,67.7z M67.8,57.6l-3.7,0.2c-0.2,0-0.4-0.1-0.4-0.3c0-0.1,0-0.1,0-0.2l1-2.6c0,0,0,0,0-0.1c0.1-0.3,0.4-0.6,0.7-0.7
	c0.3-0.1,0.7-0.2,1,0c0,0,0,0,0.1,0l1.1,0.5c0.4,0.1,0.6,0.4,0.8,0.7c0.1,0.3,0.2,0.7,0,1.1l-0.5,1.2C68.1,57.5,68,57.6,67.8,57.6
	L67.8,57.6L67.8,57.6z M64.7,57.1l2.9-0.2l0.4-1c0.1-0.2,0.1-0.4,0-0.5c-0.1-0.2-0.2-0.3-0.4-0.4l-1.2-0.5l0,0
	c-0.2-0.1-0.4-0.1-0.5,0c-0.2,0.1-0.3,0.2-0.4,0.4l0,0L64.7,57.1z"/>
<rect x="65.8" y="52" transform="matrix(0.3705 -0.9288 0.9288 0.3705 -6.1661 96.1752)" class="st4" width="4.1" height="1.3"/>
<path class="st2" d="M67.6,55.1l-1.2-0.5c-0.2-0.1-0.3-0.3-0.2-0.5l1.5-3.8c0.1-0.2,0.3-0.3,0.5-0.2l1.2,0.5
	c0.2,0.1,0.3,0.3,0.2,0.5L68,54.9C68,55.1,67.8,55.2,67.6,55.1L67.6,55.1z M67,54.1l0.5,0.2l1.2-3.1L68.2,51L67,54.1z"/>
<path class="st4" d="M74.6,35.8c-4.3-1.7-9.3,0.4-11,4.7c-1.7,4.3,0.4,9.3,4.7,11c4.3,1.7,9.3-0.4,11-4.7
	C81.1,42.5,78.9,37.5,74.6,35.8L74.6,35.8z M73.8,37.8c3.2,1.3,4.8,4.9,3.5,8.2c-1.3,3.2-4.9,4.8-8.2,3.5c-3.2-1.3-4.8-4.9-3.5-8.2
	C66.9,38.1,70.6,36.5,73.8,37.8z"/>
<g>
	<path class="st2" d="M74.4,36.1c-2.1-0.8-4.3-0.7-6.2,0.1c-1.9,0.8-3.5,2.4-4.3,4.4l0,0c-0.8,2.1-0.7,4.3,0.1,6.2
		c0.8,1.9,2.4,3.5,4.4,4.3l0,0c2.1,0.8,4.3,0.7,6.2-0.1c1.9-0.8,3.5-2.4,4.3-4.4c0,0,0,0,0-0.1c0.8-2.1,0.7-4.3-0.1-6.2
		C78.1,38.6,76.6,37,74.4,36.1C74.5,36.1,74.4,36.1,74.4,36.1L74.4,36.1z M68,35.6c2.1-0.9,4.5-1,6.7-0.1l0,0c2.3,0.9,4,2.6,4.8,4.7
		c0.9,2.1,1,4.5,0.1,6.7l0,0l0,0l0,0c-0.9,2.3-2.6,4-4.7,4.8c-2.1,0.9-4.5,1-6.7,0.1l0,0l0,0l0,0c-2.3-0.9-4-2.6-4.8-4.7
		c-0.9-2.1-1-4.5-0.1-6.7l0,0l0,0l0,0C64.2,38.1,65.9,36.4,68,35.6L68,35.6z M79.7,46.9L79.7,46.9L79.7,46.9L79.7,46.9z M73.6,38.2
		c1.5,0.6,2.6,1.8,3.2,3.2c0.6,1.4,0.7,3,0.1,4.5c-0.6,1.5-1.8,2.6-3.2,3.2c-1.4,0.6-3,0.7-4.5,0.1c0,0,0,0-0.1,0
		c-1.5-0.6-2.6-1.8-3.2-3.2c-0.6-1.4-0.7-3-0.1-4.5c0,0,0,0,0-0.1c0.6-1.5,1.8-2.6,3.2-3.2C70.5,37.6,72.1,37.6,73.6,38.2L73.6,38.2
		z M68.8,37.6c1.6-0.7,3.4-0.7,5.1-0.1c1.7,0.7,3,2,3.6,3.5c0.7,1.6,0.7,3.4,0.1,5.1c-0.7,1.7-2,3-3.5,3.6c-1.6,0.7-3.4,0.7-5.1,0.1
		l0,0c-1.7-0.7-3-2-3.6-3.5c-0.7-1.6-0.7-3.4-0.1-5.1l0,0C66,39.5,67.3,38.2,68.8,37.6z"/>
</g>
<polygon class="st1" points="19.5,46.7 35.7,46.7 42.2,53.2 42.2,78.9 19.5,78.9 "/>
<path class="st2" d="M19.5,46.3L19.5,46.3h16.2c0.1,0,0.2,0,0.3,0.1l6.5,6.5c0.1,0.1,0.1,0.2,0.1,0.3h0v25.7c0,0.2-0.2,0.4-0.4,0.4
	h0H19.5c-0.2,0-0.4-0.2-0.4-0.4v0V46.7C19.1,46.5,19.3,46.3,19.5,46.3L19.5,46.3z M35.5,47H19.8v31.5h22V53.4L35.5,47z"/>
<path class="st3" d="M27.3,69c1.1,0.5,2.3,0.8,3.5,0.8c4.2,0,7.6-3.3,7.8-7.4h-4c-0.2,1.9-1.8,3.4-3.8,3.4c-0.5,0-1.1-0.1-1.5-0.3
	L27.3,69z"/>
<path class="st4" d="M30.4,54.3c-4.1,0.2-7.4,3.6-7.4,7.8c0,2.7,1.4,5.1,3.5,6.5l2-3.5c-0.9-0.7-1.5-1.8-1.5-3.1
	c0-2,1.5-3.6,3.4-3.8V54.3z"/>
<path class="st5" d="M37.4,57.8c-1.3-2-3.6-3.4-6.1-3.5v4c1.1,0.1,2,0.7,2.6,1.5L37.4,57.8z"/>
<path class="st4" d="M38.6,61.6c-0.1-1.1-0.4-2.2-0.8-3.1l-3.5,2c0.2,0.3,0.3,0.7,0.3,1.1H38.6z"/>
<path class="st2" d="M23.6,73.5c-0.2,0-0.4-0.2-0.4-0.4s0.2-0.4,0.4-0.4h2.6c0.2,0,0.4,0.2,0.4,0.4s-0.2,0.4-0.4,0.4H23.6L23.6,73.5
	z M33,75.2c-0.2,0-0.4-0.2-0.4-0.4s0.2-0.4,0.4-0.4H35c0.2,0,0.4,0.2,0.4,0.4s-0.2,0.4-0.4,0.4H33L33,75.2z M29,75.2
	c-0.2,0-0.4-0.2-0.4-0.4s0.2-0.4,0.4-0.4h2.5c0.2,0,0.4,0.2,0.4,0.4s-0.2,0.4-0.4,0.4H29L29,75.2z M26.2,75.2
	c-0.2,0-0.4-0.2-0.4-0.4s0.2-0.4,0.4-0.4h1.3c0.2,0,0.4,0.2,0.4,0.4s-0.2,0.4-0.4,0.4H26.2L26.2,75.2z M34.1,73.5
	c-0.2,0-0.4-0.2-0.4-0.4s0.2-0.4,0.4-0.4h3.9c0.2,0,0.4,0.2,0.4,0.4s-0.2,0.4-0.4,0.4H34.1L34.1,73.5z M27.5,73.5
	c-0.2,0-0.4-0.2-0.4-0.4s0.2-0.4,0.4-0.4h5.1c0.2,0,0.4,0.2,0.4,0.4s-0.2,0.4-0.4,0.4H27.5z"/>
<path class="st2" d="M42.2,52.9c0.2,0,0.4,0.2,0.4,0.4c0,0.2-0.2,0.4-0.4,0.4h-6.5c-0.2,0-0.4-0.2-0.4-0.4v0v-6.5
	c0-0.2,0.2-0.4,0.4-0.4s0.4,0.2,0.4,0.4v6.2H42.2z"/>
<path class="st5" d="M192,59.8l9.4-2.5c-1.1-4.1-4.9-7.2-9.4-7.2V59.8z"/>
<path class="st6" d="M190.9,61.1v-9.7c-5.4,0-9.7,4.4-9.7,9.7s4.4,9.7,9.7,9.7s9.7-4.4,9.7-9.7c0-0.9-0.1-1.7-0.3-2.5L190.9,61.1z"
	/>
<path class="st2" d="M190.6,61.1v-9.4c-2.4,0.1-4.6,1.1-6.3,2.7c-1.7,1.7-2.7,4-2.7,6.6s1,4.9,2.7,6.6c1.7,1.7,4,2.7,6.6,2.7
	c2.6,0,4.9-1,6.6-2.7c1.7-1.7,2.7-4,2.7-6.6c0-0.4,0-0.8-0.1-1.2c0-0.3-0.1-0.6-0.2-0.8l-9,2.4C190.8,61.5,190.6,61.4,190.6,61.1
	C190.6,61.1,190.6,61.1,190.6,61.1L190.6,61.1L190.6,61.1z M191.3,51.4v9.3l8.9-2.4c0.2-0.1,0.4,0.1,0.4,0.3
	c0.1,0.4,0.2,0.8,0.3,1.3c0.1,0.4,0.1,0.9,0.1,1.3c0,2.8-1.1,5.3-3,7.1c-1.8,1.8-4.3,3-7.1,3c-2.8,0-5.3-1.1-7.1-3
	c-1.8-1.8-3-4.3-3-7.1s1.1-5.3,3-7.1c1.8-1.8,4.3-3,7.1-3h0C191.1,51,191.3,51.2,191.3,51.4z"/>
<path class="st2" d="M115,55L131.8,31c0.1-0.2,0.3-0.2,0.5-0.1l1.2,0.8c0.2,0.1,0.2,0.3,0.1,0.5l-17.7,25.6
	c-0.1,0.2-0.3,0.2-0.5,0.1L98.7,46.4l-16.6,24c-0.1,0.2-0.3,0.2-0.5,0.1l-1.2-0.8c-0.2-0.1-0.2-0.3-0.1-0.5l17.7-25.5
	c0.1-0.2,0.3-0.2,0.5-0.1L115,55L115,55z M132.1,31.7l-16.7,24.1c-0.1,0.2-0.3,0.2-0.5,0.1L98.3,44.4L81.1,69.2l0.6,0.4l16.6-24
	c0.1-0.2,0.3-0.2,0.5-0.1L115.4,57l17.3-25L132.1,31.7z"/>
<circle class="st1" cx="81.5" cy="69.1" r="2.7"/>
<path class="st2" d="M81.5,66.1c0.8,0,1.6,0.3,2.2,0.9l0,0l0,0l0,0c0.5,0.6,0.9,1.3,0.9,2.2c0,0.8-0.3,1.6-0.9,2.2l0,0l0,0l0,0
	c-0.6,0.5-1.3,0.9-2.2,0.9c-0.8,0-1.6-0.3-2.2-0.9l0,0l0,0l0,0c-0.5-0.6-0.9-1.3-0.9-2.2c0-0.8,0.3-1.6,0.9-2.2l0,0l0,0l0,0
	C79.9,66.4,80.6,66.1,81.5,66.1L81.5,66.1z M83.1,67.5c-0.4-0.4-1-0.7-1.7-0.7c-0.6,0-1.2,0.3-1.7,0.7l0,0c-0.4,0.4-0.7,1-0.7,1.7
	c0,0.6,0.3,1.2,0.7,1.7l0,0c0.4,0.4,1,0.7,1.7,0.7c0.6,0,1.2-0.3,1.7-0.7l0,0c0.4-0.4,0.7-1,0.7-1.7C83.8,68.5,83.6,67.9,83.1,67.5
	L83.1,67.5z"/>
<path class="st2" d="M145.8,97.7c0.1,0.1,0.1,0.4,0,0.5c-0.1,0.1-0.4,0.1-0.5,0l-2.1-2.2c-0.1-0.1-0.1-0.4,0-0.5
	c0.1-0.1,0.4-0.1,0.5,0L145.8,97.7z"/>
<path class="st2" d="M145.3,97.7c0.1-0.1,0.4-0.1,0.5,0c0.1,0.1,0.1,0.4,0,0.5l-2.1,2.2c-0.1,0.1-0.4,0.1-0.5,0
	c-0.1-0.1-0.1-0.4,0-0.5L145.3,97.7z"/>
<path class="st2" d="M71.2,30.1c0.1-0.1,0.4-0.1,0.5,0s0.1,0.4,0,0.5l-2.2,2.1c-0.1,0.1-0.4,0.1-0.5,0c-0.1-0.1-0.1-0.4,0-0.5
	L71.2,30.1z"/>
<path class="st2" d="M71.2,30.6c-0.1-0.1-0.1-0.4,0-0.5s0.4-0.1,0.5,0l2.2,2.1c0.1,0.1,0.1,0.4,0,0.5c-0.1,0.1-0.4,0.1-0.5,0
	L71.2,30.6z"/>
<path class="st4" d="M176.1,25.4c0-0.2,0.2-0.4,0.4-0.4c0.2,0,0.4,0.2,0.4,0.4v3.1c0,0.2-0.2,0.4-0.4,0.4c-0.2,0-0.4-0.2-0.4-0.4
	V25.4z"/>
<path class="st4" d="M175.6,26.8c-0.2,0-0.4-0.2-0.4-0.4s0.2-0.4,0.4-0.4h0.9c0.2,0,0.4,0.2,0.4,0.4s-0.2,0.4-0.4,0.4H175.6z"/>
<path class="st2" d="M168.7,29.7c0-0.2,0.1-0.4,0.3-0.4c0.2,0,0.4,0.1,0.4,0.3c0.5,2.2,1.5,4.2,2.9,5.9c1.4,1.7,3.3,3,5.4,3.8
	c0.1,0.1,0.2,0.2,0.2,0.3v3.5l1.6,0.7v-4.3c0-0.2,0.1-0.3,0.2-0.3c2.1-0.8,4-2.1,5.4-3.8c1.4-1.7,2.5-3.7,2.9-5.9
	c0-0.2,0.2-0.3,0.4-0.3c0.2,0,0.3,0.2,0.3,0.4c-0.5,2.3-1.6,4.5-3.1,6.2c-1.5,1.7-3.3,3-5.5,3.9v4.6h0c0,0.1,0,0.1,0,0.2
	c-0.1,0.2-0.3,0.3-0.5,0.2l-2.3-1.1c-0.1-0.1-0.2-0.2-0.2-0.3v-3.5c-2.1-0.8-4-2.2-5.5-3.9C170.3,34.2,169.3,32,168.7,29.7z"/>
<path class="st2" d="M186.3,30c-0.2,0-0.4-0.2-0.4-0.4c0-0.2,0.2-0.4,0.4-0.4h2.3c0.1,0,0.1,0,0.2-0.1c0,0,0.1-0.1,0.1-0.2
	c0-0.1,0-0.1-0.1-0.2l0,0c0,0-0.1-0.1-0.2-0.1h-19.5c-0.1,0-0.1,0-0.2,0.1c0,0-0.1,0.1-0.1,0.2c0,0.1,0,0.1,0.1,0.2l0,0
	c0,0,0.1,0.1,0.2,0.1h7c0.2,0,0.4,0.2,0.4,0.4c0,0.2-0.2,0.4-0.4,0.4h-7c-0.3,0-0.5-0.1-0.7-0.3l0,0c-0.2-0.2-0.3-0.4-0.3-0.7
	c0-0.3,0.1-0.5,0.3-0.7c0.2-0.2,0.4-0.3,0.7-0.3h19.5c0.3,0,0.5,0.1,0.7,0.3l0,0l0,0c0.2,0.2,0.3,0.4,0.3,0.7c0,0.3-0.1,0.5-0.3,0.7
	c-0.2,0.2-0.4,0.3-0.7,0.3H186.3L186.3,30z M181.5,30h2.2c0.2,0,0.4-0.2,0.4-0.4c0-0.2-0.2-0.4-0.4-0.4h-2.2c-0.2,0-0.4,0.2-0.4,0.4
	C181.2,29.8,181.3,30,181.5,30z"/>
<path class="st2" d="M171.1,32c-0.1-0.2,0-0.4,0.2-0.5c0.2-0.1,0.4,0,0.5,0.2c0.4,0.8,0.8,1.5,1.3,2.2c0.5,0.7,1.1,1.3,1.7,1.9
	c0.1,0.1,0.2,0.4,0,0.5c-0.1,0.1-0.4,0.2-0.5,0c-0.7-0.6-1.3-1.3-1.8-2C171.9,33.6,171.5,32.8,171.1,32z"/>
<path class="st4" d="M180.6,22.2c0-0.2,0.2-0.4,0.4-0.4s0.4,0.2,0.4,0.4v3.7c0,0.2-0.2,0.4-0.4,0.4s-0.4-0.2-0.4-0.4V22.2z"/>
<path class="st4" d="M180.1,26.2c-0.2,0-0.4-0.2-0.4-0.4s0.2-0.4,0.4-0.4h1.7c0.2,0,0.4,0.2,0.4,0.4s-0.2,0.4-0.4,0.4H180.1z"/>
<path class="st4" d="M180.1,23.7c-0.2,0-0.4-0.2-0.4-0.4s0.2-0.4,0.4-0.4h0.9c0.2,0,0.4,0.2,0.4,0.4s-0.2,0.4-0.4,0.4H180.1z"/>
<path class="st4" d="M186.8,27.3L186.8,27.3H185c-0.2,0-0.4-0.2-0.4-0.4v0v-3.6c0-0.2,0.2-0.4,0.4-0.4h0h1.8c0.2,0,0.4,0.2,0.4,0.4
	v0v3.6C187.2,27.1,187,27.3,186.8,27.3L186.8,27.3z M185.3,26.6h1.1v-2.9h-1.1V26.6z"/>
<path class="st4" d="M177.6,23.1L177.6,23.1h-1.8c-0.2,0-0.4-0.2-0.4-0.4v0v-3.6c0-0.2,0.2-0.4,0.4-0.4h0h1.8c0.2,0,0.4,0.2,0.4,0.4
	v0v3.6C178,23,177.8,23.1,177.6,23.1L177.6,23.1z M176.2,22.4h1.1v-2.9h-1.1V22.4z"/>
<path class="st4" d="M187.9,21L187.9,21h-1.8c-0.2,0-0.4-0.2-0.4-0.4v0v-3.6c0-0.2,0.2-0.4,0.4-0.4h0h1.8c0.2,0,0.4,0.2,0.4,0.4v0
	v3.6C188.3,20.8,188.1,21,187.9,21L187.9,21z M186.5,20.2h1.1v-2.9h-1.1V20.2z"/>
<path class="st4" d="M172.1,14.5c0-0.2,0.2-0.4,0.4-0.4c0.2,0,0.4,0.2,0.4,0.4v3.7c0,0.2-0.2,0.4-0.4,0.4c-0.2,0-0.4-0.2-0.4-0.4
	V14.5z"/>
<path class="st4" d="M171.6,18.5c-0.2,0-0.4-0.2-0.4-0.4s0.2-0.4,0.4-0.4h1.7c0.2,0,0.4,0.2,0.4,0.4s-0.2,0.4-0.4,0.4H171.6z"/>
<path class="st4" d="M171.6,16c-0.2,0-0.4-0.2-0.4-0.4s0.2-0.4,0.4-0.4h0.9c0.2,0,0.4,0.2,0.4,0.4s-0.2,0.4-0.4,0.4H171.6z"/>
<path class="st4" d="M172.2,27.2L172.2,27.2h-1.8c-0.2,0-0.4-0.2-0.4-0.4v0v-3.6c0-0.2,0.2-0.4,0.4-0.4h0h1.8c0.2,0,0.4,0.2,0.4,0.4
	v0v3.6C172.6,27.1,172.4,27.2,172.2,27.2L172.2,27.2z M170.8,26.5h1.1v-2.9h-1.1V26.5z"/>
<path class="st4" d="M182,15.6c0-0.2,0.2-0.4,0.4-0.4s0.4,0.2,0.4,0.4v3.7c0,0.2-0.2,0.4-0.4,0.4s-0.4-0.2-0.4-0.4V15.6z"/>
<path class="st4" d="M181.5,19.6c-0.2,0-0.4-0.2-0.4-0.4c0-0.2,0.2-0.4,0.4-0.4h1.7c0.2,0,0.4,0.2,0.4,0.4c0,0.2-0.2,0.4-0.4,0.4
	H181.5z"/>
<path class="st4" d="M181.5,17c-0.2,0-0.4-0.2-0.4-0.4c0-0.2,0.2-0.4,0.4-0.4h0.9c0.2,0,0.4,0.2,0.4,0.4c0,0.2-0.2,0.4-0.4,0.4
	H181.5z"/>
<path class="st3" d="M179.8,50.1L179.8,50.1h-1.8c-0.2,0-0.4-0.2-0.4-0.4v0v-3.6c0-0.2,0.2-0.4,0.4-0.4h0h1.8c0.2,0,0.4,0.2,0.4,0.4
	v0v3.6C180.1,50,180,50.1,179.8,50.1L179.8,50.1z M178.3,49.4h1.1v-2.9h-1.1V49.4z"/>
<path class="st5" d="M178.5,51c0-0.2,0.2-0.4,0.4-0.4c0.2,0,0.4,0.2,0.4,0.4v3.7c0,0.2-0.2,0.4-0.4,0.4c-0.2,0-0.4-0.2-0.4-0.4V51z"
	/>
<path class="st3" d="M178,55c-0.2,0-0.4-0.2-0.4-0.4s0.2-0.4,0.4-0.4h1.7c0.2,0,0.4,0.2,0.4,0.4s-0.2,0.4-0.4,0.4H178z"/>
<path class="st3" d="M178,52.5c-0.2,0-0.4-0.2-0.4-0.4s0.2-0.4,0.4-0.4h0.9c0.2,0,0.4,0.2,0.4,0.4s-0.2,0.4-0.4,0.4H178z"/>
<circle class="st1" cx="71.5" cy="98" r="2"/>
<path class="st2" d="M71.5,95.6c0.7,0,1.3,0.3,1.7,0.7c0.4,0.4,0.7,1,0.7,1.7c0,0.7-0.3,1.3-0.7,1.7c-0.4,0.4-1,0.7-1.7,0.7
	c-0.7,0-1.3-0.3-1.7-0.7c-0.4-0.4-0.7-1-0.7-1.7c0-0.7,0.3-1.3,0.7-1.7C70.2,95.8,70.8,95.6,71.5,95.6L71.5,95.6z M72.6,96.8
	c-0.3-0.3-0.7-0.5-1.2-0.5c-0.5,0-0.9,0.2-1.2,0.5c-0.3,0.3-0.5,0.7-0.5,1.2c0,0.5,0.2,0.9,0.5,1.2c0.3,0.3,0.7,0.5,1.2,0.5
	c0.5,0,0.9-0.2,1.2-0.5c0.3-0.3,0.5-0.7,0.5-1.2C73.1,97.5,72.9,97.1,72.6,96.8z"/>
<path class="st2" d="M71.5,91.3c-0.2,0-0.4-0.2-0.4-0.4s0.2-0.4,0.4-0.4h1.4c0.2,0,0.4,0.2,0.4,0.4s-0.2,0.4-0.4,0.4H71.5z"/>
<path class="st2" d="M71.5,86.6c-0.2,0-0.4-0.2-0.4-0.4c0-0.2,0.2-0.4,0.4-0.4h1.4c0.2,0,0.4,0.2,0.4,0.4c0,0.2-0.2,0.4-0.4,0.4
	H71.5z"/>
<path class="st2" d="M71.5,81.8c-0.2,0-0.4-0.2-0.4-0.4s0.2-0.4,0.4-0.4h1.4c0.2,0,0.4,0.2,0.4,0.4s-0.2,0.4-0.4,0.4H71.5z"/>
<path class="st2" d="M71.5,77.1c-0.2,0-0.4-0.2-0.4-0.4s0.2-0.4,0.4-0.4h1.4c0.2,0,0.4,0.2,0.4,0.4s-0.2,0.4-0.4,0.4H71.5z"/>
<path class="st2" d="M71.5,72.4c-0.2,0-0.4-0.2-0.4-0.4s0.2-0.4,0.4-0.4h1.4c0.2,0,0.4,0.2,0.4,0.4s-0.2,0.4-0.4,0.4H71.5z"/>
<path class="st2" d="M71.5,67.7c-0.2,0-0.4-0.2-0.4-0.4s0.2-0.4,0.4-0.4h1.4c0.2,0,0.4,0.2,0.4,0.4s-0.2,0.4-0.4,0.4H71.5z"/>
<path class="st2" d="M71.5,62.9c-0.2,0-0.4-0.2-0.4-0.4s0.2-0.4,0.4-0.4h1.4c0.2,0,0.4,0.2,0.4,0.4s-0.2,0.4-0.4,0.4H71.5z"/>
<path class="st2" d="M71.5,58.2c-0.2,0-0.4-0.2-0.4-0.4s0.2-0.4,0.4-0.4h1.4c0.2,0,0.4,0.2,0.4,0.4s-0.2,0.4-0.4,0.4H71.5z"/>
<path class="st2" d="M71.5,53.5c-0.2,0-0.4-0.2-0.4-0.4c0-0.2,0.2-0.4,0.4-0.4h1.4c0.2,0,0.4,0.2,0.4,0.4c0,0.2-0.2,0.4-0.4,0.4
	H71.5z"/>
<path class="st2" d="M71.5,48.8c-0.2,0-0.4-0.2-0.4-0.4s0.2-0.4,0.4-0.4h1.7c0.2,0,0.4,0.2,0.4,0.4s-0.2,0.4-0.4,0.4H71.5z"/>
<path class="st2" d="M70.7,44c-0.2,0-0.4-0.2-0.4-0.4s0.2-0.4,0.4-0.4h3.5c0.2,0,0.4,0.2,0.4,0.4S74.4,44,74.2,44H70.7z"/>
<path class="st2" d="M71.5,39.3c-0.2,0-0.4-0.2-0.4-0.4s0.2-0.4,0.4-0.4h1.7c0.2,0,0.4,0.2,0.4,0.4s-0.2,0.4-0.4,0.4H71.5z"/>
<path class="st1" d="M39.3,75.3h19.1c1,0,1.8,0.8,1.8,1.8v19.1c0,1-0.8,1.8-1.8,1.8H39.3c-1,0-1.8-0.8-1.8-1.8V77
	C37.6,76.1,38.4,75.3,39.3,75.3z"/>
<path class="st2" d="M39.3,74.9h19.1c0.6,0,1.1,0.2,1.5,0.6c0.4,0.4,0.6,0.9,0.6,1.5v19.1c0,0.6-0.2,1.1-0.6,1.5
	c-0.4,0.4-0.9,0.6-1.5,0.6H39.3c-0.6,0-1.1-0.2-1.5-0.6c-0.4-0.4-0.6-0.9-0.6-1.5V77c0-0.6,0.2-1.1,0.6-1.5
	C38.2,75.1,38.8,74.9,39.3,74.9L39.3,74.9z M58.5,75.6H39.3c-0.4,0-0.8,0.2-1,0.4c-0.3,0.3-0.4,0.6-0.4,1v19.1c0,0.4,0.2,0.8,0.4,1
	c0.3,0.3,0.6,0.4,1,0.4h19.1c0.4,0,0.8-0.2,1-0.4c0.3-0.3,0.4-0.6,0.4-1V77c0-0.4-0.2-0.8-0.4-1C59.2,75.8,58.9,75.6,58.5,75.6z"/>
<path class="st1" d="M39.3,75.3h19.1c1,0,1.8,0.8,1.8,1.8v3.6H37.6V77C37.6,76.1,38.4,75.3,39.3,75.3z"/>
<path class="st2" d="M39.3,74.9h19.1c0.6,0,1.1,0.2,1.5,0.6l0,0c0.4,0.4,0.6,0.9,0.6,1.5v3.6c0,0.2-0.2,0.4-0.4,0.4h0H37.6
	c-0.2,0-0.4-0.2-0.4-0.4v0V77c0-0.6,0.2-1.1,0.6-1.5l0,0C38.2,75.1,38.8,74.9,39.3,74.9L39.3,74.9z M58.5,75.6H39.3
	c-0.4,0-0.8,0.2-1,0.4l0,0l0,0c-0.3,0.3-0.4,0.6-0.4,1v3.2h22V77c0-0.4-0.2-0.7-0.4-1l0,0C59.2,75.8,58.9,75.6,58.5,75.6z"/>
<rect x="55.4" y="91.2" class="st4" width="2.6" height="2.6"/>
<rect x="55.4" y="84.8" class="st3" width="2.6" height="2.6"/>
<rect x="50.2" y="84.8" class="st3" width="2.6" height="2.6"/>
<rect x="45" y="84.8" class="st3" width="2.6" height="2.6"/>
<rect x="50.2" y="91.2" class="st4" width="2.6" height="2.6"/>
<rect x="45" y="91.2" class="st3" width="2.6" height="2.6"/>
<rect x="39.8" y="91.2" class="st3" width="2.6" height="2.6"/>
<rect x="39.8" y="84.8" class="st4" width="2.6" height="2.6"/>
<path class="st1" d="M45.8,76.7c0.7,0,1.2,0.5,1.2,1.2c0,0.7-0.5,1.2-1.2,1.2c-0.7,0-1.2-0.5-1.2-1.2C44.6,77.3,45.2,76.7,45.8,76.7
	L45.8,76.7z M52,76.7c0.7,0,1.2,0.5,1.2,1.2c0,0.7-0.5,1.2-1.2,1.2c-0.7,0-1.2-0.5-1.2-1.2C50.8,77.3,51.3,76.7,52,76.7z"/>
<path class="st2" d="M45.8,76.4c0.4,0,0.8,0.2,1.1,0.5l0,0l0,0l0,0c0.3,0.3,0.4,0.7,0.4,1.1c0,0.4-0.2,0.8-0.5,1.1l0,0l0,0
	c-0.3,0.3-0.7,0.5-1.1,0.5c-0.4,0-0.8-0.2-1.1-0.5l0,0l0,0l0,0c-0.3-0.3-0.4-0.7-0.4-1.1c0-0.4,0.2-0.8,0.5-1.1l0,0
	C45,76.6,45.4,76.4,45.8,76.4L45.8,76.4z M46.4,77.4c-0.1-0.2-0.4-0.2-0.6-0.2c-0.2,0-0.4,0.1-0.6,0.2l0,0c-0.2,0.2-0.2,0.4-0.2,0.6
	c0,0.2,0.1,0.4,0.2,0.6l0,0l0,0c0.2,0.2,0.4,0.2,0.6,0.2c0.2,0,0.4-0.1,0.6-0.2l0,0c0.2-0.2,0.2-0.4,0.2-0.6
	C46.7,77.7,46.6,77.5,46.4,77.4L46.4,77.4L46.4,77.4L46.4,77.4z M52,76.4c0.4,0,0.8,0.2,1.1,0.5l0,0l0,0c0.3,0.3,0.5,0.7,0.5,1.1
	c0,0.4-0.2,0.8-0.5,1.1l0,0c-0.3,0.3-0.7,0.5-1.1,0.5s-0.8-0.2-1.1-0.5c-0.3-0.3-0.5-0.7-0.5-1.1c0-0.4,0.2-0.8,0.5-1.1l0,0
	C51.2,76.6,51.6,76.4,52,76.4L52,76.4z M52.6,77.4c-0.2-0.2-0.4-0.2-0.6-0.2c-0.2,0-0.4,0.1-0.6,0.2l0,0l0,0
	c-0.1,0.1-0.2,0.4-0.2,0.6c0,0.2,0.1,0.4,0.2,0.6c0.2,0.2,0.4,0.2,0.6,0.2s0.4-0.1,0.6-0.2l0,0l0,0c0.1-0.1,0.2-0.4,0.2-0.6
	C52.8,77.7,52.7,77.5,52.6,77.4L52.6,77.4z"/>
<path class="st2" d="M46.2,77.9c0,0.2-0.2,0.4-0.4,0.4s-0.4-0.2-0.4-0.4V74c0-0.2,0.2-0.4,0.4-0.4s0.4,0.2,0.4,0.4V77.9z"/>
<path class="st2" d="M52.3,77.9c0,0.2-0.2,0.4-0.4,0.4s-0.4-0.2-0.4-0.4V74c0-0.2,0.2-0.4,0.4-0.4s0.4,0.2,0.4,0.4V77.9z"/>
<path class="st6" d="M43,29c-0.2,0-0.4,0-0.7,0c0.9-3.1-1.3-6.2-4.6-6.2c-1.8,0-3.3,1-4.2,2.4c-1.8-0.5-3.7,0.9-3.7,2.8
	c0,0.8,0.3,1.6,0.9,2.1c-2.4,0.5-4.2,2.6-4.2,5.2c0,2.9,2.4,5.3,5.3,5.3H43c3.2,0,5.8-2.6,5.8-5.8S46.2,29,43,29z"/>
<g>
	<path class="st2" d="M43,29.4c-0.1,0-0.2,0-0.3,0L43,29.4L43,29.4z M42.8,28.7c0.1,0,0.1,0,0.2,0c1.7,0,3.2,0.7,4.3,1.8l0,0l0,0
		c1.1,1.1,1.8,2.6,1.8,4.3c0,1.7-0.7,3.2-1.8,4.3l0,0l0,0c-1.1,1.1-2.6,1.8-4.3,1.8H31.9c-1.6,0-3-0.6-4-1.6l0,0c-1-1-1.6-2.4-1.6-4
		c0-1.3,0.5-2.6,1.3-3.6l0,0c0.7-0.8,1.6-1.5,2.7-1.8c-0.1-0.2-0.3-0.4-0.3-0.6c-0.2-0.4-0.3-0.8-0.3-1.3c0-0.3,0-0.6,0.1-0.9
		c0.2-0.7,0.6-1.3,1.2-1.7c0.6-0.4,1.2-0.7,2-0.7c0.2,0,0.4,0,0.6,0.1c0.4-0.7,1-1.3,1.8-1.7c0.8-0.4,1.6-0.7,2.6-0.7
		c0.5,0,1,0.1,1.5,0.2c1.1,0.3,2,1,2.6,1.9c0.6,0.9,1,1.9,1,3.1C42.9,28,42.9,28.3,42.8,28.7L42.8,28.7z M42.7,29.4l0.3,0
		c1.5,0,2.9,0.6,3.8,1.6l0,0c1,1,1.6,2.3,1.6,3.8c0,1.5-0.6,2.9-1.6,3.8c-1,1-2.3,1.6-3.8,1.6H31.9c-1.4,0-2.6-0.5-3.5-1.4l0,0l0,0
		c-0.9-0.9-1.4-2.1-1.4-3.5c0-1.2,0.4-2.3,1.1-3.1l0,0l0,0c0.7-0.9,1.7-1.5,2.8-1.7c0.1,0,0.1,0,0.2-0.1c0.1-0.1,0.1-0.4,0-0.5
		c-0.2-0.2-0.4-0.5-0.6-0.8c-0.1-0.3-0.2-0.6-0.2-1c0-0.2,0-0.5,0.1-0.7c0.2-0.5,0.5-1,0.9-1.3c0.4-0.3,1-0.5,1.5-0.5
		c0.2,0,0.4,0,0.7,0.1c0.2,0,0.3,0,0.4-0.2c0.4-0.7,1-1.3,1.6-1.6c0.7-0.4,1.4-0.6,2.2-0.6c0.5,0,0.9,0.1,1.3,0.2
		c0.9,0.3,1.7,0.9,2.3,1.6c0.5,0.7,0.9,1.7,0.9,2.6c0,0.4-0.1,0.9-0.2,1.3c0,0.1,0,0.1,0,0.2c0,0.2,0.2,0.3,0.4,0.3
		C42.5,29.4,42.6,29.4,42.7,29.4L42.7,29.4z"/>
</g>
<path class="st4" d="M10.3,88.7c0-0.7,0.6-1.3,1.3-1.3c0.7,0,1.3,0.6,1.3,1.3c0,0.5-0.3,1-0.7,1.2c1.5,0,1.3,1.2,1.3,2.2v2.3h-0.7
	v3.2h-2.4v-3.2H9.7V91c0-0.7,0.5-1.1,1.3-1.1C10.6,89.7,10.3,89.3,10.3,88.7z"/>
<path class="st7" d="M14.6,88.7c0-0.7,0.6-1.3,1.3-1.3c0.7,0,1.3,0.6,1.3,1.3c0,0.5-0.3,1-0.7,1.2c1.5,0,1.3,1.2,1.3,2.2v2.3h-0.7
	v3.2h-2.4v-3.2H14V91c0-0.7,0.5-1.1,1.3-1.1C14.9,89.7,14.6,89.3,14.6,88.7z"/>
<path class="st8" d="M18.8,88.7c0-0.7,0.6-1.3,1.3-1.3c0.7,0,1.3,0.6,1.3,1.3c0,0.5-0.3,1-0.7,1.2c1.5,0,1.3,1.2,1.3,2.2v2.3h-0.7
	v3.2H19v-3.2h-0.7V91c0-0.7,0.5-1.1,1.3-1.1C19.1,89.7,18.8,89.3,18.8,88.7z"/>
<path class="st3" d="M23.1,88.7c0-0.7,0.6-1.3,1.3-1.3c0.7,0,1.3,0.6,1.3,1.3c0,0.5-0.3,1-0.7,1.2c1.5,0,1.3,1.2,1.3,2.2v2.3h-0.7
	v3.2h-2.4v-3.2h-0.7V91c0-0.7,0.5-1.1,1.3-1.1C23.4,89.7,23.1,89.3,23.1,88.7z"/>
<path class="st5" d="M27.4,88.7c0-0.7,0.6-1.3,1.3-1.3c0.7,0,1.3,0.6,1.3,1.3c0,0.5-0.3,1-0.7,1.2c1.5,0,1.3,1.2,1.3,2.2v2.3h-0.7
	v3.2h-2.4v-3.2h-0.7V91c0-0.7,0.5-1.1,1.3-1.1C27.7,89.7,27.4,89.3,27.4,88.7z"/>
<path class="st3" d="M31.6,88.7c0-0.7,0.6-1.3,1.3-1.3c0.7,0,1.3,0.6,1.3,1.3c0,0.5-0.3,1-0.7,1.2c1.5,0,1.3,1.2,1.3,2.2v2.3h-0.7
	v3.2h-2.4v-3.2h-0.7V91c0-0.7,0.5-1.1,1.3-1.1C31.9,89.7,31.6,89.3,31.6,88.7z"/>
<path class="st1" d="M63.5,14.6c1.7,0,3.3,0.7,4.4,1.8c1.1,1.1,1.8,2.7,1.8,4.4c0,1.7-0.7,3.3-1.8,4.4v0c-1.1,1.1-2.7,1.8-4.4,1.8
	c-1.7,0-3.3-0.7-4.4-1.8l0,0c-1.1-1.1-1.8-2.7-1.8-4.4c0-1.7,0.7-3.3,1.8-4.4l0,0C60.2,15.3,61.8,14.6,63.5,14.6L63.5,14.6z
	 M66.9,17.5c-0.9-0.9-2.1-1.4-3.4-1.4c-1.3,0-2.5,0.5-3.4,1.4c-0.9,0.9-1.4,2.1-1.4,3.4c0,1.3,0.5,2.5,1.4,3.4
	c0.9,0.9,2.1,1.4,3.4,1.4c1.3,0,2.5-0.5,3.4-1.4l0,0c0.9-0.9,1.4-2.1,1.4-3.4C68.3,19.5,67.8,18.4,66.9,17.5z"/>
<g>
	<path class="st2" d="M63.5,14.2c0.9,0,1.8,0.2,2.5,0.5c0.8,0.3,1.5,0.8,2.2,1.4c0.6,0.6,1.1,1.3,1.4,2.2c0.3,0.8,0.5,1.6,0.5,2.5
		c0,0.9-0.2,1.8-0.5,2.5c-0.3,0.8-0.8,1.5-1.4,2.1c0,0,0,0,0,0c-0.6,0.6-1.3,1.1-2.2,1.4c-0.8,0.3-1.6,0.5-2.5,0.5
		c-0.9,0-1.8-0.2-2.5-0.5c-0.8-0.3-1.5-0.8-2.2-1.4l0,0l0,0l0,0l0,0c-0.6-0.6-1.1-1.3-1.4-2.1c-0.3-0.8-0.5-1.6-0.5-2.5
		c0-0.9,0.2-1.8,0.5-2.5c0.3-0.8,0.8-1.5,1.4-2.2l0,0l0,0l0,0l0,0c0.6-0.6,1.3-1.1,2.1-1.4C61.8,14.4,62.6,14.2,63.5,14.2L63.5,14.2
		z M65.8,15.4c-0.7-0.3-1.5-0.4-2.3-0.4c-0.8,0-1.6,0.2-2.3,0.4c-0.7,0.3-1.4,0.7-1.9,1.3l0,0l0,0l0,0c-0.5,0.5-1,1.2-1.3,1.9
		c-0.3,0.7-0.4,1.5-0.4,2.3c0,0.8,0.2,1.6,0.4,2.3c0.3,0.7,0.7,1.4,1.3,1.9l0,0l0,0l0,0c0.5,0.5,1.2,1,1.9,1.3
		c0.7,0.3,1.5,0.4,2.3,0.4c0.8,0,1.6-0.2,2.3-0.4c0.7-0.3,1.4-0.7,1.9-1.3l0,0c0.5-0.5,1-1.2,1.3-1.9c0.3-0.7,0.4-1.5,0.4-2.3
		c0-0.8-0.2-1.6-0.4-2.3c-0.3-0.7-0.7-1.4-1.3-1.9C67.2,16.1,66.5,15.7,65.8,15.4L65.8,15.4z M58.8,25.5l0-0.5
		C58.7,25.2,58.7,25.4,58.8,25.5L58.8,25.5z M58.9,16.2l0.5,0C59.2,16,59,16,58.9,16.2L58.9,16.2z M66.7,17.7
		c-0.4-0.4-0.9-0.7-1.4-1c-0.5-0.2-1.1-0.3-1.7-0.3c-0.6,0-1.2,0.1-1.7,0.3c-0.5,0.2-1,0.6-1.4,1c-0.4,0.4-0.7,0.9-1,1.4
		c-0.2,0.5-0.3,1.1-0.3,1.7c0,0.6,0.1,1.2,0.3,1.7c0.2,0.5,0.6,1,1,1.4c0.4,0.4,0.9,0.7,1.4,1c0.5,0.2,1.1,0.3,1.7,0.3
		c0.6,0,1.2-0.1,1.7-0.3c0.5-0.2,1-0.6,1.4-1l0,0c0.4-0.4,0.7-0.9,0.9-1.4c0.2-0.5,0.3-1.1,0.3-1.7c0-0.6-0.1-1.2-0.3-1.7
		C67.4,18.6,67.1,18.1,66.7,17.7L66.7,17.7z M65.5,16.1c-0.6-0.3-1.3-0.4-2-0.4c-0.7,0-1.4,0.1-2,0.4c-0.6,0.3-1.2,0.6-1.7,1.1l0,0
		l0,0c-0.5,0.5-0.9,1-1.1,1.7c-0.3,0.6-0.4,1.3-0.4,2c0,0.7,0.1,1.4,0.4,2c0.3,0.6,0.6,1.2,1.1,1.7l0,0l0,0c0.5,0.5,1,0.9,1.7,1.1
		c0.6,0.3,1.3,0.4,2,0.4c0.7,0,1.4-0.1,2-0.4c0.6-0.3,1.2-0.6,1.7-1.1l0,0l0,0l0,0c0.5-0.5,0.9-1,1.1-1.7c0.3-0.6,0.4-1.3,0.4-2
		c0-0.7-0.1-1.4-0.4-2c-0.3-0.6-0.6-1.2-1.1-1.7C66.7,16.8,66.1,16.4,65.5,16.1z"/>
</g>
<path class="st1" d="M56.1,21.6c-0.4,0-0.7-0.3-0.7-0.7c0-0.4,0.3-0.7,0.7-0.7h4.4c0.4,0,0.7,0.3,0.7,0.7c0,0.4-0.3,0.7-0.7,0.7
	H56.1L56.1,21.6z M64.3,28.4c0,0.4-0.3,0.7-0.7,0.7c-0.4,0-0.7-0.3-0.7-0.7v-4.4c0-0.4,0.3-0.7,0.7-0.7c0.4,0,0.7,0.3,0.7,0.7V28.4
	L64.3,28.4z M64.3,17.8c0,0.4-0.3,0.7-0.7,0.7c-0.4,0-0.7-0.3-0.7-0.7v-4.4c0-0.4,0.3-0.7,0.7-0.7c0.4,0,0.7,0.3,0.7,0.7V17.8
	L64.3,17.8z M66.6,21.6c-0.4,0-0.7-0.3-0.7-0.7c0-0.4,0.3-0.7,0.7-0.7H71c0.4,0,0.7,0.3,0.7,0.7c0,0.4-0.3,0.7-0.7,0.7H66.6z"/>
<path class="st3" d="M56.1,22c-0.3,0-0.6-0.1-0.8-0.3c-0.2-0.2-0.3-0.5-0.3-0.8c0-0.3,0.1-0.6,0.3-0.8l0,0l0,0
	c0.2-0.2,0.5-0.3,0.8-0.3h4.4c0.3,0,0.6,0.1,0.8,0.3c0.2,0.2,0.3,0.5,0.3,0.8c0,0.3-0.1,0.6-0.3,0.8c-0.2,0.2-0.5,0.3-0.8,0.3H56.1
	L56.1,22z M55.8,21.1c0.1,0.1,0.2,0.1,0.3,0.1h4.4c0.1,0,0.2,0,0.3-0.1c0.1-0.1,0.1-0.2,0.1-0.3c0-0.1,0-0.2-0.1-0.3
	c-0.1-0.1-0.2-0.1-0.3-0.1h-4.4c-0.1,0-0.2,0-0.3,0.1l0,0l0,0c-0.1,0.1-0.1,0.2-0.1,0.3C55.7,21,55.7,21.1,55.8,21.1L55.8,21.1z
	 M64.7,28.4c0,0.3-0.1,0.6-0.3,0.8l0,0l0,0c-0.2,0.2-0.5,0.3-0.8,0.3c-0.3,0-0.6-0.1-0.8-0.3c-0.2-0.2-0.3-0.5-0.3-0.8v-4.4
	c0-0.3,0.1-0.6,0.3-0.8c0.2-0.2,0.5-0.3,0.8-0.3c0.3,0,0.6,0.1,0.8,0.3c0.2,0.2,0.3,0.5,0.3,0.8V28.4L64.7,28.4z M63.8,28.6
	c0.1-0.1,0.1-0.2,0.1-0.3v-4.4c0-0.1,0-0.2-0.1-0.3c-0.1-0.1-0.2-0.1-0.3-0.1s-0.2,0-0.3,0.1c-0.1,0.1-0.1,0.2-0.1,0.3v4.4
	c0,0.1,0,0.2,0.1,0.3s0.2,0.1,0.3,0.1C63.7,28.7,63.8,28.7,63.8,28.6L63.8,28.6L63.8,28.6z M64.7,17.8c0,0.3-0.1,0.6-0.3,0.8l0,0
	l0,0c-0.2,0.2-0.5,0.3-0.8,0.3c-0.3,0-0.6-0.1-0.8-0.3c-0.2-0.2-0.3-0.5-0.3-0.8v-4.4c0-0.3,0.1-0.6,0.3-0.8l0,0l0,0
	c0.2-0.2,0.5-0.3,0.8-0.3c0.3,0,0.6,0.1,0.8,0.3c0.2,0.2,0.3,0.5,0.3,0.8V17.8L64.7,17.8z M63.8,18.1c0.1-0.1,0.1-0.2,0.1-0.3v-4.4
	c0-0.1,0-0.2-0.1-0.3C63.8,13,63.7,13,63.5,13c-0.1,0-0.2,0-0.3,0.1l0,0l0,0c-0.1,0.1-0.1,0.2-0.1,0.3v4.4c0,0.1,0,0.2,0.1,0.3
	c0.1,0.1,0.2,0.1,0.3,0.1C63.7,18.2,63.8,18.1,63.8,18.1L63.8,18.1L63.8,18.1z M66.6,22c-0.3,0-0.6-0.1-0.8-0.3l0,0l0,0
	c-0.2-0.2-0.3-0.5-0.3-0.8c0-0.3,0.1-0.6,0.3-0.8c0.2-0.2,0.5-0.3,0.8-0.3H71c0.3,0,0.6,0.1,0.8,0.3c0.2,0.2,0.3,0.5,0.3,0.8
	c0,0.3-0.1,0.6-0.3,0.8C71.6,21.9,71.3,22,71,22H66.6L66.6,22z M66.3,21.1L66.3,21.1c0.1,0.1,0.2,0.1,0.3,0.1H71
	c0.1,0,0.2,0,0.3-0.1c0.1-0.1,0.1-0.2,0.1-0.3c0-0.1,0-0.2-0.1-0.3c-0.1-0.1-0.2-0.1-0.3-0.1h-4.4c-0.1,0-0.2,0-0.3,0.1
	c-0.1,0.1-0.1,0.2-0.1,0.3C66.2,21,66.3,21.1,66.3,21.1L66.3,21.1z"/>
<path class="st2" d="M68.6,39.4c0.2-0.1,0.4-0.1,0.5,0.1c0.1,0.2,0.1,0.4-0.1,0.5c-0.3,0.2-0.5,0.4-0.7,0.6
	c-0.2,0.2-0.4,0.5-0.6,0.8c-0.3,0.5-0.5,1.1-0.6,1.7c-0.1,0.6-0.1,1.2,0.1,1.8c0,0.2-0.1,0.4-0.3,0.4c-0.2,0-0.4-0.1-0.4-0.3
	c-0.2-0.7-0.2-1.4-0.1-2.1c0.1-0.7,0.3-1.3,0.7-1.9c0.2-0.3,0.4-0.6,0.7-0.9C68,39.8,68.3,39.6,68.6,39.4z"/>
<circle class="st1" cx="98.4" cy="44.8" r="2.7"/>
<path class="st2" d="M98.4,41.8c0.8,0,1.6,0.3,2.2,0.9l0,0l0,0l0,0c0.5,0.6,0.9,1.3,0.9,2.2c0,0.8-0.3,1.6-0.9,2.2l0,0l0,0l0,0
	c-0.6,0.5-1.3,0.9-2.2,0.9c-0.8,0-1.6-0.3-2.2-0.9l0,0l0,0l0,0c-0.5-0.6-0.9-1.3-0.9-2.2c0-0.8,0.3-1.6,0.9-2.2l0,0l0,0l0,0
	C96.8,42.1,97.6,41.8,98.4,41.8L98.4,41.8z M100.1,43.2c-0.4-0.4-1-0.7-1.7-0.7c-0.6,0-1.2,0.3-1.7,0.7l0,0c-0.4,0.4-0.7,1-0.7,1.7
	c0,0.6,0.3,1.2,0.7,1.7l0,0c0.4,0.4,1,0.7,1.7,0.7c0.6,0,1.2-0.3,1.7-0.7l0,0c0.4-0.4,0.7-1,0.7-1.7
	C100.7,44.2,100.5,43.6,100.1,43.2L100.1,43.2z"/>
<circle class="st1" cx="115.3" cy="56.5" r="2.7"/>
<path class="st2" d="M115.3,53.5c0.8,0,1.6,0.3,2.2,0.9l0,0l0,0l0,0c0.5,0.6,0.9,1.3,0.9,2.2c0,0.8-0.3,1.6-0.9,2.2l0,0l0,0l0,0
	c-0.6,0.5-1.3,0.9-2.2,0.9c-0.8,0-1.6-0.3-2.2-0.9l0,0l0,0l0,0c-0.5-0.6-0.9-1.3-0.9-2.2c0-0.8,0.3-1.6,0.9-2.2l0,0l0,0l0,0
	C113.7,53.8,114.5,53.5,115.3,53.5L115.3,53.5z M117,54.9c-0.4-0.4-1-0.7-1.7-0.7c-0.6,0-1.2,0.3-1.7,0.7l0,0
	c-0.4,0.4-0.7,1-0.7,1.7c0,0.6,0.3,1.2,0.7,1.7l0,0c0.4,0.4,1,0.7,1.7,0.7c0.6,0,1.2-0.3,1.7-0.7l0,0c0.4-0.4,0.7-1,0.7-1.7
	C117.7,55.9,117.4,55.3,117,54.9L117,54.9z"/>
<circle class="st1" cx="132.2" cy="32.2" r="2.7"/>
<path class="st2" d="M132.2,29.1c0.8,0,1.6,0.3,2.2,0.9l0,0l0,0l0,0c0.5,0.6,0.9,1.3,0.9,2.2c0,0.8-0.3,1.6-0.9,2.2l0,0l0,0l0,0
	c-0.6,0.5-1.3,0.9-2.2,0.9c-0.8,0-1.6-0.3-2.2-0.9l0,0l0,0l0,0c-0.5-0.6-0.9-1.3-0.9-2.2c0-0.8,0.3-1.6,0.9-2.2l0,0l0,0l0,0
	C130.6,29.5,131.4,29.1,132.2,29.1L132.2,29.1z M133.9,30.5c-0.4-0.4-1-0.7-1.7-0.7c-0.6,0-1.2,0.3-1.7,0.7l0,0
	c-0.4,0.4-0.7,1-0.7,1.7c0,0.6,0.3,1.2,0.7,1.7l0,0c0.4,0.4,1,0.7,1.7,0.7c0.6,0,1.2-0.3,1.7-0.7l0,0c0.4-0.4,0.7-1,0.7-1.7
	C134.6,31.5,134.3,30.9,133.9,30.5L133.9,30.5z"/>
<path class="st1" d="M139.2,13.6h-13.9c-0.6,0-1.1,0.5-1.1,1.1v8.9c0,0.6,0.5,1.1,1.1,1.1h4.4l2.6,7.5l2.6-7.5h4.4
	c0.6,0,1.1-0.5,1.1-1.1v-8.9C140.3,14.1,139.8,13.6,139.2,13.6z"/>
<path class="st2" d="M139.2,14h-13.9c-0.2,0-0.4,0.1-0.5,0.2l0,0c-0.1,0.1-0.2,0.3-0.2,0.5v8.9c0,0.2,0.1,0.4,0.2,0.5l0,0
	c0.1,0.1,0.3,0.2,0.5,0.2h4.4c0.2,0,0.3,0.1,0.3,0.3l2.3,6.5l2.3-6.6c0.1-0.1,0.2-0.2,0.3-0.2h0h4.4c0.2,0,0.4-0.1,0.5-0.2l0,0
	c0.1-0.1,0.2-0.3,0.2-0.5v-8.9c0-0.2-0.1-0.4-0.2-0.5C139.6,14,139.4,14,139.2,14L139.2,14z M125.3,13.2h13.9c0.4,0,0.7,0.2,1,0.4
	c0.3,0.3,0.4,0.6,0.4,1v8.9c0,0.4-0.2,0.7-0.4,1l0,0c-0.3,0.3-0.6,0.4-1,0.4h-4.1l-2.5,7.3c0,0.1-0.1,0.2-0.2,0.2
	c-0.2,0.1-0.4,0-0.5-0.2l-2.5-7.3h-4.1c-0.4,0-0.7-0.2-1-0.4l0,0l0,0c-0.3-0.3-0.4-0.6-0.4-1v-8.9c0-0.4,0.2-0.7,0.4-1l0,0
	C124.5,13.4,124.9,13.2,125.3,13.2z"/>
<polygon class="st3" points="134.3,22.3 136.4,16.2 138.5,22.3 "/>
<polygon class="st5" points="130.1,22.3 132.2,18.9 134.3,22.3 "/>
<polygon class="st3" points="126,22.3 128.1,17.8 130.2,22.3 "/>
<path class="st2" d="M155.3,73.9H184c0.4,0,0.8,0.2,1.1,0.5c0.3,0.3,0.5,0.7,0.5,1.1V96c0,0.2-0.2,0.4-0.4,0.4h0h-31.1
	c-0.2,0-0.4-0.2-0.4-0.4v0V75.4c0-0.4,0.2-0.8,0.5-1.1C154.5,74,154.9,73.9,155.3,73.9L155.3,73.9z M184,74.6h-28.7
	c-0.2,0-0.4,0.1-0.6,0.2c-0.2,0.2-0.2,0.4-0.2,0.6v20.2h30.4V75.4c0-0.2-0.1-0.4-0.2-0.6C184.5,74.7,184.3,74.6,184,74.6z"/>
<path class="st2" d="M155.9,76.2V94h27.5V76.2H155.9L155.9,76.2z M155.2,94.4V75.8v0c0-0.2,0.2-0.4,0.4-0.4h28.2h0
	c0.2,0,0.4,0.2,0.4,0.4v18.5v0c0,0.2-0.2,0.4-0.4,0.4h-28.2h0C155.4,94.7,155.2,94.6,155.2,94.4z"/>
<path class="st2" d="M187.6,96.3h-35.8v0.5c0,0.2,0.1,0.4,0.3,0.6c0.2,0.2,0.5,0.3,0.8,0.3h33.6c0.3,0,0.6-0.1,0.8-0.3
	c0.2-0.1,0.3-0.3,0.3-0.6V96.3L187.6,96.3z M151.4,95.6h36.5h0c0.2,0,0.4,0.2,0.4,0.4v0.8c0,0.4-0.2,0.8-0.6,1.1
	c-0.3,0.3-0.8,0.4-1.3,0.4h-33.6c-0.5,0-0.9-0.2-1.3-0.4c-0.3-0.3-0.6-0.7-0.6-1.1V96v0C151.1,95.8,151.2,95.6,151.4,95.6z"/>
<polygon class="st1" points="146.5,38 162.7,38 169.2,44.5 169.2,70.2 146.5,70.2 "/>
<path class="st2" d="M146.5,37.6L146.5,37.6h16.2c0.1,0,0.2,0,0.3,0.1l6.5,6.5c0.1,0.1,0.1,0.2,0.1,0.3h0v25.7
	c0,0.2-0.2,0.4-0.4,0.4h0h-22.8c-0.2,0-0.4-0.2-0.4-0.4v0V38C146.1,37.8,146.3,37.6,146.5,37.6L146.5,37.6z M162.5,38.4h-15.7v31.5
	h22V44.7L162.5,38.4z"/>
<path class="st2" d="M150.6,64.8c-0.2,0-0.4-0.2-0.4-0.4c0-0.2,0.2-0.4,0.4-0.4h2.6c0.2,0,0.4,0.2,0.4,0.4c0,0.2-0.2,0.4-0.4,0.4
	H150.6L150.6,64.8z M160,66.5c-0.2,0-0.4-0.2-0.4-0.4s0.2-0.4,0.4-0.4h1.9c0.2,0,0.4,0.2,0.4,0.4s-0.2,0.4-0.4,0.4H160L160,66.5z
	 M156,66.5c-0.2,0-0.4-0.2-0.4-0.4s0.2-0.4,0.4-0.4h2.5c0.2,0,0.4,0.2,0.4,0.4s-0.2,0.4-0.4,0.4H156L156,66.5z M153.2,66.5
	c-0.2,0-0.4-0.2-0.4-0.4s0.2-0.4,0.4-0.4h1.3c0.2,0,0.4,0.2,0.4,0.4s-0.2,0.4-0.4,0.4H153.2L153.2,66.5z M161.1,64.8
	c-0.2,0-0.4-0.2-0.4-0.4c0-0.2,0.2-0.4,0.4-0.4h3.9c0.2,0,0.4,0.2,0.4,0.4c0,0.2-0.2,0.4-0.4,0.4H161.1L161.1,64.8z M154.5,64.8
	c-0.2,0-0.4-0.2-0.4-0.4c0-0.2,0.2-0.4,0.4-0.4h5.1c0.2,0,0.4,0.2,0.4,0.4c0,0.2-0.2,0.4-0.4,0.4H154.5z"/>
<path class="st2" d="M169.2,44.2c0.2,0,0.4,0.2,0.4,0.4s-0.2,0.4-0.4,0.4h-6.5c-0.2,0-0.4-0.2-0.4-0.4v0V38c0-0.2,0.2-0.4,0.4-0.4
	c0.2,0,0.4,0.2,0.4,0.4v6.2H169.2z"/>
<rect x="149.7" y="56.6" class="st5" width="2.7" height="4.9"/>
<rect x="154.2" y="50.2" class="st3" width="2.7" height="11.4"/>
<rect x="158.8" y="51.9" class="st5" width="2.7" height="9.7"/>
<rect x="163.3" y="46.7" class="st3" width="2.7" height="14.8"/>
<rect x="158.8" y="46.7" class="st4" width="2.7" height="5.1"/>
<rect x="154.2" y="46.7" class="st4" width="2.7" height="3.4"/>
<rect x="149.7" y="46.7" class="st4" width="2.7" height="9.9"/>
<path class="st3" d="M165.2,80.7h9c0.4,0,0.8,0.3,0.8,0.8V82l-5.3,4l-5.3-4v-0.5C164.4,81.1,164.8,80.7,165.2,80.7L165.2,80.7z
	 M175,82.9l-5,3.8c-0.1,0.1-0.3,0.1-0.5,0l-5-3.9V89c0,0.4,0.3,0.8,0.8,0.8h9c0.4,0,0.8-0.3,0.8-0.8V82.9z"/>
<path class="st5" d="M10.8,41.9c0.7,0,1.2-0.5,1.2-1.2c0-0.7-0.5-1.2-1.2-1.2c-0.7,0-1.2,0.5-1.2,1.2C9.7,41.3,10.2,41.9,10.8,41.9z
	"/>
<path class="st3" d="M203.5,50c-0.3,0-0.5-0.2-0.5-0.5s0.2-0.5,0.5-0.5h3.3c0.3,0,0.5,0.2,0.5,0.5S207,50,206.7,50H203.5z"/>
<path class="st3" d="M204.6,47.8c0-0.3,0.2-0.5,0.5-0.5c0.3,0,0.5,0.2,0.5,0.5v3.3c0,0.3-0.2,0.5-0.5,0.5c-0.3,0-0.5-0.2-0.5-0.5
	V47.8z"/>
<path class="st5" d="M121.3,8.1c0.3-1.2,1.3-2.2,2.5-2.5c-1.2-0.3-2.2-1.3-2.5-2.5c-0.3,1.2-1.3,2.2-2.5,2.5
	C120,5.9,120.9,6.9,121.3,8.1z"/>
<path class="st4" d="M13.3,19.4c-0.2,0-0.4-0.2-0.4-0.4s0.2-0.4,0.4-0.4c0.4,0,0.9-0.4,1.4-0.8c0.6-0.5,1.2-1,1.8-1
	c0.7,0,1.3,0.5,1.8,1c0.5,0.4,1,0.8,1.4,0.8c0.4,0,0.9-0.4,1.4-0.8l0,0c0.6-0.5,1.2-1,1.8-1c0.7,0,1.3,0.5,1.8,1
	c0.5,0.4,1,0.8,1.4,0.8c0.4,0,0.9-0.4,1.4-0.8c0.6-0.5,1.2-1,1.8-1c0.2,0,0.4,0.2,0.4,0.4s-0.2,0.4-0.4,0.4c-0.4,0-0.9,0.4-1.4,0.8
	c-0.6,0.5-1.2,1-1.8,1c-0.7,0-1.3-0.5-1.8-1c-0.5-0.4-1-0.8-1.4-0.8c-0.4,0-0.9,0.4-1.4,0.8l0,0c-0.6,0.5-1.2,1-1.8,1
	c-0.7,0-1.3-0.5-1.8-1c-0.5-0.4-1-0.8-1.4-0.8c-0.4,0-0.9,0.4-1.4,0.8C14.6,18.9,14,19.4,13.3,19.4z"/>
<path class="st4" d="M98.6,1.9c0.2,0,0.4,0.2,0.4,0.4s-0.2,0.4-0.4,0.4h-8.9c-0.2,0-0.4-0.2-0.4-0.4s0.2-0.4,0.4-0.4H98.6L98.6,1.9z
	 M85.4,1.9c0.2,0,0.4,0.2,0.4,0.4s-0.2,0.4-0.4,0.4h-1.8c-0.2,0-0.4-0.2-0.4-0.4s0.2-0.4,0.4-0.4H85.4L85.4,1.9z M82.2,1.9
	c0.2,0,0.4,0.2,0.4,0.4s-0.2,0.4-0.4,0.4h-2.5c-0.2,0-0.4-0.2-0.4-0.4s0.2-0.4,0.4-0.4H82.2z"/>
<path class="st4" d="M87.5,2c-0.1,0-0.2,0-0.2,0.1c-0.1,0.1-0.1,0.1-0.1,0.2c0,0.1,0,0.2,0.1,0.2l0,0c0.1,0.1,0.1,0.1,0.2,0.1
	c0.1,0,0.2,0,0.2-0.1l0,0c0.1-0.1,0.1-0.1,0.1-0.2c0-0.1,0-0.2-0.1-0.2l0,0C87.7,2,87.6,2,87.5,2L87.5,2z M86.8,1.6
	c0.2-0.2,0.4-0.3,0.7-0.3c0.3,0,0.5,0.1,0.7,0.3v0c0.2,0.2,0.3,0.4,0.3,0.7c0,0.3-0.1,0.5-0.3,0.7l0,0c-0.2,0.2-0.4,0.3-0.7,0.3
	c-0.3,0-0.5-0.1-0.7-0.3h0c-0.2-0.2-0.3-0.4-0.3-0.7C86.5,2,86.6,1.8,86.8,1.6z"/>
<path class="st3" d="M144.5,84c-0.3,0-0.5-0.2-0.5-0.5s0.2-0.5,0.5-0.5h3.3c0.3,0,0.5,0.2,0.5,0.5s-0.2,0.5-0.5,0.5H144.5z"/>
<path class="st3" d="M145.7,81.9c0-0.3,0.2-0.5,0.5-0.5c0.3,0,0.5,0.2,0.5,0.5v3.3c0,0.3-0.2,0.5-0.5,0.5c-0.3,0-0.5-0.2-0.5-0.5
	V81.9z"/>
<path class="st9" d="M212.2,38.9c0.2,0,0.4,0.2,0.4,0.4c0,0.2-0.2,0.4-0.4,0.4h-8.9c-0.2,0-0.4-0.2-0.4-0.4c0-0.2,0.2-0.4,0.4-0.4
	H212.2L212.2,38.9z M199.1,38.9c0.2,0,0.4,0.2,0.4,0.4c0,0.2-0.2,0.4-0.4,0.4h-1.8c-0.2,0-0.4-0.2-0.4-0.4c0-0.2,0.2-0.4,0.4-0.4
	H199.1L199.1,38.9z M195.9,38.9c0.2,0,0.4,0.2,0.4,0.4c0,0.2-0.2,0.4-0.4,0.4h-2.5c-0.2,0-0.4-0.2-0.4-0.4c0-0.2,0.2-0.4,0.4-0.4
	H195.9z"/>
<path class="st4" d="M201.2,39c-0.1,0-0.2,0-0.2,0.1l0,0c-0.1,0.1-0.1,0.1-0.1,0.2c0,0.1,0,0.2,0.1,0.2l0,0c0.1,0.1,0.1,0.1,0.2,0.1
	s0.2,0,0.2-0.1l0,0c0.1-0.1,0.1-0.1,0.1-0.2c0-0.1,0-0.2-0.1-0.2l0,0C201.3,39,201.3,39,201.2,39L201.2,39z M200.4,38.6
	c0.2-0.2,0.4-0.3,0.7-0.3c0.3,0,0.5,0.1,0.7,0.3v0c0.2,0.2,0.3,0.4,0.3,0.7c0,0.3-0.1,0.5-0.3,0.7h0c-0.2,0.2-0.4,0.3-0.7,0.3
	s-0.5-0.1-0.7-0.3h0c-0.2-0.2-0.3-0.4-0.3-0.7C200.1,39,200.3,38.7,200.4,38.6L200.4,38.6z"/>
<path class="st4" d="M21.5,82.7c0.2,0,0.4,0.2,0.4,0.4s-0.2,0.4-0.4,0.4h-8.9c-0.2,0-0.4-0.2-0.4-0.4s0.2-0.4,0.4-0.4H21.5
	L21.5,82.7z M8.4,82.7c0.2,0,0.4,0.2,0.4,0.4c0,0.2-0.2,0.4-0.4,0.4H6.6c-0.2,0-0.4-0.2-0.4-0.4c0-0.2,0.2-0.4,0.4-0.4H8.4L8.4,82.7
	z M5.2,82.7c0.2,0,0.4,0.2,0.4,0.4c0,0.2-0.2,0.4-0.4,0.4H2.7c-0.2,0-0.4-0.2-0.4-0.4c0-0.2,0.2-0.4,0.4-0.4H5.2z"/>
<path class="st4" d="M10.5,82.8c-0.1,0-0.2,0-0.2,0.1l0,0c-0.1,0.1-0.1,0.1-0.1,0.2c0,0.1,0,0.2,0.1,0.2l0,0
	c0.1,0.1,0.1,0.1,0.2,0.1c0.1,0,0.2,0,0.2-0.1l0,0c0.1-0.1,0.1-0.1,0.1-0.2c0-0.1,0-0.2-0.1-0.2l0,0C10.7,82.8,10.6,82.8,10.5,82.8
	L10.5,82.8z M9.8,82.3c0.2-0.2,0.4-0.3,0.7-0.3c0.3,0,0.5,0.1,0.7,0.3v0c0.2,0.2,0.3,0.4,0.3,0.7c0,0.3-0.1,0.5-0.3,0.7v0
	c-0.2,0.2-0.4,0.3-0.7,0.3c-0.3,0-0.5-0.1-0.7-0.3h0c-0.2-0.2-0.3-0.4-0.3-0.7C9.5,82.8,9.6,82.5,9.8,82.3L9.8,82.3z"/>
<circle class="st3" cx="44.9" cy="8.9" r="0.9"/>
<path class="st3" d="M6.4,76.6c-0.3,0-0.5-0.2-0.5-0.5s0.2-0.5,0.5-0.5h3.3c0.3,0,0.5,0.2,0.5,0.5s-0.2,0.5-0.5,0.5H6.4z"/>
<path class="st3" d="M7.5,74.5C7.5,74.2,7.7,74,8,74s0.5,0.2,0.5,0.5v3.3c0,0.3-0.2,0.5-0.5,0.5S7.5,78,7.5,77.7V74.5z"/>
<path class="st4" d="M160.4,9c-0.2,0-0.4-0.2-0.4-0.4s0.2-0.4,0.4-0.4c0.4,0,0.9-0.4,1.4-0.8c0.6-0.5,1.2-1,1.8-1
	c0.7,0,1.3,0.5,1.8,1c0.5,0.4,1,0.8,1.4,0.8c0.4,0,0.9-0.4,1.4-0.8l0,0c0.6-0.5,1.2-1,1.8-1c0.7,0,1.3,0.5,1.8,1
	c0.5,0.4,1,0.8,1.4,0.8c0.4,0,0.9-0.4,1.4-0.8c0.6-0.5,1.2-1,1.8-1c0.2,0,0.4,0.2,0.4,0.4s-0.2,0.4-0.4,0.4c-0.4,0-0.9,0.4-1.4,0.8
	c-0.6,0.5-1.2,1-1.8,1c-0.7,0-1.3-0.5-1.8-1c-0.5-0.4-1-0.8-1.4-0.8c-0.4,0-0.9,0.4-1.4,0.8l0,0l0,0c-0.6,0.5-1.2,1-1.8,1
	c-0.7,0-1.3-0.5-1.8-1c-0.5-0.4-1-0.8-1.4-0.8s-0.9,0.4-1.4,0.8C161.6,8.5,161,9,160.4,9z"/>
<path class="st3" d="M211.1,71.5c-0.7-1.7-2.5-2.5-4.2-1.8c-1.7,0.7-2.5,2.5-1.8,4.2c0.7,1.7,2.5,2.5,4.2,1.8
	C210.9,75.1,211.8,73.2,211.1,71.5L211.1,71.5z M208.1,71.4c0.7,0,1.3,0.6,1.3,1.3c0,0.7-0.6,1.3-1.3,1.3c-0.7,0-1.3-0.6-1.3-1.3
	C206.8,72,207.4,71.4,208.1,71.4L208.1,71.4z M209.3,66L209.3,66L209.3,66l0.2,1.9c0.5,0.1,0.9,0.4,1.4,0.6l1.6-1.1l1.2,1.3l0,0
	l-1.2,1.5c0.1,0.2,0.2,0.4,0.3,0.5c0.1,0.3,0.2,0.6,0.3,0.9l1.9,0.4l0,0l0,0l0,0l0,0.9l0,0.9h0l0,0l-1.9,0.2
	c-0.1,0.5-0.4,0.9-0.6,1.4l1.1,1.6l-1.3,1.2l0,0l-1.5-1.2c-0.2,0.1-0.4,0.2-0.5,0.3c-0.3,0.1-0.6,0.2-0.9,0.3l-0.4,1.9l0,0l0,0v0
	l-0.9,0l-0.9,0v0l0,0l-0.2-1.9c-0.5-0.1-0.9-0.4-1.4-0.6l-1.6,1.1l-1.2-1.3l0,0l1.2-1.5c-0.1-0.2-0.2-0.4-0.3-0.5
	c-0.1-0.3-0.2-0.6-0.3-0.9l-1.9-0.4h0v0h0l0-0.9l0-0.9h0v0l1.9-0.2c0.1-0.5,0.4-0.9,0.6-1.4l-1.1-1.6l1.3-1.2l0,0l1.5,1.2
	c0.2-0.1,0.4-0.2,0.5-0.3c0.3-0.1,0.6-0.2,0.9-0.3l0.4-1.9v0l0,0l0,0l0.9,0L209.3,66z"/>
<circle class="st3" cx="115.3" cy="43.4" r="0.9"/>
<path class="st2" d="M190.8,97.6h15.4l-1.1-5.9l-3.2-1.5l-3.1,3.3c-0.1,0.1-0.4,0.2-0.5,0l0,0l-3.1-3.3l-3.2,1.5L190.8,97.6
	L190.8,97.6z M206.6,98.3h-16.2v0c0,0,0,0-0.1,0c-0.2,0-0.3-0.2-0.3-0.4l1.2-6.5c0-0.1,0.1-0.2,0.2-0.3l3.6-1.6
	c0.1-0.1,0.3,0,0.4,0.1l3,3.2l3-3.2c0.1-0.1,0.3-0.2,0.4-0.1l3.6,1.6l0,0c0.1,0,0.2,0.1,0.2,0.3l1.2,6.5c0,0,0,0.1,0,0.1
	C207,98.2,206.8,98.3,206.6,98.3z"/>
<path class="st2" d="M198.5,80.5c1.2,0,2.2,0.5,3,1.3c0.7,0.8,1.2,1.9,1.2,3.3c0,1.4-0.5,2.8-1.2,3.8c-0.7,1-1.8,1.7-2.9,1.7
	s-2.2-0.7-2.9-1.7c-0.8-1-1.2-2.4-1.2-3.8c0-1.4,0.4-2.5,1.2-3.3C196.2,81,197.3,80.5,198.5,80.5L198.5,80.5z M201,82.3
	c-0.6-0.7-1.5-1.1-2.5-1.1c-1,0-1.8,0.4-2.5,1.1c-0.6,0.7-1,1.6-1,2.8c0,1.2,0.4,2.5,1.1,3.4c0.6,0.8,1.4,1.4,2.4,1.4
	c0.9,0,1.7-0.5,2.4-1.4c0.7-0.9,1.1-2.1,1.1-3.4C201.9,83.9,201.6,83,201,82.3z"/>
<path class="st2" d="M193.5,98c0,0.2-0.2,0.3-0.4,0.3c-0.2,0-0.3-0.2-0.3-0.4l0.6-3.4c0-0.2,0.2-0.3,0.4-0.3c0.2,0,0.3,0.2,0.3,0.4
	L193.5,98L193.5,98z M204.2,97.9c0,0.2-0.1,0.4-0.3,0.4c-0.2,0-0.4-0.1-0.4-0.3l-0.6-3.4c0-0.2,0.1-0.4,0.3-0.4
	c0.2,0,0.4,0.1,0.4,0.3L204.2,97.9z"/>
<g>
	<path class="st4" d="M157.5,22.1c-0.3-0.7-0.8-1.3-1.5-1.6c-0.7-0.3-1.5-0.3-2.2,0l0,0c-0.7,0.3-1.3,0.8-1.6,1.5
		c-0.3,0.7-0.3,1.5,0,2.2l0,0h0c0.3,0.7,0.8,1.3,1.5,1.6c0.7,0.3,1.5,0.3,2.2,0l0,0v0c0.7-0.3,1.3-0.9,1.6-1.5
		C157.8,23.6,157.8,22.9,157.5,22.1L157.5,22.1z M156.3,19.9c0.8,0.4,1.5,1.1,1.9,2c0.4,0.9,0.3,1.9,0,2.7c-0.4,0.8-1,1.5-2,1.9l0,0
		c-0.9,0.4-1.9,0.3-2.7,0c-0.8-0.4-1.5-1-1.9-2l0,0c-0.4-0.9-0.3-1.9,0-2.7c0.4-0.8,1-1.5,2-1.9l0,0
		C154.5,19.5,155.5,19.5,156.3,19.9L156.3,19.9z M154.9,21.5c0.5,0,0.9,0.2,1.2,0.5l0,0c0.3,0.3,0.5,0.7,0.5,1.1
		c0,0.5-0.2,0.9-0.5,1.2l0,0c-0.3,0.3-0.7,0.5-1.1,0.5c-0.5,0-0.9-0.2-1.2-0.5l0,0c-0.3-0.3-0.5-0.7-0.5-1.2c0-0.5,0.2-0.9,0.5-1.2
		C154,21.7,154.4,21.5,154.9,21.5L154.9,21.5z M155.5,22.5L155.5,22.5c0.2,0.2,0.3,0.4,0.3,0.7c0,0.3-0.1,0.5-0.3,0.6l0,0
		c-0.2,0.2-0.4,0.3-0.6,0.3c-0.3,0-0.5-0.1-0.6-0.3l0,0l0,0c-0.2-0.2-0.3-0.4-0.3-0.7c0-0.3,0.1-0.5,0.3-0.6
		c0.2-0.2,0.4-0.3,0.7-0.3C155.1,22.2,155.4,22.3,155.5,22.5L155.5,22.5z M156.2,16.1c0.2,0,0.3,0.2,0.3,0.3l0.2,1.7
		c0.2,0.1,0.4,0.1,0.5,0.2l0,0l0,0c0.2,0.1,0.3,0.2,0.5,0.3l1.4-0.9c0.2-0.1,0.4-0.1,0.5,0.1l1.2,1.3l0,0l0,0c0.1,0.1,0.1,0.3,0,0.5
		l0,0l-1.1,1.3l0,0.1l0,0l0,0c0,0.1,0.1,0.2,0.1,0.3l0,0c0.1,0.1,0.1,0.3,0.2,0.5c0,0.1,0,0.2,0.1,0.2l1.6,0.3c0.1,0,0.1,0,0.2,0.1
		l0,0l0,0l0,0l0,0c0.1,0.1,0.1,0.2,0.1,0.2l0,0.9l0,0.9c0,0,0,0,0,0.1c0,0.2-0.2,0.3-0.3,0.3l-1.7,0.2c-0.1,0.2-0.1,0.4-0.2,0.5l0,0
		c-0.1,0.2-0.2,0.3-0.3,0.5l0.9,1.4c0.1,0.2,0.1,0.4-0.1,0.5L159,29l0,0l0,0l0,0c-0.1,0.1-0.3,0.1-0.5,0l-1.3-1l-0.1,0l0,0
		c-0.1,0-0.2,0.1-0.3,0.1l0,0c-0.1,0.1-0.3,0.1-0.4,0.2v0c-0.1,0-0.2,0-0.2,0.1l-0.3,1.6l0,0l0,0l0,0l0,0l0,0c0,0.2-0.2,0.3-0.3,0.3
		c0,0,0,0,0,0l-0.9,0l-0.9,0c-0.1,0-0.1,0-0.2-0.1l0,0l0,0c-0.1-0.1-0.1-0.2-0.2-0.3h0l-0.2-1.7c-0.2-0.1-0.4-0.1-0.5-0.2l0,0l0,0
		c-0.2-0.1-0.3-0.2-0.5-0.3l-1.4,0.9c-0.2,0.1-0.4,0.1-0.5-0.1l-1.2-1.3l0,0c-0.1-0.1-0.1-0.3,0-0.5l0,0l1.1-1.3l0-0.1l0,0l0,0
		c0-0.1-0.1-0.2-0.1-0.3l0,0c-0.1-0.1-0.1-0.3-0.2-0.5c0-0.1,0-0.2-0.1-0.2l-1.6-0.3c-0.1,0-0.1,0-0.1,0c-0.1-0.1-0.2-0.2-0.2-0.3
		L156.2,16.1L156.2,16.1z M155.9,18.4c0,0.2,0.1,0.3,0.3,0.3c0.2,0.1,0.4,0.1,0.6,0.2l0,0c0.2,0.1,0.4,0.2,0.6,0.3
		c0.1,0.1,0.3,0.1,0.4,0l0,0l1.4-0.9l0.8,0.9l-1,1.3c-0.1,0.1-0.1,0.3,0,0.4c0,0.1,0.1,0.2,0.1,0.2l0,0c0,0.1,0.1,0.2,0.1,0.3l0,0
		l0,0c0.1,0.1,0.1,0.3,0.1,0.4c0,0.1,0.1,0.3,0.1,0.4c0,0.2,0.2,0.3,0.3,0.3l1.6,0.3l0,0.6l0,0.6l-1.6,0.2c-0.2,0-0.3,0.1-0.3,0.3
		c-0.1,0.2-0.1,0.4-0.2,0.6l0,0c-0.1,0.2-0.2,0.4-0.3,0.6c-0.1,0.1-0.1,0.3,0,0.4l0,0l0.9,1.4l-0.9,0.8l-1.3-1
		c-0.1-0.1-0.3-0.1-0.4,0c-0.1,0-0.2,0.1-0.2,0.1l0,0c-0.1,0-0.1,0.1-0.2,0.1l0,0c-0.1,0.1-0.3,0.1-0.4,0.1l0,0v0
		c-0.1,0-0.3,0.1-0.4,0.1c-0.2,0-0.3,0.2-0.3,0.3l-0.3,1.6l-0.6,0l-0.6,0l-0.2-1.6c0-0.2-0.1-0.3-0.3-0.3c-0.2-0.1-0.4-0.1-0.6-0.2
		l0,0c-0.2-0.1-0.4-0.2-0.6-0.3c-0.1-0.1-0.3-0.1-0.4,0l0,0l-1.4,0.9l-0.8-0.9l1-1.3c0.1-0.1,0.1-0.3,0-0.4c0-0.1-0.1-0.2-0.1-0.2
		l0,0c0-0.1-0.1-0.2-0.1-0.3l0,0l0,0c-0.1-0.1-0.1-0.3-0.1-0.4c0-0.1-0.1-0.3-0.1-0.4c0-0.2-0.2-0.3-0.3-0.3l-1.6-0.3l0-0.6v0l0-0.6
		l1.6-0.2c0.1,0,0.3-0.1,0.3-0.3c0.1-0.2,0.2-0.4,0.3-0.7c0.1-0.2,0.2-0.4,0.3-0.6c0.1-0.1,0.1-0.3,0-0.4l0,0l-0.9-1.4L151,18l1.3,1
		c0.1,0.1,0.3,0.1,0.4,0l0,0c0.1-0.1,0.2-0.1,0.2-0.1c0.1,0,0.2-0.1,0.3-0.1l0,0l0,0c0.1-0.1,0.3-0.1,0.4-0.1c0.1,0,0.3-0.1,0.4-0.1
		c0.2,0,0.3-0.2,0.3-0.3l0.3-1.6l0.6,0h0l0.6,0L155.9,18.4L155.9,18.4z M162,22.6l0,0.1C162,22.7,162,22.7,162,22.6L162,22.6z
		 M147.7,23.7C147.7,23.7,147.7,23.7,147.7,23.7l0-0.9l0,0l0-0.9c0,0,0-0.1,0-0.1c0-0.2,0.2-0.3,0.3-0.3l1.7-0.2
		c0.1-0.2,0.1-0.4,0.2-0.5c0.1-0.2,0.2-0.3,0.3-0.5l-0.9-1.4c-0.1-0.2-0.1-0.4,0.1-0.5l1.3-1.1c0.1-0.1,0.4-0.2,0.5,0l1.3,1.1l0.1,0
		c0.1,0,0.2-0.1,0.3-0.1l0,0c0.1-0.1,0.3-0.1,0.5-0.2c0.1,0,0.2,0,0.2-0.1l0.3-1.6c0,0,0,0,0-0.1l0,0l0,0c0.1-0.2,0.2-0.2,0.4-0.2
		l0.9,0l0,0l0.9,0c0,0,0.1,0,0.1,0L147.7,23.7L147.7,23.7z M148.5,22.9L148.5,22.9L148.5,22.9L148.5,22.9z M155.2,16.8L155.2,16.8
		L155.2,16.8z"/>
</g>
</svg>
