<?xml version="1.0" encoding="utf-8"?>
<!-- Generator: Adobe Illustrator 22.1.0, SVG Export Plug-In . SVG Version: 6.00 Build 0)  -->
<svg version="1.1" id="Layer_1" xmlns="http://www.w3.org/2000/svg" xmlns:xlink="http://www.w3.org/1999/xlink" x="0px" y="0px"
	 viewBox="0 0 100 56" style="enable-background:new 0 0 100 56;" xml:space="preserve">
<style type="text/css">
	.st0{display:none;fill-rule:evenodd;clip-rule:evenodd;fill:#1E86D5;}
	.st1{display:none;fill-rule:evenodd;clip-rule:evenodd;fill:#404D61;}
	.st2{fill-rule:evenodd;clip-rule:evenodd;fill:#B8C7D6;}
	.st3{fill:#F5F5F7;stroke:#404D61;stroke-width:1.5;stroke-linecap:round;stroke-linejoin:round;stroke-miterlimit:10;}
	.st4{fill:#1F87D6;}
</style>
<rect x="20.1" y="48.2" class="st0" width="8.7" height="21.3"/>
<rect x="37" y="33.6" class="st0" width="8.7" height="35.9"/>
<rect x="53.9" y="39.3" class="st0" width="8.7" height="30.1"/>
<rect x="70.8" y="20.2" class="st0" width="8.7" height="49.3"/>
<path class="st1" d="M18.8,69.1h9.6v-22h-9.6V69.1L18.8,69.1z M28.7,69.8H18.4h0c-0.2,0-0.4-0.2-0.4-0.4V46.7v0
	c0-0.2,0.2-0.4,0.4-0.4h10.3h0c0.2,0,0.4,0.2,0.4,0.4v22.7v0C29.1,69.7,28.9,69.8,28.7,69.8z"/>
<path class="st1" d="M35.7,69.1h9.6V32.5h-9.6V69.1L35.7,69.1z M45.7,69.8H35.3h0c-0.2,0-0.4-0.2-0.4-0.4V32.1v0
	c0-0.2,0.2-0.4,0.4-0.4h10.3h0c0.2,0,0.4,0.2,0.4,0.4v37.4v0C46,69.7,45.9,69.8,45.7,69.8z"/>
<path class="st1" d="M52.6,69.1h9.6V38.2h-9.6V69.1L52.6,69.1z M62.6,69.8H52.3h0c-0.2,0-0.4-0.2-0.4-0.4V37.9v0
	c0-0.2,0.2-0.4,0.4-0.4h10.3h0c0.2,0,0.4,0.2,0.4,0.4v31.6v0C62.9,69.7,62.8,69.8,62.6,69.8z"/>
<path class="st1" d="M69.5,69.1h9.6V19h-9.6V69.1L69.5,69.1z M79.5,69.8H69.2h0c-0.2,0-0.4-0.2-0.4-0.4V18.7v0
	c0-0.2,0.2-0.4,0.4-0.4h10.3h0c0.2,0,0.4,0.2,0.4,0.4v50.8v0C79.8,69.7,79.7,69.8,79.5,69.8z"/>
<path class="st1" d="M35.3,42.6L35.3,42.6h10.3c0.2,0,0.4,0.2,0.4,0.4v0v9.4c0,0.2-0.2,0.4-0.4,0.4h0H35.3c-0.2,0-0.4-0.2-0.4-0.4v0
	v-9.4C35,42.7,35.1,42.6,35.3,42.6L35.3,42.6z M45.3,43.3h-9.6V52h9.6V43.3z"/>
<path class="st1" d="M52.2,46.4L52.2,46.4h10.3c0.2,0,0.4,0.2,0.4,0.4v0v4.7c0,0.2-0.2,0.4-0.4,0.4h0H52.2c-0.2,0-0.4-0.2-0.4-0.4v0
	v-4.7C51.9,46.6,52,46.4,52.2,46.4L52.2,46.4z M62.2,47.1h-9.6v4h9.6V47.1z"/>
<path class="st1" d="M69.2,24.9L69.2,24.9h10.3c0.2,0,0.4,0.2,0.4,0.4v0v8.1c0,0.2-0.2,0.4-0.4,0.4h0H69.2c-0.2,0-0.4-0.2-0.4-0.4v0
	v-8.1C68.8,25,69,24.9,69.2,24.9L69.2,24.9z M79.1,25.6h-9.6V33h9.6V25.6z"/>
<path class="st1" d="M69.2,39.6L69.2,39.6h10.3c0.2,0,0.4,0.2,0.4,0.4v0v8.1c0,0.2-0.2,0.4-0.4,0.4h0H69.2c-0.2,0-0.4-0.2-0.4-0.4v0
	V40C68.8,39.8,69,39.6,69.2,39.6L69.2,39.6z M79.1,40.4h-9.6v7.4h9.6V40.4z"/>
<path class="st2" d="M0.9,28.9c-0.2,0-0.4-0.2-0.4-0.4s0.2-0.4,0.4-0.4c0.4,0,0.9-0.4,1.4-0.8c0.6-0.5,1.2-1,1.8-1
	c0.7,0,1.3,0.5,1.8,1c0.5,0.4,1,0.8,1.4,0.8c0.4,0,0.9-0.4,1.4-0.8l0,0c0.6-0.5,1.2-1,1.8-1c0.7,0,1.3,0.5,1.8,1
	c0.5,0.4,1,0.8,1.4,0.8c0.4,0,0.9-0.4,1.4-0.8c0.6-0.5,1.2-1,1.8-1c0.2,0,0.4,0.2,0.4,0.4s-0.2,0.4-0.4,0.4c-0.4,0-0.9,0.4-1.4,0.8
	c-0.6,0.5-1.2,1-1.8,1c-0.7,0-1.3-0.5-1.8-1c-0.5-0.4-1-0.8-1.4-0.8c-0.4,0-0.9,0.4-1.4,0.8l0,0c-0.6,0.5-1.2,1-1.8,1
	c-0.7,0-1.3-0.5-1.8-1c-0.5-0.4-1-0.8-1.4-0.8c-0.4,0-0.9,0.4-1.4,0.8C2.2,28.4,1.6,28.9,0.9,28.9z"/>
<path class="st2" d="M82.9,28.9c-0.2,0-0.4-0.2-0.4-0.4s0.2-0.4,0.4-0.4c0.4,0,0.9-0.4,1.4-0.8c0.6-0.5,1.2-1,1.8-1
	c0.7,0,1.3,0.5,1.8,1c0.5,0.4,1,0.8,1.4,0.8c0.4,0,0.9-0.4,1.4-0.8l0,0c0.6-0.5,1.2-1,1.8-1c0.7,0,1.3,0.5,1.8,1
	c0.5,0.4,1,0.8,1.4,0.8c0.4,0,0.9-0.4,1.4-0.8c0.6-0.5,1.2-1,1.8-1c0.2,0,0.4,0.2,0.4,0.4s-0.2,0.4-0.4,0.4c-0.4,0-0.9,0.4-1.4,0.8
	c-0.6,0.5-1.2,1-1.8,1c-0.7,0-1.3-0.5-1.8-1c-0.5-0.4-1-0.8-1.4-0.8c-0.4,0-0.9,0.4-1.4,0.8l0,0c-0.6,0.5-1.2,1-1.8,1
	c-0.7,0-1.3-0.5-1.8-1c-0.5-0.4-1-0.8-1.4-0.8c-0.4,0-0.9,0.4-1.4,0.8C84.2,28.4,83.6,28.9,82.9,28.9z"/>
<path class="st3" d="M50,1c9.5,6.8,21,4,21,4s1.5,16.5-0.5,23.5s-6,17-21,26c-15-9-19-19-21-26S28,5,28,5s11.5,2.8,21-4H50z"/>
<path class="st4" d="M-49.4,38.1c-0.1-0.1-0.2-0.2-0.3-0.2s-0.2-0.1-0.4-0.2s-0.2-0.1-0.3-0.1c-0.1,0-0.2,0-0.3,0.1
	s-0.1,0.1-0.1,0.2s-0.1,0.2-0.1,0.3s0,0.2,0,0.3c-0.2,1-0.4,2-0.6,2.9s-0.4,1.9-0.6,2.9c-0.2,1-0.4,1.9-0.6,2.9s-0.4,1.9-0.6,2.9
	c-0.1,0.2-2.6-1.4-2.8-1.4s-0.2-0.1-0.3-0.1c0,0,0,0-0.1,0c0,0,0,0,0,0c-0.1,0-0.2,0-0.3,0.1c-0.1,0-0.2,0.1-0.3,0.2
	c-0.1,0.1-1.4,8.4-1.6,9.3s-0.4,1.9-0.6,2.9c-0.1,0.2-0.1,0.5-0.2,0.7s-0.1,0.4-0.1,0.7c0,0.1,0,0.2,0.1,0.3s0.1,0.2,0.2,0.3
	s0.2,0.1,0.3,0.2s0.2,0.1,0.3,0.1c0.1,0,0.1,0,0.2,0c0,0,0.1-0.1,0.1-0.1C-58.3,63-55,53-55,53c0.1-0.5,2,1.2,3,1s2.3-13.5,2.4-14
	s0.2-0.9,0.3-1.4c0,0,0-0.1,0-0.1s0-0.1,0-0.1C-49.3,38.3-49.3,38.2-49.4,38.1z"/>
<path d="M-18,80"/>
<g>
	<path class="st4" d="M52.7,25.2c0.4,0,0.7,0.2,0.9,0.5s0.2,0.7,0,1l-5.4,12.8C48,39.8,47.7,40,47.3,40c-0.3,0-0.6-0.1-0.8-0.4
		c-0.2-0.3-0.3-0.5-0.2-0.9l1.9-9.2h-2c-0.3,0-0.6-0.1-0.8-0.3c-0.2-0.2-0.3-0.5-0.3-0.8l2.3-10.1c0-0.3,0.1-0.5,0.3-0.6
		s0.4-0.3,0.7-0.3h2.7c0.3,0,0.6,0.1,0.8,0.4s0.3,0.6,0.2,0.9l-2.4,6.5H52.7z"/>
</g>
</svg>
