<?xml version="1.0" encoding="utf-8"?>
<!-- Generator: Adobe Illustrator 22.1.0, SVG Export Plug-In . SVG Version: 6.00 Build 0)  -->
<svg version="1.1" id="Layer_1" xmlns="http://www.w3.org/2000/svg" xmlns:xlink="http://www.w3.org/1999/xlink" x="0px" y="0px"
	 viewBox="0 0 1737.9 582.1" style="enable-background:new 0 0 1737.9 582.1;" xml:space="preserve">
<style type="text/css">
	.st0{fill:none;stroke:#89B3CB;stroke-miterlimit:10;}
	.st1{fill:#F5F5F7;}
</style>
<g>
	<path class="st0" d="M31.7-18.9"/>
	<path class="st0" d="M32.4-18.8"/>
</g>
<g>
	<path class="st1" d="M12.3,544.1"/>
	<path class="st1" d="M13,544.2"/>
	<polyline class="st1" points="289.8,5.1 271.8,36.5 253.6,5.1 235.6,36.5 217.4,5.1 199.3,36.5 181.1,5.1 163.1,36.5 144.9,5.1 
		126.9,36.5 108.7,5.1 90.7,36.5 72.5,5.1 54.4,36.5 36.2,5.1 18.2,36.5 0,5.2 0,544.2 18.2,575.5 36.2,544.1 54.4,575.5 
		72.5,544.1 90.7,575.5 108.7,544.1 126.9,575.5 144.9,544.1 163.1,575.5 181.1,544.1 199.3,575.5 217.4,544.1 235.6,575.5 
		253.6,544.1 271.8,575.5 289.8,544.1 308,575.5 326,544.1 344.2,575.5 362.3,544.1 380.5,575.5 398.5,544.1 416.7,575.5 
		434.7,544.1 452.9,575.5 471,544.1 489.1,575.5 507.2,544.1 525.4,575.5 543.4,544.1 561.6,575.5 579.6,544.1 597.8,575.5 
		615.9,544.1 634.1,575.5 652.1,544.1 670.3,575.5 688.3,544.1 706.5,575.5 724.5,544.2 742.7,575.5 760.8,544.1 779,575.5 
		797,544.1 815.2,575.5 833.2,544.1 851.4,575.5 869.4,544.1 887.6,575.5 905.7,544.1 923.9,575.5 941.9,544.1 960.1,575.5 
		978.1,544.1 996.3,575.5 1014.4,544.1 1032.6,575.5 1050.6,544.1 1068.8,575.5 1086.8,544.1 1105,575.5 1123,544.1 1141.2,575.5 
		1159.3,544.1 1177.5,575.5 1195.5,544.1 1213.7,575.5 1231.7,544.1 1249.9,575.5 1267.9,544.1 1286.1,575.5 1304.2,544.1 
		1322.4,575.5 1340.4,544.1 1358.6,575.5 1376.6,544.1 1394.8,575.5 1412.9,544.1 1431.1,575.5 1449.1,544.2 1467.3,575.5 
		1485.3,544.1 1503.5,575.5 1521.5,544.1 1539.7,575.5 1557.8,544.1 1576,575.5 1594,544.1 1612.2,575.5 1630.2,544.1 1648.4,575.5 
		1666.4,544.1 1684.6,575.5 1702.7,544.1 1720.9,575.5 1738.9,544.1 1738.9,5.1 1720.9,36.5 1702.7,5.1 1684.6,36.5 1666.4,5.1 
		1648.4,36.5 1630.2,5.1 1612.2,36.5 1594,5.1 1576,36.5 1557.8,5.1 1539.7,36.5 1521.5,5.1 1503.5,36.5 1485.3,5.1 1467.3,36.5 
		1449.1,5.2 1431.1,36.5 1412.9,5.1 1394.8,36.5 1376.6,5.1 1358.6,36.5 1340.4,5.1 1322.4,36.5 1304.2,5.1 1286.1,36.5 1267.9,5.1 
		1249.9,36.5 1231.7,5.1 1213.7,36.5 1195.5,5.1 1177.5,36.5 1159.3,5.1 1141.2,36.5 1123,5.1 1105,36.5 1086.8,5.1 1068.8,36.5 
		1050.6,5.1 1032.6,36.5 1014.4,5.1 996.3,36.5 978.1,5.1 960.1,36.5 941.9,5.1 923.9,36.5 905.7,5.1 887.6,36.5 869.4,5.1 
		851.4,36.5 833.2,5.1 815.2,36.5 797,5.1 779,36.5 760.8,5.1 742.7,36.5 724.5,5.2 706.5,36.5 688.3,5.1 670.3,36.5 652.1,5.1 
		634.1,36.5 615.9,5.1 597.8,36.5 579.6,5.1 561.6,36.5 543.4,5.1 525.4,36.5 507.2,5.1 489.1,36.5 471,5.1 452.9,36.5 434.7,5.1 
		416.7,36.5 398.5,5.1 380.5,36.5 362.3,5.1 344.2,36.5 326,5.1 308,36.5 289.8,5.2 	"/>
</g>
</svg>
