<?xml version="1.0" encoding="utf-8"?>
<!-- Generator: Adobe Illustrator 22.1.0, SVG Export Plug-In . SVG Version: 6.00 Build 0)  -->
<svg version="1.1" id="Layer_1" xmlns="http://www.w3.org/2000/svg" xmlns:xlink="http://www.w3.org/1999/xlink" x="0px" y="0px"
	 viewBox="0 0 122 58.2" style="enable-background:new 0 0 122 58.2;" xml:space="preserve">
<style type="text/css">
	.st0{fill:#1D1D1B;}
	.st1{fill:#3386F7;}
	.st2{fill:#FFFFFF;}
	.st3{fill:#1D4D8F;}
	.st4{fill:#1B8F8C;}
	.st5{fill:#1B8F8C;stroke:#1B8F8C;stroke-width:0.25;stroke-miterlimit:10;}
	.st6{fill:#1D4D8F;stroke:#1D4D8F;stroke-width:0.25;stroke-miterlimit:10;}
	.st7{fill:#1C4D8F;}
</style>
<path class="st3" d="M61.3,3.5c0,0-0.2,0-0.7,0c-0.1,0-0.2,0-0.4,0c-0.1,0-0.3,0-0.4,0c-0.1,0-0.3,0-0.5,0.1c0,0-0.1,0-0.1,0
	c0,0-0.1,0-0.1,0c-0.1,0-0.2,0-0.3,0c-0.2,0-0.4,0.1-0.6,0.1c-0.2,0-0.4,0.1-0.6,0.2c-0.4,0.1-0.8,0.3-1.2,0.4
	c-0.8,0.3-1.7,0.8-2.5,1.3c-0.1,0.1-0.2,0.1-0.3,0.2C53.5,6,53.4,6,53.3,6.1c-0.1,0.1-0.2,0.1-0.3,0.2c-0.1,0.1-0.2,0.1-0.3,0.2
	c-0.1,0.1-0.2,0.1-0.3,0.2c-0.1,0.1-0.2,0.1-0.3,0.2c-0.2,0.2-0.3,0.3-0.5,0.5c-0.6,0.6-1.2,1.3-1.6,1.9c-0.1,0.1-0.2,0.3-0.3,0.4
	c-0.1,0.1-0.2,0.3-0.2,0.4c-0.1,0.1-0.1,0.2-0.2,0.3c0,0,0,0-0.1,0c-0.1,0-0.2,0-0.4,0h0c0,0-0.1,0-0.2,0c-0.1,0-0.3,0-0.5,0
	c-0.4,0-1.1,0.1-1.8,0.3c-0.7,0.2-1.6,0.5-2.4,0.9c-0.4,0.2-0.8,0.5-1.2,0.8c-0.4,0.3-0.8,0.6-1.1,1c-0.4,0.4-0.7,0.7-1,1.1
	c-0.3,0.4-0.6,0.8-0.8,1.2c-0.5,0.8-0.8,1.7-0.9,2.4c-0.2,0.7-0.3,1.4-0.3,1.8c0,0.2,0,0.4,0,0.5c0,0.1,0,0.2,0,0.2v0
	c0,0,0,0.1,0,0.2c0,0.1,0,0.3,0,0.5c0,0.4,0.1,1.1,0.3,1.8c0.2,0.7,0.5,1.6,0.9,2.4c0.2,0.4,0.5,0.8,0.8,1.2c0.3,0.4,0.6,0.8,1,1.1
	c0.4,0.4,0.7,0.7,1.1,1c0.4,0.3,0.8,0.6,1.2,0.8c0.8,0.5,1.7,0.8,2.4,0.9c0.7,0.2,1.4,0.3,1.8,0.3c0.2,0,0.4,0,0.5,0
	c0.1,0,0.2,0,0.2,0h0c0,0,0.1,0,0.3,0c0,0,0.1,0,0.2,0c0.1,0,0.1,0,0.2,0c0.1,0,0.3,0,0.4,0c0.1,0,0.2,0,0.2,0c0.1,0,0.2,0,0.3,0
	c0.2,0,0.4-0.1,0.6-0.1c0.4-0.1,0.8-0.2,1.2-0.3c0.4-0.1,0.8-0.3,1.1-0.4c0.3-0.2,0.7-0.3,0.9-0.5c0.1-0.1,0.2-0.1,0.4-0.2
	c0.1,0,0.1-0.1,0.1-0.1c0,0,0.1-0.1,0.1-0.1c0.2-0.1,0.3-0.2,0.3-0.2l0,0l4-2.7l11.7-7.9l0,0c0,0,0,0,0.1-0.1c0,0,0.1,0,0.1-0.1
	c0,0,0.1-0.1,0.2-0.1c0.2-0.1,0.6-0.3,0.9-0.4c0.2-0.1,0.4-0.1,0.5-0.1c0.2,0,0.3-0.1,0.5-0.1c0.1,0,0.1,0,0.2,0c0.1,0,0.1,0,0.1,0
	c0.1,0,0.1,0,0.1,0h0c0,0,0,0,0.1,0c0.1,0,0.2,0,0.3,0c0.2,0,0.5,0.1,0.9,0.1c0.4,0.1,0.8,0.2,1.2,0.5c0.2,0.1,0.4,0.3,0.6,0.4
	c0.2,0.2,0.4,0.3,0.6,0.5c0.2,0.2,0.3,0.4,0.5,0.6c0.2,0.2,0.3,0.4,0.4,0.6c0.2,0.4,0.4,0.8,0.5,1.2c0.1,0.4,0.1,0.7,0.1,0.9
	c0,0.1,0,0.2,0,0.3c0,0.1,0,0.1,0,0.1v0c0,0,0,0,0,0.1c0,0.1,0,0.1,0,0.3c0,0.2-0.1,0.5-0.1,0.9c-0.1,0.4-0.2,0.8-0.5,1.2
	c-0.1,0.2-0.2,0.4-0.4,0.6c-0.2,0.2-0.3,0.4-0.5,0.6c-0.2,0.2-0.4,0.3-0.6,0.5c-0.2,0.2-0.4,0.3-0.6,0.4c-0.4,0.2-0.8,0.4-1.2,0.5
	c-0.4,0.1-0.7,0.1-0.9,0.1c-0.1,0-0.2,0-0.3,0c-0.1,0-0.1,0-0.1,0h0c0,0,0,0-0.1,0c0,0-0.1,0-0.1,0c-0.1,0-0.1,0-0.2,0
	c-0.1,0-0.3,0-0.5-0.1c-0.2,0-0.3-0.1-0.5-0.1c-0.4-0.1-0.7-0.2-0.9-0.4c-0.1,0-0.1-0.1-0.2-0.1c0,0-0.1-0.1-0.1-0.1
	c-0.1,0-0.1-0.1-0.1-0.1l0,0l-3.6-2.4l0,0c0,0-0.6-0.4-1.7-1.1c-0.3,0.4-0.4,0.6-0.4,0.6l-0.8,1.2c0,0-0.1,0.2-0.4,0.6
	c1.1,0.8,1.7,1.1,1.7,1.1l0,0l3.6,2.4v0c0,0,0.1,0,0.2,0.1c0.1,0,0.1,0.1,0.2,0.1c0.1,0,0.2,0.1,0.3,0.1c0.4,0.2,0.9,0.4,1.5,0.6
	c0.3,0.1,0.6,0.1,0.8,0.2c0.3,0,0.5,0.1,0.7,0.1c0.1,0,0.2,0,0.3,0c0.1,0,0.2,0,0.2,0c0.1,0,0.2,0,0.2,0h0c0,0,0,0,0.1,0
	c0.1,0,0.2,0,0.4,0c0.4,0,0.8-0.1,1.4-0.2c0.6-0.1,1.2-0.4,1.9-0.7c0.3-0.2,0.7-0.4,1-0.6c0.3-0.2,0.6-0.5,0.9-0.8
	c0.3-0.3,0.5-0.6,0.8-0.9c0.2-0.3,0.4-0.6,0.6-1c0.4-0.7,0.6-1.3,0.7-1.9c0.1-0.6,0.2-1.1,0.2-1.4c0-0.2,0-0.3,0-0.4
	c0-0.1,0-0.1,0-0.1v0c0,0,0-0.1,0-0.1c0-0.1,0-0.2,0-0.4c0-0.3-0.1-0.9-0.2-1.4c-0.1-0.6-0.4-1.2-0.7-1.9c-0.2-0.3-0.4-0.7-0.6-1
	c-0.2-0.3-0.5-0.6-0.8-0.9c-0.3-0.3-0.6-0.5-0.9-0.8c-0.3-0.2-0.6-0.4-1-0.6c-0.7-0.4-1.3-0.6-1.9-0.7c-0.6-0.1-1.1-0.2-1.4-0.2
	c-0.2,0-0.3,0-0.4,0c-0.1,0-0.1,0-0.1,0h0c0,0-0.1,0-0.2,0c-0.1,0-0.1,0-0.2,0c-0.1,0-0.2,0-0.3,0c-0.2,0-0.5,0-0.7,0.1
	c-0.3,0-0.5,0.1-0.8,0.2c-0.6,0.2-1.1,0.4-1.5,0.6c-0.1,0-0.2,0.1-0.3,0.1c-0.1,0-0.1,0.1-0.2,0.1c-0.1,0.1-0.2,0.1-0.2,0.1l0,0
	l-11.7,7.9l-4,2.7l0,0c0,0-0.1,0-0.2,0.1c0,0-0.1,0-0.1,0.1c0,0-0.1,0-0.1,0.1c-0.1,0.1-0.2,0.1-0.3,0.2c-0.2,0.1-0.5,0.2-0.7,0.4
	c-0.3,0.1-0.6,0.2-0.9,0.3c-0.3,0.1-0.6,0.2-0.9,0.2c-0.1,0-0.3,0.1-0.4,0.1c-0.1,0-0.1,0-0.2,0c-0.1,0-0.1,0-0.2,0
	c-0.1,0-0.2,0-0.3,0c0,0-0.1,0-0.1,0c0,0-0.1,0-0.1,0c-0.1,0-0.2,0-0.2,0h0c0,0,0,0-0.1,0c-0.1,0-0.2,0-0.4,0
	c-0.3,0-0.8-0.1-1.3-0.2c-0.5-0.1-1.1-0.4-1.7-0.7c-0.3-0.2-0.6-0.4-0.9-0.6c-0.3-0.2-0.6-0.5-0.8-0.7c-0.3-0.3-0.5-0.5-0.7-0.8
	c-0.2-0.3-0.4-0.6-0.6-0.9c-0.3-0.6-0.5-1.2-0.7-1.7c-0.1-0.5-0.2-1-0.2-1.3c0-0.2,0-0.3,0-0.4c0-0.1,0-0.1,0-0.1v0c0,0,0,0,0-0.1
	c0-0.1,0-0.2,0-0.4c0-0.3,0.1-0.8,0.2-1.3c0.1-0.5,0.4-1.1,0.7-1.7c0.2-0.3,0.4-0.6,0.6-0.9c0.2-0.3,0.5-0.6,0.7-0.8
	c0.3-0.3,0.5-0.5,0.8-0.7c0.3-0.2,0.6-0.4,0.9-0.6c0.6-0.3,1.2-0.5,1.7-0.7c0.5-0.1,1-0.2,1.3-0.2c0.2,0,0.3,0,0.4,0
	c0.1,0,0.1,0,0.1,0h0c0.1,0,0.2,0,0.3,0c0,0,0.1,0,0.1,0c0.1,0,0.1,0,0.2,0c0.1,0,0.2,0,0.3,0c0.4,0,0.8,0.1,1.3,0.2c0,0,0,0,0,0
	l0,0c0,0,0.2-0.4,0.6-1.1c0-0.1,0.1-0.2,0.1-0.3c0,0,0.1-0.1,0.1-0.1c0,0,0-0.1,0.1-0.1c0,0,0,0,0,0c0,0,0,0,0,0
	c0.1-0.1,0.1-0.2,0.2-0.3c0.1-0.1,0.1-0.2,0.2-0.3c0.1-0.1,0.2-0.2,0.2-0.3c0.3-0.5,0.8-1,1.3-1.5c0.1-0.1,0.3-0.2,0.4-0.4
	c0.1-0.1,0.1-0.1,0.2-0.2c0.1-0.1,0.1-0.1,0.2-0.2c0.1-0.1,0.1-0.1,0.2-0.2c0.1-0.1,0.2-0.1,0.2-0.2c0.1-0.1,0.2-0.1,0.2-0.2
	c0.1-0.1,0.2-0.1,0.2-0.2c0.6-0.4,1.3-0.7,2-1c0.3-0.1,0.7-0.2,1-0.3c0.2,0,0.3-0.1,0.5-0.1c0.2,0,0.3-0.1,0.4-0.1
	c0.1,0,0.1,0,0.2,0c0,0,0.1,0,0.1,0c0,0,0.1,0,0.1,0c0.1,0,0.3,0,0.4,0c0.1,0,0.2,0,0.3,0c0.1,0,0.2,0,0.3,0c0.3,0,0.5,0,0.5,0h0
	c0,0,0.2,0,0.5,0c0.1,0,0.2,0,0.2,0c0.1,0,0.2,0,0.3,0c0.1,0,0.2,0,0.3,0c0.1,0,0.2,0,0.4,0.1c0.1,0,0.2,0,0.4,0.1
	c0.1,0,0.3,0.1,0.4,0.1C64,6.8,64.3,6.9,64.5,7c0.6,0.2,1.2,0.4,1.8,0.7c0.6,0.3,1.1,0.7,1.6,1c0.5,0.4,0.9,0.8,1.2,1.1
	c0.1,0.1,0.2,0.2,0.2,0.3c0.1,0.1,0.1,0.2,0.2,0.2c0.1,0.1,0.1,0.2,0.2,0.2c0.1,0.1,0.1,0.1,0.1,0.2c0.2,0.2,0.3,0.4,0.3,0.4l0,0
	c0,0,0,0.1,0.1,0.2c0.1,0.1,0.2,0.3,0.3,0.5c0.3,0.4,0.6,1.1,0.9,2c0.5-0.2,0.7-0.2,0.7-0.2l0.7-0.2l0.7-0.2c0,0,0.2-0.1,0.7-0.2
	c-0.4-1.2-0.9-2.1-1.2-2.6C73,10,72.9,9.8,72.8,9.7c-0.1-0.1-0.1-0.2-0.1-0.2l0,0c0,0-0.1-0.2-0.3-0.5c-0.1-0.1-0.1-0.2-0.2-0.2
	c-0.1-0.1-0.1-0.2-0.2-0.3c-0.1-0.1-0.2-0.2-0.3-0.3c-0.1-0.1-0.2-0.2-0.3-0.3c-0.4-0.5-1-1-1.6-1.4c-0.6-0.5-1.3-0.9-2.1-1.3
	c-0.7-0.4-1.5-0.7-2.3-0.9c-0.4-0.1-0.7-0.2-1.1-0.3c-0.2,0-0.3-0.1-0.5-0.1c-0.2,0-0.3,0-0.5-0.1c-0.2,0-0.3-0.1-0.4-0.1
	c-0.1,0-0.3,0-0.4,0c-0.1,0-0.2,0-0.4,0c-0.1,0-0.2,0-0.3,0C61.5,3.5,61.3,3.5,61.3,3.5L61.3,3.5z"/>
<g>
	<g>
		<path class="st3" d="M11.1,53.3c0,0.5-0.1,0.6-0.6,0.6H7.9c-0.5,0-0.6-0.1-0.6-0.6V38H3.6c-0.4,0-0.5-0.1-0.5-0.5v-2.4
			c0-0.4,0.1-0.5,0.5-0.5h11.6c0.6,0,0.7,0.1,0.7,0.3c0,0.1,0,0.2-0.1,0.4l-0.6,2.2C15.1,38,14.8,38,14.6,38h-3.5V53.3z"/>
		<path class="st3" d="M25.3,54.3c-0.2,0.1-0.3,0.1-0.4,0.1c-0.4,0-0.6-0.5-0.9-1.7c-0.8,0.7-2.1,1.7-4.3,1.7
			c-1.6,0-3.7-0.7-3.7-4.1v-9.7c0-0.4,0.2-0.4,0.5-0.5l2.4-0.5c0.1,0,0.4-0.1,0.5-0.1c0.2,0,0.2,0.1,0.2,0.6v9
			c0,1.1,0.1,2.4,1.6,2.4c1.2,0,2.1-0.6,2.5-0.9v-10c0-0.4,0.2-0.4,0.5-0.5l2.4-0.5c0.1,0,0.4-0.1,0.5-0.1c0.1,0,0.2,0.1,0.2,0.6
			v8.8c0,4,0.5,3.8,0.5,4.4c0,0.1-0.1,0.3-0.3,0.3L25.3,54.3z"/>
		<path class="st3" d="M34.8,53.5c0,0.3-0.1,0.4-0.4,0.4h-2.8c-0.3,0-0.4-0.1-0.4-0.4V45c0-3.1-0.7-3.6-0.7-4.3
			c0-0.1,0.1-0.2,0.3-0.3l2.1-0.9c0.1,0,0.3-0.1,0.4-0.1c0.3,0,0.9,1.3,1,2.2c0.5-0.6,1.6-2.2,3.5-2.2c0.8,0,1.6,0.3,1.6,0.6
			c0,0.1,0,0.2-0.1,0.3l-0.9,2.4c0,0.1-0.1,0.3-0.2,0.3c-0.2,0-0.7-0.3-1.3-0.3c-0.9,0-1.8,1-2.1,1.4V53.5z"/>
		<path class="st3" d="M53.1,52.3c0.1,0.1,0.3,0.3,0.3,0.4c0,0.1,0,0.2-0.1,0.3l-2.4,1.3c-0.1,0.1-0.2,0.1-0.3,0.1
			c-0.1,0-0.3-0.2-0.3-0.3L45,47.4h-0.1v6.1c0,0.3-0.1,0.4-0.4,0.4h-2.8c-0.3,0-0.4-0.1-0.4-0.4V34.6c0-0.4,0.2-0.5,0.5-0.5l2.4-0.5
			c0.1,0,0.4-0.1,0.5-0.1c0.2,0,0.2,0.1,0.2,0.6v11.2l5.4-5.5c0.1-0.1,0.3-0.3,0.4-0.3c0.2,0,0.3,0.1,0.5,0.3l1.4,1.2
			c0.1,0.1,0.1,0.2,0.1,0.3s-0.1,0.2-0.3,0.4l-4.6,4.5L53.1,52.3z"/>
	</g>
	<g>
		<path class="st3" d="M58.8,53.6c0,0.3-0.2,0.3-0.3,0.3h-1.6c-0.3,0-0.3-0.2-0.3-0.3V34.9c0-0.2,0-0.3,0.3-0.3h4.4
			c2,0,5.7,0.1,5.7,5.1c0,5.9-5,6-6.1,6h-2V53.6z M60.6,43.8c1.4,0,4-0.1,4-3.9c0-3.1-1.8-3.3-3.6-3.3h-2.2v7.2H60.6z"/>
		<path class="st3" d="M71.8,41.9c0.7-0.8,1.6-1.9,3-1.9c0.4,0,0.8,0.1,1.1,0.2c0.3,0.1,0.3,0.3,0.2,0.4l-0.7,1.6
			c0,0.1-0.1,0.2-0.2,0.2c-0.1,0-0.1-0.1-0.3-0.1c-0.2-0.1-0.3-0.1-0.5-0.1c-0.9,0-1.7,1-2.3,1.7l-0.5,0.6v9.3c0,0.2,0,0.3-0.3,0.3
			h-1.5c-0.3,0-0.3-0.2-0.3-0.3v-9.7c0-0.9-0.2-1.6-0.5-2.1l-0.2-0.4c-0.1-0.1-0.1-0.2-0.1-0.3c0-0.1,0-0.2,0.1-0.2l1.1-0.7
			c0.1-0.1,0.1-0.1,0.2-0.1h0.1c0.2,0,0.4,0.3,0.5,0.5c0.3,0.6,0.6,1.4,0.6,1.9L71.8,41.9z"/>
		<path class="st3" d="M83,53.6c0,0.3-0.2,0.3-0.3,0.3h-1.5c-0.2,0-0.3,0-0.3-0.3V42.1h-2.2c-0.2,0-0.3,0-0.3-0.3v-1.1
			c0-0.3,0.2-0.3,0.3-0.3h4c0.3,0,0.4,0.3,0.4,0.4V53.6z M81.7,37.2c-1,0-1.7-0.8-1.7-1.7s0.8-1.7,1.7-1.7c1,0,1.7,0.8,1.7,1.7
			S82.7,37.2,81.7,37.2z"/>
		<path class="st3" d="M87.9,43.9c0-1.9-0.3-2.4-0.5-2.8c-0.1-0.1-0.1-0.2-0.1-0.2c0-0.1,0.1-0.1,0.1-0.2l1.3-0.7
			c0.1-0.1,0.3-0.2,0.5,0.2c0.1,0.3,0.4,1,0.5,1.4c1.2-1,2.3-1.7,4-1.7c1.2,0,2.1,0.5,2.6,1.7c1.7-1.2,2.8-1.7,4-1.7
			c3,0,3.1,2.5,3.1,4.2v9.4c0,0.3-0.2,0.3-0.3,0.3h-1.5c-0.2,0-0.3,0-0.3-0.3v-9.4c0-0.8-0.1-2.3-1.8-2.3c-1.2,0-2.3,0.9-2.5,1
			L96.7,43v10.5c0,0.3-0.2,0.3-0.3,0.3h-1.5c-0.2,0-0.3,0-0.3-0.3v-9.4c0-0.8-0.1-2.3-1.8-2.3c-1.1,0-1.9,0.5-2.7,1.2v10.5
			c0,0.2,0,0.3-0.3,0.3h-1.5c-0.2,0-0.3,0-0.3-0.3V43.9z"/>
		<path class="st3" d="M116.9,52.7c0,0.1,0,0.1,0,0.2c0,0.1-0.2,0.3-1,0.7c-0.8,0.4-1.9,0.7-3.2,0.7c-2.8,0-6.1-1.6-6.1-7.2
			c0-4.6,2.4-7.2,5.6-7.2c2.4,0,5.1,1.2,5.1,7v0.1c0,0.4-0.1,0.5-0.3,0.5h-8.1v0.1c0,3.3,2,4.7,3.9,4.7c1.2,0,2.2-0.5,3.1-1
			c0.1-0.1,0.2-0.1,0.3-0.1h0.1c0,0,0.1,0,0.1,0.1L116.9,52.7z M114.9,45.8c0-0.2,0-1.3-0.5-2.4c-0.6-1.4-1.6-1.7-2.5-1.7
			c-1.5,0-3.1,1.1-3.1,4.1H114.9z"/>
	</g>
</g>
</svg>
