<?xml version="1.0" encoding="utf-8"?>
<!-- Generator: Adobe Illustrator 22.1.0, SVG Export Plug-In . SVG Version: 6.00 Build 0)  -->
<svg version="1.1" id="Layer_1" xmlns="http://www.w3.org/2000/svg" xmlns:xlink="http://www.w3.org/1999/xlink" x="0px" y="0px"
	 viewBox="0 0 169.3 34" style="enable-background:new 0 0 169.3 34;" xml:space="preserve">
<style type="text/css">
	.st0{fill:#1D1D1B;}
	.st1{fill:#FFFFFF;}
	.st2{fill:#1D4D8F;}
	.st3{fill:#1B8F8C;}
	.st4{fill:#1B8F8C;stroke:#1B8F8C;stroke-width:0.25;stroke-miterlimit:10;}
	.st5{fill:#1D4D8F;stroke:#1D4D8F;stroke-width:0.25;stroke-miterlimit:10;}
	.st6{fill:#1C4D8F;}
</style>
<path class="st1" d="M26.8,2.1c0,0-0.2,0-0.7,0c-0.1,0-0.2,0-0.4,0c-0.1,0-0.3,0-0.4,0c-0.1,0-0.3,0-0.5,0.1c0,0-0.1,0-0.1,0
	c0,0-0.1,0-0.1,0c-0.1,0-0.2,0-0.3,0c-0.2,0-0.4,0.1-0.6,0.1c-0.2,0-0.4,0.1-0.6,0.2c-0.4,0.1-0.8,0.3-1.2,0.4
	c-0.8,0.3-1.7,0.8-2.5,1.3c-0.1,0.1-0.2,0.1-0.3,0.2c-0.1,0.1-0.2,0.1-0.3,0.2c-0.1,0.1-0.2,0.1-0.3,0.2c-0.1,0.1-0.2,0.1-0.3,0.2
	c-0.1,0.1-0.2,0.1-0.3,0.2c-0.1,0.1-0.2,0.1-0.3,0.2c-0.2,0.2-0.3,0.3-0.5,0.5c-0.6,0.6-1.2,1.3-1.6,1.9c-0.1,0.1-0.2,0.3-0.3,0.4
	c-0.1,0.1-0.2,0.3-0.2,0.4C15,8.8,14.9,8.9,14.8,9c0,0,0,0-0.1,0c-0.1,0-0.2,0-0.4,0h0c0,0-0.1,0-0.2,0c-0.1,0-0.3,0-0.5,0
	c-0.4,0-1.1,0.1-1.8,0.3c-0.7,0.2-1.6,0.5-2.4,0.9C9,10.5,8.6,10.7,8.2,11c-0.4,0.3-0.8,0.6-1.1,1c-0.4,0.4-0.7,0.7-1,1.1
	c-0.3,0.4-0.6,0.8-0.8,1.2c-0.5,0.8-0.8,1.7-0.9,2.4c-0.2,0.7-0.3,1.4-0.3,1.8c0,0.2,0,0.4,0,0.5c0,0.1,0,0.2,0,0.2v0
	c0,0,0,0.1,0,0.2c0,0.1,0,0.3,0,0.5c0,0.4,0.1,1.1,0.3,1.8c0.2,0.7,0.5,1.6,0.9,2.4c0.2,0.4,0.5,0.8,0.8,1.2c0.3,0.4,0.6,0.8,1,1.1
	c0.4,0.4,0.7,0.7,1.1,1C8.6,28,9,28.3,9.4,28.5c0.8,0.5,1.7,0.8,2.4,0.9c0.7,0.2,1.4,0.3,1.8,0.3c0.2,0,0.4,0,0.5,0
	c0.1,0,0.2,0,0.2,0h0c0,0,0.1,0,0.3,0c0,0,0.1,0,0.2,0c0.1,0,0.1,0,0.2,0c0.1,0,0.3,0,0.4,0c0.1,0,0.2,0,0.2,0c0.1,0,0.2,0,0.3,0
	c0.2,0,0.4-0.1,0.6-0.1c0.4-0.1,0.8-0.2,1.2-0.3c0.4-0.1,0.8-0.3,1.1-0.4c0.3-0.2,0.7-0.3,0.9-0.5c0.1-0.1,0.2-0.1,0.4-0.2
	c0.1,0,0.1-0.1,0.1-0.1c0,0,0.1-0.1,0.1-0.1c0.2-0.1,0.3-0.2,0.3-0.2l0,0l4-2.7l11.7-7.9l0,0c0,0,0,0,0.1-0.1c0,0,0.1,0,0.1-0.1
	c0,0,0.1-0.1,0.2-0.1c0.2-0.1,0.6-0.3,0.9-0.4c0.2-0.1,0.4-0.1,0.5-0.1c0.2,0,0.3-0.1,0.5-0.1c0.1,0,0.1,0,0.2,0c0.1,0,0.1,0,0.1,0
	c0.1,0,0.1,0,0.1,0h0c0,0,0,0,0.1,0c0.1,0,0.2,0,0.3,0c0.2,0,0.5,0.1,0.9,0.1c0.4,0.1,0.8,0.2,1.2,0.5c0.2,0.1,0.4,0.3,0.6,0.4
	c0.2,0.2,0.4,0.3,0.6,0.5c0.2,0.2,0.3,0.4,0.5,0.6c0.2,0.2,0.3,0.4,0.4,0.6c0.2,0.4,0.4,0.8,0.5,1.2c0.1,0.4,0.1,0.7,0.1,0.9
	c0,0.1,0,0.2,0,0.3c0,0.1,0,0.1,0,0.1v0c0,0,0,0,0,0.1c0,0.1,0,0.1,0,0.3c0,0.2-0.1,0.5-0.1,0.9c-0.1,0.4-0.2,0.8-0.5,1.2
	c-0.1,0.2-0.2,0.4-0.4,0.6c-0.2,0.2-0.3,0.4-0.5,0.6c-0.2,0.2-0.4,0.3-0.6,0.5c-0.2,0.2-0.4,0.3-0.6,0.4c-0.4,0.2-0.8,0.4-1.2,0.5
	c-0.4,0.1-0.7,0.1-0.9,0.1c-0.1,0-0.2,0-0.3,0c-0.1,0-0.1,0-0.1,0h0c0,0,0,0-0.1,0c0,0-0.1,0-0.1,0c-0.1,0-0.1,0-0.2,0
	c-0.1,0-0.3,0-0.5-0.1c-0.2,0-0.3-0.1-0.5-0.1c-0.4-0.1-0.7-0.2-0.9-0.4c-0.1,0-0.1-0.1-0.2-0.1c0,0-0.1-0.1-0.1-0.1
	c-0.1,0-0.1-0.1-0.1-0.1l0,0l-3.6-2.4l0,0c0,0-0.6-0.4-1.7-1.1c-0.3,0.4-0.4,0.6-0.4,0.6l-0.8,1.2c0,0-0.1,0.2-0.4,0.6
	c1.1,0.8,1.7,1.1,1.7,1.1l0,0l3.6,2.4v0c0,0,0.1,0,0.2,0.1c0.1,0,0.1,0.1,0.2,0.1c0.1,0,0.2,0.1,0.3,0.1c0.4,0.2,0.9,0.4,1.5,0.6
	c0.3,0.1,0.6,0.1,0.8,0.2c0.3,0,0.5,0.1,0.7,0.1c0.1,0,0.2,0,0.3,0c0.1,0,0.2,0,0.2,0c0.1,0,0.2,0,0.2,0h0c0,0,0,0,0.1,0
	c0.1,0,0.2,0,0.4,0c0.4,0,0.8-0.1,1.4-0.2c0.6-0.1,1.2-0.4,1.9-0.7c0.3-0.2,0.7-0.4,1-0.6c0.3-0.2,0.6-0.5,0.9-0.8
	c0.3-0.3,0.5-0.6,0.8-0.9c0.2-0.3,0.4-0.6,0.6-1c0.4-0.7,0.6-1.3,0.7-1.9c0.1-0.6,0.2-1.1,0.2-1.4c0-0.2,0-0.3,0-0.4
	c0-0.1,0-0.1,0-0.1v0c0,0,0-0.1,0-0.1c0-0.1,0-0.2,0-0.4c0-0.3-0.1-0.9-0.2-1.4c-0.1-0.6-0.4-1.2-0.7-1.9c-0.2-0.3-0.4-0.7-0.6-1
	c-0.2-0.3-0.5-0.6-0.8-0.9c-0.3-0.3-0.6-0.5-0.9-0.8c-0.3-0.2-0.6-0.4-1-0.6c-0.7-0.4-1.3-0.6-1.9-0.7c-0.6-0.1-1.1-0.2-1.4-0.2
	c-0.2,0-0.3,0-0.4,0c-0.1,0-0.1,0-0.1,0h0c0,0-0.1,0-0.2,0c-0.1,0-0.1,0-0.2,0c-0.1,0-0.2,0-0.3,0c-0.2,0-0.5,0-0.7,0.1
	c-0.3,0-0.5,0.1-0.8,0.2c-0.6,0.2-1.1,0.4-1.5,0.6c-0.1,0-0.2,0.1-0.3,0.1c-0.1,0-0.1,0.1-0.2,0.1c-0.1,0.1-0.2,0.1-0.2,0.1l0,0
	l-11.7,7.9l-4,2.7l0,0c0,0-0.1,0-0.2,0.1c0,0-0.1,0-0.1,0.1c0,0-0.1,0-0.1,0.1c-0.1,0.1-0.2,0.1-0.3,0.2c-0.2,0.1-0.5,0.2-0.7,0.4
	c-0.3,0.1-0.6,0.2-0.9,0.3c-0.3,0.1-0.6,0.2-0.9,0.2c-0.1,0-0.3,0.1-0.4,0.1c-0.1,0-0.1,0-0.2,0c-0.1,0-0.1,0-0.2,0
	c-0.1,0-0.2,0-0.3,0c0,0-0.1,0-0.1,0c0,0-0.1,0-0.1,0c-0.1,0-0.2,0-0.2,0h0c0,0,0,0-0.1,0c-0.1,0-0.2,0-0.4,0
	c-0.3,0-0.8-0.1-1.3-0.2c-0.5-0.1-1.1-0.4-1.7-0.7c-0.3-0.2-0.6-0.4-0.9-0.6c-0.3-0.2-0.6-0.5-0.8-0.7c-0.3-0.3-0.5-0.5-0.7-0.8
	c-0.2-0.3-0.4-0.6-0.6-0.9c-0.3-0.6-0.5-1.2-0.7-1.7C7,20.7,7,20.2,7,19.9c0-0.2,0-0.3,0-0.4c0-0.1,0-0.1,0-0.1v0c0,0,0,0,0-0.1
	c0-0.1,0-0.2,0-0.4c0-0.3,0.1-0.8,0.2-1.3c0.1-0.5,0.4-1.1,0.7-1.7c0.2-0.3,0.4-0.6,0.6-0.9c0.2-0.3,0.5-0.6,0.7-0.8
	c0.3-0.3,0.5-0.5,0.8-0.7c0.3-0.2,0.6-0.4,0.9-0.6c0.6-0.3,1.2-0.5,1.7-0.7c0.5-0.1,1-0.2,1.3-0.2c0.2,0,0.3,0,0.4,0
	c0.1,0,0.1,0,0.1,0h0c0.1,0,0.2,0,0.3,0c0,0,0.1,0,0.1,0c0.1,0,0.1,0,0.2,0c0.1,0,0.2,0,0.3,0c0.4,0,0.8,0.1,1.3,0.2c0,0,0,0,0,0
	l0,0c0,0,0.2-0.4,0.6-1.1c0-0.1,0.1-0.2,0.1-0.3c0,0,0.1-0.1,0.1-0.1c0,0,0-0.1,0.1-0.1c0,0,0,0,0,0c0,0,0,0,0,0
	c0.1-0.1,0.1-0.2,0.2-0.3c0.1-0.1,0.1-0.2,0.2-0.3c0.1-0.1,0.2-0.2,0.2-0.3c0.3-0.5,0.8-1,1.3-1.5c0.1-0.1,0.3-0.2,0.4-0.4
	c0.1-0.1,0.1-0.1,0.2-0.2c0.1-0.1,0.1-0.1,0.2-0.2c0.1-0.1,0.1-0.1,0.2-0.2c0.1-0.1,0.2-0.1,0.2-0.2c0.1-0.1,0.2-0.1,0.2-0.2
	c0.1-0.1,0.2-0.1,0.2-0.2c0.6-0.4,1.3-0.7,2-1c0.3-0.1,0.7-0.2,1-0.3c0.2,0,0.3-0.1,0.5-0.1c0.2,0,0.3-0.1,0.4-0.1
	c0.1,0,0.1,0,0.2,0c0,0,0.1,0,0.1,0c0,0,0.1,0,0.1,0c0.1,0,0.3,0,0.4,0c0.1,0,0.2,0,0.3,0c0.1,0,0.2,0,0.3,0c0.3,0,0.5,0,0.5,0h0
	c0,0,0.2,0,0.5,0c0.1,0,0.2,0,0.2,0c0.1,0,0.2,0,0.3,0c0.1,0,0.2,0,0.3,0c0.1,0,0.2,0,0.4,0.1c0.1,0,0.2,0,0.4,0.1
	c0.1,0,0.3,0.1,0.4,0.1c0.3,0.1,0.6,0.1,0.9,0.2c0.6,0.2,1.2,0.4,1.8,0.7c0.6,0.3,1.1,0.7,1.6,1c0.5,0.4,0.9,0.8,1.2,1.1
	c0.1,0.1,0.2,0.2,0.2,0.3c0.1,0.1,0.1,0.2,0.2,0.2c0.1,0.1,0.1,0.2,0.2,0.2c0.1,0.1,0.1,0.1,0.1,0.2c0.2,0.2,0.3,0.4,0.3,0.4l0,0
	c0,0,0,0.1,0.1,0.2c0.1,0.1,0.2,0.3,0.3,0.5c0.3,0.4,0.6,1.1,0.9,2c0.5-0.2,0.7-0.2,0.7-0.2l0.7-0.2l0.7-0.2c0,0,0.2-0.1,0.7-0.2
	c-0.4-1.2-0.9-2.1-1.2-2.6c-0.2-0.3-0.3-0.5-0.4-0.6C38.2,8.1,38.2,8,38.2,8l0,0c0,0-0.1-0.2-0.3-0.5c-0.1-0.1-0.1-0.2-0.2-0.2
	c-0.1-0.1-0.1-0.2-0.2-0.3c-0.1-0.1-0.2-0.2-0.3-0.3c-0.1-0.1-0.2-0.2-0.3-0.3c-0.4-0.5-1-1-1.6-1.4c-0.6-0.5-1.3-0.9-2.1-1.3
	c-0.7-0.4-1.5-0.7-2.3-0.9c-0.4-0.1-0.7-0.2-1.1-0.3c-0.2,0-0.3-0.1-0.5-0.1c-0.2,0-0.3,0-0.5-0.1c-0.2,0-0.3-0.1-0.4-0.1
	c-0.1,0-0.3,0-0.4,0c-0.1,0-0.2,0-0.4,0c-0.1,0-0.2,0-0.3,0C27,2.1,26.8,2.1,26.8,2.1L26.8,2.1z"/>
<g>
	<g>
		<path class="st1" d="M59.7,27.4c0,0.5-0.1,0.6-0.6,0.6h-2.6c-0.5,0-0.6-0.1-0.6-0.6V12.1h-3.7c-0.4,0-0.5-0.1-0.5-0.5V9.2
			c0-0.4,0.1-0.5,0.5-0.5h11.6c0.6,0,0.7,0.1,0.7,0.3c0,0.1,0,0.2-0.1,0.4l-0.6,2.2c-0.1,0.5-0.4,0.5-0.6,0.5h-3.5V27.4z"/>
		<path class="st1" d="M73.9,28.4c-0.2,0.1-0.3,0.1-0.4,0.1c-0.4,0-0.6-0.5-0.9-1.7c-0.8,0.7-2.1,1.7-4.3,1.7
			c-1.6,0-3.7-0.7-3.7-4.1v-9.7c0-0.4,0.2-0.4,0.5-0.5l2.4-0.5c0.1,0,0.4-0.1,0.5-0.1c0.2,0,0.2,0.1,0.2,0.6v9
			c0,1.1,0.1,2.4,1.6,2.4c1.2,0,2.1-0.6,2.5-0.9v-10c0-0.4,0.2-0.4,0.5-0.5l2.4-0.5c0.1,0,0.4-0.1,0.5-0.1c0.1,0,0.2,0.1,0.2,0.6V23
			c0,4,0.5,3.8,0.5,4.4c0,0.1-0.1,0.3-0.3,0.3L73.9,28.4z"/>
		<path class="st1" d="M83.4,27.6c0,0.3-0.1,0.4-0.4,0.4h-2.8c-0.3,0-0.4-0.1-0.4-0.4v-8.5c0-3.1-0.7-3.6-0.7-4.3
			c0-0.1,0.1-0.2,0.3-0.3l2.1-0.9c0.1,0,0.3-0.1,0.4-0.1c0.3,0,0.9,1.3,1,2.2c0.5-0.6,1.6-2.2,3.5-2.2c0.8,0,1.6,0.3,1.6,0.6
			c0,0.1,0,0.2-0.1,0.3l-0.9,2.4c0,0.1-0.1,0.3-0.2,0.3c-0.2,0-0.7-0.3-1.3-0.3c-0.9,0-1.8,1-2.1,1.4V27.6z"/>
		<path class="st1" d="M101.7,26.4c0.1,0.1,0.3,0.3,0.3,0.4c0,0.1,0,0.2-0.1,0.3l-2.4,1.3c-0.1,0.1-0.2,0.1-0.3,0.1
			c-0.1,0-0.3-0.2-0.3-0.3l-5.2-6.7h-0.1v6.1c0,0.3-0.1,0.4-0.4,0.4h-2.8C90,28,90,27.9,90,27.6V8.7c0-0.4,0.2-0.5,0.5-0.5l2.4-0.5
			c0.1,0,0.4-0.1,0.5-0.1c0.2,0,0.2,0.1,0.2,0.6v11.2l5.4-5.5c0.1-0.1,0.3-0.3,0.4-0.3c0.2,0,0.3,0.1,0.5,0.3l1.4,1.2
			c0.1,0.1,0.1,0.2,0.1,0.3c0,0.1-0.1,0.2-0.3,0.4l-4.6,4.5L101.7,26.4z"/>
	</g>
	<g>
		<path class="st1" d="M107.4,27.7c0,0.3-0.2,0.3-0.3,0.3h-1.6c-0.3,0-0.3-0.2-0.3-0.3V9c0-0.2,0-0.3,0.3-0.3h4.4
			c2,0,5.7,0.1,5.7,5.1c0,5.9-5,6-6.1,6h-2V27.7z M109.3,17.9c1.4,0,4-0.1,4-3.9c0-3.1-1.8-3.3-3.6-3.3h-2.2v7.2H109.3z"/>
		<path class="st1" d="M120.4,16c0.7-0.8,1.6-1.9,3-1.9c0.4,0,0.8,0.1,1.1,0.2c0.3,0.1,0.3,0.3,0.2,0.4l-0.7,1.6
			c0,0.1-0.1,0.2-0.2,0.2c-0.1,0-0.1-0.1-0.3-0.1c-0.2-0.1-0.3-0.1-0.5-0.1c-0.9,0-1.7,1-2.3,1.7l-0.5,0.6v9.3c0,0.2,0,0.3-0.3,0.3
			h-1.5c-0.3,0-0.3-0.2-0.3-0.3V18c0-0.9-0.2-1.6-0.5-2.1l-0.2-0.4c-0.1-0.1-0.1-0.2-0.1-0.3c0-0.1,0-0.2,0.1-0.2l1.1-0.7
			c0.1-0.1,0.1-0.1,0.2-0.1h0.1c0.2,0,0.4,0.3,0.5,0.5c0.3,0.6,0.6,1.4,0.6,1.9L120.4,16z"/>
		<path class="st1" d="M131.6,27.7c0,0.3-0.2,0.3-0.3,0.3h-1.5c-0.2,0-0.3,0-0.3-0.3V16.2h-2.2c-0.2,0-0.3,0-0.3-0.3v-1.1
			c0-0.3,0.2-0.3,0.3-0.3h4c0.3,0,0.4,0.3,0.4,0.4V27.7z M130.4,11.3c-1,0-1.7-0.8-1.7-1.7s0.8-1.7,1.7-1.7c1,0,1.7,0.8,1.7,1.7
			S131.4,11.3,130.4,11.3z"/>
		<path class="st1" d="M136.6,18c0-1.9-0.3-2.4-0.5-2.8c-0.1-0.1-0.1-0.2-0.1-0.2c0-0.1,0.1-0.1,0.1-0.2l1.3-0.7
			c0.1-0.1,0.3-0.2,0.5,0.2c0.1,0.3,0.4,1,0.5,1.4c1.2-1,2.3-1.7,4-1.7c1.2,0,2.1,0.5,2.6,1.7c1.7-1.2,2.8-1.7,4-1.7
			c3,0,3.1,2.5,3.1,4.2v9.4c0,0.3-0.2,0.3-0.3,0.3h-1.5c-0.2,0-0.3,0-0.3-0.3v-9.4c0-0.8-0.1-2.3-1.8-2.3c-1.2,0-2.3,0.9-2.5,1
			l-0.2,0.2v10.5c0,0.3-0.2,0.3-0.3,0.3h-1.5c-0.2,0-0.3,0-0.3-0.3v-9.4c0-0.8-0.1-2.3-1.8-2.3c-1.1,0-1.9,0.5-2.7,1.2v10.5
			c0,0.2,0,0.3-0.3,0.3h-1.5c-0.2,0-0.3,0-0.3-0.3V18z"/>
		<path class="st1" d="M165.5,26.8c0,0.1,0,0.1,0,0.2c0,0.1-0.2,0.3-1,0.7c-0.8,0.4-1.9,0.7-3.2,0.7c-2.8,0-6.1-1.6-6.1-7.2
			c0-4.6,2.4-7.2,5.6-7.2c2.4,0,5.1,1.2,5.1,7v0.1c0,0.4-0.1,0.5-0.3,0.5h-8.1v0.1c0,3.3,2,4.7,3.9,4.7c1.2,0,2.2-0.5,3.1-1
			c0.1-0.1,0.2-0.1,0.3-0.1h0.1c0,0,0.1,0,0.1,0.1L165.5,26.8z M163.6,19.9c0-0.2,0-1.3-0.5-2.4c-0.6-1.4-1.6-1.7-2.5-1.7
			c-1.5,0-3.1,1.1-3.1,4.1H163.6z"/>
	</g>
</g>
</svg>
